<svg xmlns="http://www.w3.org/2000/svg" viewBox="0 0 648.43 297.78"><defs><style>.cls-1{fill:none}.cls-2{isolation:isolate}.cls-3{clip-path:url(#clip-path)}.cls-4{clip-path:url(#clip-path-2)}.cls-5{clip-path:url(#clip-path-3)}.cls-6{fill:#f08c21}.cls-7{fill:#fff}.cls-8{fill:#2d1801;stroke:#fff;stroke-miterlimit:10;opacity:.9}</style><clipPath id="clip-path"><path class="cls-1" d="M323.96 307.52l4.82-157.71 321.42-5.61-4.81 157.71-321.43 5.61z"/></clipPath><clipPath id="clip-path-2"><path class="cls-1" d="M323.96 307.52l12.47-152.39L650.2 144.2l-12.46 152.39-313.78 10.93"/></clipPath><clipPath id="clip-path-3"><path class="cls-1" d="M367.84 305.99l-42.5-15.3 280.99-144.96 42.5 15.3-280.99 144.96"/></clipPath></defs><title>Asset 10</title><g id="Layer_2" data-name="Layer 2"><g id="Gold_Letters" data-name="Gold Letters"><g class="cls-2"><g class="cls-3"><g class="cls-4"><g class="cls-5"><path class="cls-6" d="M371.99 269.28l-6.65 3.43 11.59 10.57-24.61-2.84 10.83 9.94-26.22-3.01-6.63 3.41 49.65 5.67-11.82-10.24 25.66 3.12-21.8-20.05"/><path class="cls-7" d="M365.34 272.71l6.65-3.43 21.8 20.06-25.66-3.12L380 296.45l-49.65-5.67 6.63-3.41 26.22 3-10.83-9.93 24.61 2.83-11.59-10.57m7.25-4.92l-9.5 4.89 10.15 9.26-24.59-2.82 10.83 9.93-23-2.64-9.53 4.89 56.71 6.47L372 287.59l25.51 3.1-24.9-22.9"/><path class="cls-6" d="M397.85 255.85l-21.11 10.89L413 279.78l21.09-10.89-6.15-2.2-14.95 7.7-8.88-3.19 11.21-5.78-6.16-2.22-11.22 5.78-8.88-3.2 14.95-7.71-6.16-2.22"/><path class="cls-7" d="M376.74 266.74l21.11-10.88 6.16 2.22-15 7.71 8.88 3.2 11.22-5.78 6.17 2.22-11.22 5.78 8.88 3.2 14.94-7.71 6.15 2.21L413 279.78l-36.26-13m21.09-12.05l-23.75 12.25 38.92 14 23.75-12.25-8.81-3.19-15 7.72-6.18-2.26 11.24-5.79-8.85-3.21-11.22 5.79-6.2-2.23 15-7.72-8.85-3.18"/><path class="cls-6" d="M428.3 257.46l.66-.34c.71-.35 1.36-.71 2-1.06l1.8-.93c.83-.43 1.68-.85 2.63-1.3a11.67 11.67 0 0 1 2.11-.73l.22-.06a16.74 16.74 0 0 1 3-.43h1c.52 0 1 0 1.51.07h.29a11.27 11.27 0 0 1 1.3.23c.29.07.56.16.82.25 1.45.52 2.17 1.3 2.16 2.13v.08c-.06.76-.72 1.54-2 2.21l-7 3.62-10.42-3.75m-13.71-4.94l3.59-1.85a10.42 10.42 0 0 1 4-1h.53a10.07 10.07 0 0 1 2.71.3l.45.14c1.13.41 1.68 1 1.67 1.67v.06c-.05.57-.53 1.18-1.43 1.74-1.14.67-2 1.17-2.65 1.52l-.65.38-8.22-3m9.33-6.61h-1.89a25.2 25.2 0 0 0-9.82 2.51l-9.72 5 36.09 13 13.16-6.78c2.82-1.46 4.28-3 4.44-4.73v-.44c0-1.9-1.54-3.37-4.63-4.48l-.4-.13q-.89-.3-1.83-.52l-.31-.07a27 27 0 0 0-6-.56h-1.53l-1 .07a43.58 43.58 0 0 0-4.47.74l-.92.22-.29-.4a7.3 7.3 0 0 0-3.39-2.5l-.21-.07-.29-.1a18 18 0 0 0-3-.68 25.52 25.52 0 0 0-3.73-.22h-.25"/><path class="cls-7" d="M438.71 260l-7.71-2.75 1.36-.71 1.91-1c.76-.39 1.55-.79 2.39-1.18a11.54 11.54 0 0 1 4.28-.93h.19a9.38 9.38 0 0 1 3.18.43c2.09.75 2.15 2.22.14 3.24l-5.7 3m2.66-7.46h-.69a16.74 16.74 0 0 0-3 .43l-.22.06a11.67 11.67 0 0 0-2.11.73c-1 .45-1.8.87-2.63 1.3l-1.8.93c-.64.35-1.3.71-2 1.06l-.66.34 10.42 3.75 7-3.62c1.3-.67 2-1.46 2-2.21v-.08c0-.83-.71-1.61-2.16-2.13-.26-.09-.53-.17-.82-.25a11.27 11.27 0 0 0-1.3-.23h-.29c-.49 0-1-.07-1.51-.07h-.31m-18.63 1.72l-5.48-2 2.27-1.16a6.79 6.79 0 0 1 2.79-.65h.09a6.34 6.34 0 0 1 2.14.29c1.62.59 1.27 1.64.11 2.37l-1.93 1.12m0-4.63h-.53a10.42 10.42 0 0 0-4 1l-3.59 1.85 8.22 3 .65-.38c.64-.35 1.51-.85 2.65-1.52.9-.57 1.37-1.17 1.43-1.74v-.06c0-.66-.54-1.26-1.67-1.67l-.45-.14a10.07 10.07 0 0 0-2.71-.3m-20.23 3.87l9.72-5A25.2 25.2 0 0 1 422 246h2.14a25.52 25.52 0 0 1 3.73.22 18 18 0 0 1 3 .68l.29.1.21.07a7.3 7.3 0 0 1 3.39 2.5l.29.4.92-.22a43.58 43.58 0 0 1 4.47-.74l1-.07H443a27 27 0 0 1 6 .56l.31.07q.95.22 1.83.52l.4.13c3.09 1.11 4.61 2.58 4.63 4.48v.44c-.16 1.72-1.61 3.27-4.44 4.73l-13.16 6.78-36.09-13m21.71-8.45h-.64c-.5 0-1 0-1.53.09a29 29 0 0 0-11.15 2.71l-11.06 5.7 38.79 14 14.48-7.47c3.38-1.74 5.07-3.69 5-5.81s-1.78-3.78-5.2-5a28 28 0 0 0-10-1.43h-.71c-.57 0-1.15.06-1.73.09-1.17.11-2.78.37-4.12.64a8.79 8.79 0 0 0-3.59-2.45 24.13 24.13 0 0 0-8.58-1.21"/><path class="cls-6" d="M474 225.75h1.88c.85 0 1.68.1 2.51.2a26.34 26.34 0 0 1 4.55.95l.64.21.41.13c3.67 1.33 5.47 3.07 5.39 4.95v.09c-.12 1.74-1.86 3.58-5.2 5.32l-3.18 1.63-23.83-8.57 3.09-1.6c.28-.15.55-.28.84-.41s.73-.34 1.11-.49a32 32 0 0 1 10.38-2.36H474m1.54-3.89h-1.05c-.44 0-.88 0-1.33.07h-.56a50.36 50.36 0 0 0-17.74 4.52l-9.9 5.11 36.08 13 9.22-4.76c5-2.55 7.58-5.32 7.82-8.24v-.43c0-2.78-2.68-5.15-7.93-7l-.7-.24-.59-.2h-.05l-.38-.12-1.38-.39a39.13 39.13 0 0 0-4.13-.84l-.5-.07a44.94 44.94 0 0 0-6.45-.4h-.44"/><path class="cls-7" d="M481 238.07l-21.15-7.61 1.76-.91a28.1 28.1 0 0 1 11.73-2.93h.55a24.87 24.87 0 0 1 8.77 1.34c6.43 2.31 6.49 5.91.16 9.17l-1.82 1m-7-12.32h-1.39a32 32 0 0 0-10.38 2.36c-.38.16-.75.32-1.11.49s-.56.26-.84.41l-3.09 1.6 23.81 8.56 3.15-1.62c3.34-1.73 5.08-3.58 5.2-5.32v-.09c.08-1.88-1.72-3.62-5.39-4.95l-.41-.13-.64-.21a26.34 26.34 0 0 0-4.55-.95c-.83-.1-1.66-.17-2.51-.2H474m-19.15.76a50.36 50.36 0 0 1 17.78-4.52h.56c.45 0 .89-.05 1.33-.07H476a44.94 44.94 0 0 1 6.45.4l.5.07a39.13 39.13 0 0 1 4.13.84l1.38.39.38.12h.05l.59.2.7.24c5.26 1.89 7.93 4.26 7.93 7v.43c-.24 2.92-2.86 5.69-7.82 8.24l-9.22 4.76-36.08-13 9.9-5.11m21-5.49h-1c-.76 0-1.52.07-2.29.13-5.2.41-12.86 1.64-19.76 5.2l-10.53 5.45 38.76 13.94 10.56-5.45c5.56-2.86 8.38-6 8.39-9.29 0-3-2.87-5.56-8.5-7.6a43.89 43.89 0 0 0-15.66-2.4"/><path class="cls-6" d="M497.67 204.35l-21.1 10.89 36.25 13.03 21.09-10.88-6.14-2.21-14.95 7.71-8.89-3.2 11.21-5.78-6.15-2.21-11.21 5.77-8.91-3.19 14.97-7.72-6.17-2.21"/><path class="cls-7" d="M476.57 215.24l21.09-10.89 6.17 2.22-15 7.72 8.9 3.2L509 211.7l6.15 2.21-11.21 5.78 8.89 3.2 15-7.72 6.13 2.21-21.09 10.88-36.24-13m21.09-12.06l-23.82 12.24 38.93 14 23.75-12.25-8.82-3.19-14.94 7.72-6.21-2.24 11.22-5.78-8.83-3.18-11.21 5.78-6.2-2.23 14.94-7.71-8.84-3.19"/><path class="cls-6" d="M524.5 194h-.84a32.12 32.12 0 0 0-10 1.95l-.51.2c-.4.16-.79.34-1.17.52l-.3.16c-2.82 1.44-4.28 3.16-4.4 4.79v.17c0 1.72 1.45 3.34 4.44 4.41.22.08.44.15.65.22a22.27 22.27 0 0 0 6.72.78h.91a42.6 42.6 0 0 0 9.66-1.62c.64-.18 1.33-.4 2.06-.64l.43-.14 1.48-.47a27.27 27.27 0 0 1 4.56-1 11.9 11.9 0 0 1 1.24-.1h.26a8.72 8.72 0 0 1 2.49.29l.48.15c1.14.4 1.61 1.05 1.58 1.75v.07a2.51 2.51 0 0 1-.93 1.58h.48l-1.6.83-.56.26a16.1 16.1 0 0 1-4.43 1.06 10.2 10.2 0 0 1-1 .07h-.83a10.73 10.73 0 0 1-1.43-.12l-.29-.06-4.78 3.61.47.09a28.7 28.7 0 0 0 5.51.4h.81a33.48 33.48 0 0 0 12.05-2.65l.49-.23.33-.16c3-1.55 4.57-3.4 4.71-5.14v-.17c0-1.73-1.37-3.32-4.22-4.35q-.6-.22-1.25-.38a20.93 20.93 0 0 0-5-.59h-1.95a35.73 35.73 0 0 0-4.13.48l-1.05.19c-1.45.29-2.83.64-4.07 1l-.43.13-.91.29-1.74.55c-.82.25-1.7.5-2.59.72-.37.09-.74.17-1.12.24-.66.13-1.32.24-2 .32-.37 0-.74.07-1.11.07h-.24a9.28 9.28 0 0 1-3.29-.48c-1.27-.45-1.89-1.13-1.85-1.87v-.07c.06-.67.67-1.36 1.83-2a9.88 9.88 0 0 1 1-.43 13.19 13.19 0 0 1 3.2-.68c.28 0 .57 0 .86-.06h.17a13.6 13.6 0 0 1 2.12.12l.66.12 4.76-3.6-.55-.1a28.63 28.63 0 0 0-5.75-.45"/><path class="cls-7" d="M507.31 201.85v-.17c.12-1.62 1.58-3.34 4.4-4.79l.3-.16c.38-.18.77-.36 1.17-.52l.51-.2a32.12 32.12 0 0 1 10-1.95h.84a28.63 28.63 0 0 1 5.75.45l.55.1-4.83 3.59-.66-.12a13.6 13.6 0 0 0-2.12-.12h-.17c-.28 0-.57 0-.86.06a13.19 13.19 0 0 0-3.2.68 9.88 9.88 0 0 0-1 .43c-1.15.6-1.76 1.29-1.83 2v.07c0 .74.58 1.42 1.85 1.87a9.28 9.28 0 0 0 3.29.48h.24c.37 0 .74 0 1.11-.07.66-.07 1.33-.18 2-.32.38-.07.75-.15 1.12-.24.9-.22 1.77-.47 2.59-.72l1.74-.55.91-.29.43-.13c1.23-.37 2.62-.72 4.07-1l1.05-.19a35.73 35.73 0 0 1 4.13-.48h1.95a20.93 20.93 0 0 1 5 .59q.64.17 1.25.38c2.86 1 4.26 2.62 4.22 4.35v.17c-.13 1.74-1.71 3.59-4.71 5.14l-.33.16-.49.23a33.48 33.48 0 0 1-12.05 2.65h-.81a28.7 28.7 0 0 1-5.51-.4l-.47-.09 4.78-3.61.29.06a10.73 10.73 0 0 0 1.43.12h.83a10.2 10.2 0 0 0 1-.07 16.1 16.1 0 0 0 4.43-1.06l.56-.26 1.6-.83h-.48a2.51 2.51 0 0 0 .93-1.58v-.07c0-.7-.44-1.35-1.58-1.75l-.48-.15a8.72 8.72 0 0 0-2.49-.29h-.26a11.9 11.9 0 0 0-1.24.1 27.27 27.27 0 0 0-4.56 1l-1.48.47-.43.14c-.73.24-1.42.46-2.06.64a42.6 42.6 0 0 1-9.66 1.62h-.82a22.27 22.27 0 0 1-6.72-.78c-.22-.07-.44-.13-.65-.22-3-1.08-4.48-2.69-4.44-4.41m17.42-8.65H524a33.76 33.76 0 0 0-13.69 3.19c-6.61 3.41-6.61 8.15 0 10.55a24.2 24.2 0 0 0 8.38 1.14h.61a46.41 46.41 0 0 0 11-1.8c.68-.2 1.4-.43 2.16-.67a26.3 26.3 0 0 1 6.59-1.56h.17a5.36 5.36 0 0 1 1.92.28c1.74.63 1.12 2.17-.54 3l-.36.19a12.51 12.51 0 0 1-4.12.85H536a6.51 6.51 0 0 1-2.15-.26l-.83-.3-6.94 5.24.72.17a30.23 30.23 0 0 0 7.53.73h.7a36.34 36.34 0 0 0 14.6-3.4c6.81-3.51 7-8.47.48-10.82a23.75 23.75 0 0 0-8.23-1.11h-.57a43.46 43.46 0 0 0-11.32 2l-.92.3a30 30 0 0 1-7.42 1.72h-.18a6.34 6.34 0 0 1-2.23-.32c-1.71-.61-1.7-1.86 0-2.74a8.67 8.67 0 0 1 3.54-.82h.18a7.33 7.33 0 0 1 2.49.34l.82.31 7-5.24-.7-.17a30.49 30.49 0 0 0-7.93-.82"/><path class="cls-6" d="M533.99 185.69l-6.14 3.18 36.1 12.99 6.15-3.18-36.11-12.99"/><path class="cls-7" d="M527.85 188.87l6.14-3.18 36.11 13-6.1 3.17-36.1-13m6.13-4.34l-8.8 4.54L564 203l8.8-4.55-38.77-14"/><path class="cls-6" d="M573.82 169.22c-4.2.41-11.28 1.53-17.3 4.64l-.48.25h-.09c-4.4 2.37-6.72 5-6.95 7.75v.56c.05 3.13 2.62 5.63 7.64 7.44.54.19 1.11.38 1.67.55q1.27.37 2.61.66a45.27 45.27 0 0 0 9.93.88h2.45l1.63-.11a47.34 47.34 0 0 0 18.19-4.7c4.75-2.44 7.27-5.18 7.5-8.13v-.44c0-3.33-3.15-6-9.34-8l-17.81 9.2 5.84 2.11 11-5.68.51.57a3.69 3.69 0 0 1 1 2.6v.18c-.17 1.84-1.86 3.73-4.89 5.3a31 31 0 0 1-12 3.09l-.89.06h-2.25a28.39 28.39 0 0 1-6.93-.79q-.82-.21-1.59-.47l-.37-.13c-3.32-1.19-5-2.82-5-4.88v-.38c.15-1.9 1.78-3.67 4.88-5.25a30.62 30.62 0 0 1 11.07-3v-3.86"/><path class="cls-7" d="M556 174.11l.48-.25c6-3.11 13.1-4.24 17.3-4.64v3.86a30.62 30.62 0 0 0-11.07 3c-3.09 1.58-4.73 3.35-4.88 5.25v.38c0 2.05 1.7 3.69 5 4.88l.37.13q.77.26 1.59.47a28.39 28.39 0 0 0 6.93.79h2.25l.89-.06a31 31 0 0 0 12-3.09c3-1.56 4.72-3.46 4.89-5.3v-.18a3.69 3.69 0 0 0-1-2.6l-.51-.57-11 5.68-5.84-2.11 17.81-9.2c6.19 2 9.32 4.64 9.34 8v.44c-.23 3-2.75 5.69-7.5 8.13a47.34 47.34 0 0 1-18.19 4.7l-1.63.11h-2.45a45.27 45.27 0 0 1-9.93-.88q-1.35-.28-2.61-.66c-.57-.17-1.13-.36-1.67-.55-5-1.81-7.58-4.31-7.64-7.44v-.56c.23-2.78 2.55-5.39 6.95-7.75h.09m19.66-5.87l-1 .07c-4.21.35-12.22 1.42-19.08 4.82h-.1l-.48.25c-5.37 2.78-8.06 5.87-8 9.2s2.82 6 8.19 8a43.55 43.55 0 0 0 15.52 2.25h1.13c1 0 2-.09 3-.17a50.66 50.66 0 0 0 19.53-5.05c5.34-2.75 8.06-5.84 8.06-9.18 0-3.7-3.59-6.65-10.66-8.76l-.65-.2-20.39 10.52 8.51 3.06 10.17-5.24c1 1.72.56 4.27-3.88 6.57A27.28 27.28 0 0 1 575 187c-.56 0-1.12.08-1.67.1h-.62a23.54 23.54 0 0 1-8.44-1.23c-3-1.07-4.45-2.49-4.46-4.34s1.38-3.49 4.34-5a27.69 27.69 0 0 1 10.7-2.74l.93-.07v-5.51"/><path class="cls-6" d="M607.93 147.46l-6.18 3.18 21.68 7.81-43.88 3.82 36.05 12.98 6.14-3.17-21.67-7.81 43.93-3.82-36.07-12.99"/><path class="cls-7" d="M601.75 150.64l6.18-3.18 36.07 13-43.93 3.83 21.68 7.8-6.14 3.17-36.05-13 43.88-3.83-21.68-7.8m6.16-4.34l-8.82 4.56L619 158l-43.87 3.82 40.49 14.58 8.8-4.54-19.89-7.16 43.92-3.83-40.54-14.57"/></g></g></g></g><path class="cls-8" d="M.53 25.12A20.43 20.43 0 0 1 3.7 26a2.54 2.54 0 0 1 1.38 1.45A24.42 24.42 0 0 1 5 37.07c-.29 1.38-1.07 1.65-2.43 1.14-2-.76-2-.76-2-2.9zM7.61 102c-2-.91-3.88-1.89-5.86-2.74a1.79 1.79 0 0 1-1.25-2V62c3 1.11 5.85 2.08 8.63 3.27a4.24 4.24 0 0 1 1.9 2.06c4.26 9.46 5.74 19.25 3.11 29.43a14.13 14.13 0 0 1-2 4.16c-1.14 1.72-2.65 1.99-4.53 1.08zm354.92 19.3q32.78-12.15 65.54-24.36c.26-.1.52-.16 1-.3v37.71c0 .75 0 1.3-.91 1.67q-32.86 13.59-65.7 27.25l-1 .37v-40.82a1.37 1.37 0 0 1 1.07-1.52zM253.28 86.89q30.23 10.4 60.47 20.78a1.25 1.25 0 0 1 1 1.42v121.46h-.21L252 86.54c.55.15.92.22 1.28.35zm-32.52-11.17l-14.43 66.34h-.26l-14.49-75.68h-.23L177.85 130h-.24l-13.92-74zM43.81 41.08c0-.16 0-.31.08-.72l4.8 1.81a11 11 0 0 0 1.35.5c3.85.9 6 3.58 7.44 7A42.16 42.16 0 0 1 59.76 76a19.29 19.29 0 0 1-2.69 5.81c-1.25 2-3 2.27-5.14 1.38-2.43-1-4.85-2.07-7.28-3.07a1.15 1.15 0 0 1-.86-1.23q.04-18.89.02-37.81zm28.77 118.65L59.37 110c6.43-3.68 8.6-10.05 10.53-16.52a71 71 0 0 0 2.6-18.71 104.19 104.19 0 0 0-4.29-33.62C66.47 35.45 64.4 29.91 61 25c-1.4-2.06-3.12-3.9-4.61-5.74l53.21 18.25a36.74 36.74 0 0 0-5.78-.19c-4.73.52-8.08 3.43-10.86 7-4.49 5.82-7.17 12.52-9.1 19.53a114.64 114.64 0 0 0-3.66 28.58 157.65 157.65 0 0 0 5.55 45.65c2.59 9.21 5.84 18.17 10.71 26.46 3.16 5.38 6.93 10.24 12.12 13.89zm28.89-18.36a75.69 75.69 0 0 1-8-24.35 96.38 96.38 0 0 1-.71-26.65c.78-6.89 2.43-13.53 6.36-19.39a17.4 17.4 0 0 1 2.22-2.67 8.45 8.45 0 0 1 9.93-1.81 17.92 17.92 0 0 1 7.32 6.39c3.75 5.28 6.06 11.23 7.91 17.37a88.53 88.53 0 0 1 3.7 24.57v2.28c0 7.83-.61 15.57-3.39 23a26.88 26.88 0 0 1-5.06 8.77c-3.38 3.74-7.53 4.38-11.88 1.85-3.82-2.22-6.34-5.6-8.4-9.35zm326.42 85.25q-23.76 12.21-47.49 24.48l-17.77 9.18c-.31.16-.63.3-1.13.54v-69.81a1.55 1.55 0 0 1 1.09-1.69q32.66-14.41 65.3-28.86L429 160c0 .54.07 1 .07 1.37v63.36a1.85 1.85 0 0 1-1.18 1.89zM593.36 142c-3.2 1.62-6.42 3.21-9.6 4.86l-57.46 29.76-57 29.53-1.87.94V57.49c0-.83 0-1.42 1.05-1.78l86.22-29.42 38-13c.22-.08.46-.11.69-.17v22.11l-.45.14Q550.47 51.14 508 66.88a1.6 1.6 0 0 0-1.24 1.8v34.17c.61-.23 1-.37 1.41-.54l67.68-28.11c5.82-2.42 11.63-4.87 17.45-7.31V88l-.44.19q-42.48 18.9-85.02 37.81a1.49 1.49 0 0 0-1 1.6v33.11c0 .37 0 .74.08 1.25l5.89-2.85 75.47-36.8c1.68-.82 3.39-1.56 5.09-2.33z"/><path class="cls-8" d="M31.67 10.72Q17 5.7 2.38.65q-.07.3-.16.6A11 11 0 0 1 8 6a35.91 35.91 0 0 1 2.41 4.54c3.58 8.28 4.83 17 5 26 .05 2.59.62 5.21.38 7.77-.28 3 1.82 4.83 2.54 7.29.12.42.33.81.47 1.23 5.7 16.46 8.2 33.32 6.2 50.71a48.38 48.38 0 0 1-4 15.36c-1.94 4.1-4 8.1-9.31 9.1l20.92 10.92a13.94 13.94 0 0 0 .2-1.71V11.15zm329.82 250.11v-69.81a1.55 1.55 0 0 1 1.09-1.69q32.66-14.41 65.3-28.86L429 160c0 .54.07 1 .07 1.37v63.36a1.85 1.85 0 0 1-1.19 1.91q-23.76 12.21-47.49 24.48l-17.77 9.18c-.31.15-.62.29-1.13.53zm-47-30.24L252 86.54c.55.15.92.23 1.28.35q30.23 10.4 60.47 20.78a1.25 1.25 0 0 1 1 1.42v121.46zm-46.43 30.96l46.74 24.35L269.06 169h-.27l-.92 91.56-.33-.17c.18.38.36.76.52 1.16zm-91.15-47.46c.27.12.52.25.78.38a4.41 4.41 0 0 1-.5-1.12c-.61-3.34-1.17-6.69-1.75-10q-4.64-26.56-9.27-53.12-4.26-24.44-8.5-48.88l-8.56-49.23a1.66 1.66 0 0 0-1.26-1.48q-15.36-5.24-30.7-10.53c-1.72-.59-3.46-1.16-5.26-1.77 1.75 1.12 3.48 2.05 5 3.24 5.05 3.87 8.61 9 11.52 14.56 8.88 16.93 13.24 35.12 14.68 54.08a160 160 0 0 1-.22 27.66 90.64 90.64 0 0 1-4.83 22.67c-2.11 5.74-4.82 11.16-9.05 15.67-3.26 3.47-7.14 5.67-12.1 5.19a44 44 0 0 1-4.34-.87c.47.28.73.46 1 .6l61 31.76a13.12 13.12 0 0 1 2.36 1.19zm14.56-63.89l-13.34 64.29-.26.06.71.39.19.09q13.18 6.86 26.34 13.75a.9.9 0 0 1 .28.27l.53.2c-4.77-26.34-9.42-52.7-14.45-79.05zm60.04 100.56q.06-81.35 0-162.71c0-.69.11-1.38.16-2a8.54 8.54 0 0 1-1.42-.22c-1.52-.49-3-1-4.53-1.55l-7.21-2.46-32 147.46h-.38l.49.24.52.27.4.21 43.25 22.53c.38-.1.77-.18 1.16-.24a2.31 2.31 0 0 1-.44-1.53zm109.98-87.11v-40.82a1.37 1.37 0 0 1 1.06-1.53q32.78-12.15 65.54-24.36c.26-.1.52-.16 1-.3v37.71c0 .75 0 1.3-.91 1.67q-32.86 13.59-65.7 27.25zm-252.92 14.83l-36-18.74L59.37 110c6.43-3.68 8.6-10.05 10.53-16.52a71 71 0 0 0 2.6-18.71 104.19 104.19 0 0 0-4.29-33.62C66.47 35.45 64.4 29.91 61 25c-1.4-2.06-3.12-3.9-4.61-5.74l53.21 18.25a36.73 36.73 0 0 0-5.78-.19c-4.73.52-8.08 3.43-10.86 7-4.49 5.82-7.17 12.52-9.1 19.54a114.64 114.64 0 0 0-3.66 28.58 157.64 157.64 0 0 0 5.55 45.65c2.59 9.21 5.84 18.17 10.71 26.46 3.14 5.45 6.92 10.27 12.11 13.93z"/><path class="cls-8" d="M130.18 117.11c0 7.83-.61 15.57-3.39 23a26.88 26.88 0 0 1-5.06 8.77c-3.38 3.74-7.53 4.38-11.88 1.85-3.8-2.21-6.32-5.59-8.38-9.35a75.69 75.69 0 0 1-8-24.35 96.39 96.39 0 0 1-.71-26.65c.78-6.89 2.43-13.53 6.36-19.39a17.39 17.39 0 0 1 2.22-2.67 8.45 8.45 0 0 1 9.93-1.81 17.92 17.92 0 0 1 7.32 6.39c3.75 5.28 6.06 11.23 7.91 17.37a88.53 88.53 0 0 1 3.7 24.57c-.01.76-.02 1.52-.02 2.27zm90.58-41.39l-14.43 66.34h-.26l-14.49-75.68h-.23L177.85 130h-.24l-13.92-74zM43.89 40.36l4.8 1.81a11 11 0 0 0 1.35.5c3.85.9 6 3.58 7.44 7A42.16 42.16 0 0 1 59.76 76a19.29 19.29 0 0 1-2.69 5.81c-1.25 2-3 2.27-5.14 1.38-2.43-1-4.85-2.07-7.28-3.07a1.15 1.15 0 0 1-.86-1.23V41.11c.02-.18.06-.34.1-.75zM.53 62c3 1.11 5.85 2.08 8.63 3.27a4.24 4.24 0 0 1 1.9 2.06c4.26 9.46 5.74 19.25 3.11 29.43a14.13 14.13 0 0 1-2 4.16c-1.15 1.72-2.62 2-4.5 1.12s-3.88-1.89-5.86-2.74a1.79 1.79 0 0 1-1.25-2V65.62zm43.52 36h-.31v46.59c.11.14.22.29.33.43l.52.18c2.4.76 4.56 2.29 6.82 3.47l6.91 3.58zM.53 25.12A20.44 20.44 0 0 1 3.7 26a2.54 2.54 0 0 1 1.38 1.45A24.42 24.42 0 0 1 5 37.07c-.29 1.38-1.07 1.65-2.43 1.14-2-.76-2-.76-2-2.9C.53 32 .53 28.62.53 25.12z"/></g></g></svg>