<svg id="Logo_5-2" xmlns="http://www.w3.org/2000/svg" viewBox="0 0 671 319"><style>.st0{stroke:#fff;stroke-miterlimit:10}.st0,.st1{fill:#dfdfdf}.st2{fill:none}.st3{fill:#474747;stroke:#fff;stroke-miterlimit:10}</style><title>BrownAE-logo-grey-white</title><path class="st0" d="M43.7 142.8c0-41.6.1-84.6.1-126.3V15m11 133.5c2.8 1.2 5.8 3.1 8.3 4.4l6.2 3.2L55.1 102h-.3v46.5M3.3 122.7c-.6-.4-.9-1-1-1.7V.7c.6.2 2.2.8 2.5.9 3.1 1.1 5.1 1.9 8.3 2.9 2.3.8 4 3.8 5.4 5.8 1.9 2.9 3.4 6 4.4 9.2 3.6 10.1 3.3 20.6 3.9 31 0 .6.2 1.2.4 1.8.8 1.9 1.9 3.7 2.6 5.6 5.5 16 8 32.3 6.2 49.2-.6 5.9-4.3 19.3-14.6 24l-.9.4m3.2 1.1l-.5-.3.8.4c-8.5-4.3 16.8 8.6 19.7 10.1M43.8 15c-10.9-3.7-23-8-33.9-11.7C7.5 2.5 5.1 1.6 2.7.7h667.7v317.8H1.8V121.4l41.9 21.4m235.9 122.9l46.2 24.1L280 172.6l-.3.1c0 30.7-.1 62.2-.1 93m-61.9-32.2l44.7 23.3m-73.2-38.1c.2.1.4.2.6.2l20.1 10.5c2.3 1.2 4.6 2.5 6.9 3.7m45.5 23.7c0-54.2.2-110.5.2-164.7v-1c0-.3 0-.7.1-1 .3.7.8 1.3 1 1.9 8.5 19.7 17.1 39.4 25.6 59.1l35.9 82.8c.1.3.3.6.6 1V113c0-.8-.3-1.1-1-1.3-20.2-6.9-40.5-13.9-60.7-20.9-.4-.2-.7-.4-1-.6-.6-.1-1.1-.2-1.7-.3-.8-.2-1.6-.5-2.4-.8l-9.4-3.2c-.1.3-.2.6-.2.8-1.1 4.9-2.1 9.8-3.2 14.8l-13.3 61.4c-3.6 16.7-7.3 33.4-10.9 50.1-1.4 6.4-2.8 12.9-4.2 19.3-.1.5-.1 1.2-1 1.1v-.6c-1.5-8.6-3.1-17.1-4.6-25.7l-7.5-42.4c-.7-3.6-1.3-7.1-1.9-10.7h-.2l-13.4 64.6-.8-.3c-1.6-9.3-3.3-18.7-4.9-28.1-4-22.7-7.9-45.5-11.9-68.2-3.8-22-7.6-43.9-11.5-65.9 0-.7-.5-1.2-1.1-1.4-11.6-4-23.3-8-34.9-12-.3-.1-.7-.2-.9-.3 1.8 1.2 3.6 2.2 5.3 3.6 5.3 4.2 8.9 9.8 11.9 15.8 8.6 17.1 12.8 35.4 13.9 54.4.6 8.9.4 17.9-.5 26.8-.7 7.6-2.4 15.2-5 22.4-2.2 5.7-5 11.2-9.5 15.5-2.8 2.7-6 4.6-10 4.5-1.9-.2-3.8-.4-5.7-.9 0 0 .4.2.7.4 17.1 9 34.2 17.9 51.3 26.8 4.2 2.2 8.5 4.4 12.8 6.6M604.4 17c-.5.1-.8.2-1.2.3l-65.8 22.5C518.2 46.4 499 53 479.8 59.5c-.9.1-1.5 1-1.3 1.8v149.6l1.2-.6 16.2-8.4 58.9-30.5c16.1-8.3 32.2-16.7 48.3-25 .8-.3 1.3-1.1 1.2-2v-19.2c0-.5 0-.9-.1-1.5l-86.4 42.1c0-.4-.1-.6-.1-.8v-33.8c0-.9.5-1.1 1.1-1.4 28.1-12.5 56.2-24.9 84.3-37.4.7-.2 1.2-.9 1.1-1.7V70.8l-86.5 35.9V72.5c-.1-.8.4-1.6 1.2-1.8l84-31.2c.9-.2 1.5-1.1 1.3-2V18.4l.2-1.4zM372.5 264.7l1.4-.7 19.7-10.2c15.2-7.8 30.3-15.6 45.4-23.5.7-.3 1.2-1 1.1-1.8v-64.8c-.6.3-1.1.4-1.6.6-21.7 9.6-43.3 19.2-65 28.7-.8.3-1.2 1-1.1 1.8v68.3l.1 1.6zm67.6-164.2l-67.5 25.1v41.9c.4-.1.6-.2.9-.3 21.9-9.1 43.8-18.2 65.7-27.2.7-.2 1.1-.8 1-1.5v-36.6l-.1-1.4zM67.6 23.2c1.6 2.1 3.5 4.2 5 6.5 3.1 5.2 5.5 10.8 7 16.6 3.9 13.8 4.9 28.3 3.1 42.5-.7 6.1-2.4 12-5.2 17.5-1.5 2.8-3.2 5.4-6.1 6.9-.9.5-.9.9-.7 1.8 4.2 15.6 8.3 31.2 12.5 46.9.1.5.2 1.1.3 1.7l35.8 18.6c-5.2-4-9.4-9-12.4-14.8-7.8-14.3-12-29.8-14.2-45.9-1.3-9.6-1.7-19.3-1.3-29 .2-8.5 1.5-17 3.7-25.2 2-7.1 4.7-13.8 9.4-19.6 2.2-3.1 5.4-5.3 9.1-6.3 2.3-.5 4.7-.5 7-.1l-53-18.1zm73.6 98.6c.1-6.8-.6-13.6-1.9-20.3-1.5-7.9-4.3-15.6-8.3-22.6-2.1-3.4-4.6-6.5-8.2-8.3s-7.2-1.4-10.3 1.5c-1.1 1.1-2.1 2.2-2.9 3.5-3 4.9-4.8 10.3-5.5 16-1.9 13.2-1 26.7 2.6 39.5 1.8 6.2 4.1 12.3 7.9 17.6 1.8 2.7 4.3 4.9 7.2 6.4 3.4 1.8 7.6 1.1 10.2-1.7 2.8-3 4.9-6.6 6.1-10.5 2.5-7.1 3.1-14.5 3.1-21.1zm75.9 24.2h.2l14.5-66.5L174.7 60l13.9 74h.2l13.5-63.6h.3l14.5 75.6zM54.8 44.2v38.4c0 .5.2 1 .6 1.3 2.6 1.2 5.3 2.3 7.9 3.4 1.4.7 3 .3 4-.9 1.1-1.4 2-2.9 2.7-4.6 1.6-4.3 1.8-8.8 1.6-13.3-.2-5.6-1.5-11-3.9-16-.9-1.8-2-3.7-3.9-4.5-2.7-1.5-5.7-2.5-9-3.8zM10.5 65.9v35.9c.1.5.4.9.8 1.1 2.1 1.1 4.3 2.1 6.5 3.1 1.6.7 3.1.6 4-.9 1.1-1.5 1.9-3.2 2.5-5 1.2-3.7 1.2-7.6 1.1-11.5-.4-5.8-1.8-11.6-4.2-16.9-.4-1.1-1.2-2-2.2-2.6-2.6-1.2-5.5-2.1-8.5-3.2zm0-36.9v1.3c0 3.1.1 6.1 0 9.2-.2 1.1.5 2.2 1.7 2.5 1.9.6 2.8.4 3-1.7.2-2.9.2-5.7 0-8.6-.1-.7-.6-1.4-1.2-1.7-1.2-.4-2.3-.8-3.5-1z"/><path class="st1" d="M613.7 164.8l-13.5 7c.3.2.7.4 1 .6 2 .7 3.9 2 5.9 1.9s3.8-1.5 5.6-2.5l4.2-2.1c.4-.2.9-.3 1.3-.2 1.9.6 3.8 1.3 6 2.1-1.9 1-3.5 1.8-5.1 2.6s-3.2 1.7-5 2.6c.6.3.9.5 1.3.6 1.6.6 3.1 1.2 4.7 1.7.7.2 1.4.2 2.1-.1 3.9-1.9 7.8-4 11.7-6 .6-.4 1.4-.5 2.2-.2 1.7.7 3.4 1.2 5.4 1.9-1.9 1-3.6 1.9-5.3 2.8l-14.1 7.2c-.5.3-1.1.3-1.7.1-11-3.9-22-7.9-33-11.9-.1-.1-.2-.1-.3-.2l10.7-5.5c2.9-1.5 5.8-3 8.6-4.4.4-.2.9-.3 1.3-.3 2 .8 4 1.6 6 2.3zM420.9 273.6c4.8-3.1 9.5-5.2 14.9-3.9 1.3.3 2.8.7 3 2.3s-1.3 2.1-2.4 3c-3.3 2.5-6.7 2.6-10.3.7-1.7-.8-3.4-1.5-5.2-2.1zm-10.1-3.8c1.3-1.4 3.3-2 5.1-1.3.3.1.7.5.7.7-.1.4-.3.7-.6.9-1.5 1.2-3.7 1.1-5.2-.3zm37.3-19.3c.3-.2.5-.4.8-.6 6.9-2.7 13.8-3.3 20.9-.8.8.3 1.5.7 2.1 1.3 1.5 1.1 1.8 3.2.8 4.7-.1.1-.1.2-.2.2-.9 1-2 1.8-3.1 2.5-.4.2-.8.2-1.1 0-6.5-2.3-13-4.6-19.5-7-.2-.1-.4-.2-.7-.3z"/><path class="st2" d="M11.4 124.8c0 .3-.1.7-.1 1 0 .2 0 .4-.1.5v.3c.3-.1.6-.3.9-.5l.5-.2.2-.1v.5c0 .1-.1.4 0 .5s.1 0 .2 0h.2c.2.1.4.2.6.4.2.1.4.2.7.3l.6.3.4.2c.2.1.4.1.6.2l.4.2c.1.1.2.1.3.2.4.1.7.4 1 .5.1 0 .2 0 .2.1.1 0 .1.1.2.1h.3c.1 0 .2 0 .2.1"/><path class="st3" d="M573.3 191.1l7.9-4.1c2.5-1.3 5-2.6 7.6-3.9.7-.3 1.4-.4 2.1-.2 2.4.8 4.8 1.8 7 3.1 3.4 2.1 3.6 5.9.8 8.8-3 3.1-6.8 4.7-10.8 6-4.5 1.4-9.3 2.1-14 2.2-5.3.4-10.6-.4-15.6-2.2-1.4-.6-2.8-1.3-4-2.2-2.4-1.6-3.1-4.7-1.5-7.1.2-.2.3-.4.5-.7 1.4-1.6 3-2.9 4.9-4 5.3-3.1 11.2-4.2 17.2-4.9.2 0 .5.3.7.5v.2c.2 3.1.2 3-2.8 3.5-3.3.4-6.4 1.5-9.2 3.3-1.5 1-2.8 2.2-2.6 4.2s1.7 3.1 3.4 3.8c3.7 1.5 7.7 2 11.6 1.5 3.7-.2 7.3-1.2 10.6-2.8 1.7-.9 3.3-1.9 3.8-3.9.2-.8.1-1.6-.2-2.3-.5-1.4-1.1-1.5-2.5-.9-2.5 1.3-4.9 2.5-7.3 3.8-.7.4-1.6.5-2.4.2-1.6-.7-3.3-1.2-5.2-1.9zM355.1 291.4c2.1-1.1 4.2-2.3 6.4-3.2.9-.3 2 0 3.1.1 4 .4 8.1.9 12.1 1.3 2.2.2 4.5.4 6.8.7l.2-.3-8.8-8.5 21.3 2.3.2-.4-9-8.6c2.3-1.2 4.5-2.3 6.7-3.4.3-.1.9.2 1.2.5 4.7 4.3 9.3 8.7 13.9 13l5.7 5.3-21.8-2.4-.2.4 8.9 8.2-.1.3-46.5-5.2-.1-.1zm65.1-33.6c4.4-1.9 8.2-4.8 12.8-5.8 4.4-.9 8.9-1.3 13.2.5 1.4.6 3 .7 4.5.4 4.8-1 9.8-.9 14.6.4 1.5.5 3 1.1 4.3 2 1.7.9 2.4 3.1 1.5 4.8-.2.3-.4.6-.6.8-.9 1.1-2.1 2-3.3 2.7-3.8 2.1-7.7 4.1-11.6 6-.6.3-1.3.3-2 .1-10.9-3.9-21.7-7.8-32.6-11.7-.3 0-.4 0-.8-.2zm23.7 2.8c1.8.6 3.6 1.2 5.3 2 3.6 1.9 7 1.8 10.3-.7 1.1-.8 2.6-1.3 2.4-3s-1.7-2-3-2.3c-5.6-1.1-10.2.9-15 4zm-10.1-3.8c1.4 1.4 3.7 1.6 5.3.4.3-.2.5-.5.6-.9 0-.2-.4-.5-.7-.7-1.8-.7-3.9-.2-5.2 1.2zm205.8-82.5l-38.5 3.7-.1.4 18.3 6.6c-2.1 1.1-4.1 2.2-6.1 3.1-.4.1-.9.1-1.3-.1-10.9-3.9-21.8-7.8-32.7-11.9l38.2-3.7v-.4l-18.3-6.6c2.3-1.1 4.3-2.2 6.3-3.2.3-.1.7 0 1 .1l32.8 11.8c.2.1.3.2.4.2zm-181.8 64.2c5.7-3.2 11.2-6 17.6-7.1 4.2-.8 8.5-1.1 12.7-.9 4.9.3 9.7 1 14 3.5 1.8.8 3.1 2.4 3.6 4.3.4 2-.3 4-1.8 5.3-1.2 1.2-2.6 2.2-4 3-2.3 1.4-4.8 2.6-7.2 3.8-.5.2-1.1.2-1.7 0l-30.9-11.1-2.3-.8zm13.3-1c.2.2.5.3.7.5 6.5 2.3 13 4.7 19.5 7 .4.2.8.2 1.1 0 1.1-.7 2.2-1.6 3.1-2.5 1.2-1.4 1.1-3.5-.3-4.7-.1-.1-.2-.1-.2-.2-.6-.5-1.4-1-2.1-1.3-7.1-2.6-14-1.9-20.9.8-.3 0-.6.2-.9.4zm39.9-20.8l-13.5 7c.4.3.9.5 1.3.7 1.6.6 3.2 1.2 4.9 1.7.6.2 1.2.1 1.8-.1 2.9-1.4 5.7-2.9 8.5-4.3.6-.3 1.3-.3 1.9-.1 1.8.5 3.5 1.2 5.5 2l-9.8 5.1v.4c2.2.8 4.4 1.6 6.6 2.3.4.1.9-.2 1.3-.4 3.8-2 7.7-3.9 11.5-6 .8-.5 1.7-.5 2.5-.2 1.6.7 3.3 1.2 5.1 1.9-.2.2-.4.3-.6.4-6.2 3.2-12.3 6.4-18.5 9.5-.6.3-1.3.3-2 .2-10.7-3.8-21.3-7.6-32-11.5-.3-.1-.6-.3-1.2-.5l6-3.1c4.4-2.3 8.7-4.5 13.1-6.8.7-.4 1.5-.4 2.2-.1 1.6.6 3.4 1.2 5.4 1.9zm-114.5 53.4c6.6-3.4 13-6.7 19.5-10 .4-.2.8-.3 1.2-.2 1.9.6 3.8 1.3 5.9 2.1l-13.2 6.9v.4c1.2.4 2.4.8 3.5 1.3 2.4 1.3 4.5 1 6.7-.5 1.9-1.2 4-2.2 6.1-3.1.6-.3 1.3-.3 2-.2 1.7.5 3.4 1.2 5.4 1.9l-10 5.2c.4.2.7.4 1.1.6 1.7.6 3.4 1.3 5.1 1.8.6.2 1.3.1 1.9-.1 4-2 7.9-4.1 11.8-6 .6-.3 1.3-.3 2-.1 1.8.5 3.5 1.2 5.4 1.9-1.1.6-2 1.1-2.8 1.5-5.4 2.8-10.8 5.6-16.3 8.4-.7.3-1.4.4-2.1.2-11-3.9-21.9-7.8-32.8-11.8-.2 0-.3-.1-.4-.2zM538 205.8c-2 1-3.9 2-5.8 3-.4.1-.9.1-1.3 0-2.1-.4-4.4 0-6.3 1-.6.3-1.3 1.2-1.2 1.6.3.7.8 1.3 1.6 1.5 2.4.8 4.8.2 7.2-.4 3.2-.8 6.3-1.7 9.5-2.3 4-.7 8-.8 11.8.9 1.6.7 3.2 1.6 3.3 3.6s-1.2 3-2.7 4c-3.1 1.9-6.6 3-10.2 3.3-3.5.5-7 .4-10.5-.5-.3-.1-.5-.2-1.1-.4 2.2-1.1 4.2-2.2 6.2-3.1.3-.1.7 0 1 0 2.2.2 4.4.3 6.4-1 .6-.4 1-1 1.1-1.7-.2-.7-.7-1.2-1.4-1.4-1.5-.3-3.1-.4-4.6-.1-3.8.8-7.6 2-11.4 2.7-3.7.8-7.5.7-11.1-.3-1.2-.4-2.3-.9-3.3-1.6-1.4-.8-1.9-2.6-1.1-4.1.1-.3.3-.5.5-.7.9-1 1.9-1.8 3.1-2.4 3.1-1.6 6.5-2.5 10-2.7 3-.3 6-.2 9 .5.3.1.5.1.8.2.2.2.4.3.5.4zm-6.3-5.5c2.1-1.1 4-2.1 5.9-3 .5-.1 1.1-.1 1.6.1 10.4 3.7 20.9 7.5 31.3 11.2l1.8.6c-2.2 1.1-4.1 2.1-6.1 3.1-.4.1-.8.1-1.1 0-11-3.9-21.9-7.9-32.9-11.8-.2.1-.4 0-.5-.2z"/></svg>