<svg id="Logo_5-1" data-name="Logo 5-1" xmlns="http://www.w3.org/2000/svg" viewBox="0 0 667.42 309.36"><defs><style>.cls-1{fill:none}.cls-2{isolation:isolate}.cls-3{clip-path:url(#clip-path)}.cls-4{clip-path:url(#clip-path-2)}.cls-5{clip-path:url(#clip-path-3)}.cls-6{fill:#f08c21}.cls-7{fill:#280f0b}</style><clipPath id="clip-path" transform="translate(-83.65 -285.98)"><path class="cls-1" d="M411.86 603.7l5.06-165.65 335.27-5.85-5.05 165.65-335.28 5.85z"/></clipPath><clipPath id="clip-path-2" transform="translate(-83.65 -285.98)"><path class="cls-1" d="M411.86 603.7l13.09-160.1 327.24-11.4-13.09 160.1-327.24 11.4"/></clipPath><clipPath id="clip-path-3" transform="translate(-83.65 -285.98)"><path class="cls-1" d="M447.73 602.45l-34.75-12.51 303.34-156.49 34.75 12.51-303.34 156.49"/></clipPath></defs><title>headphones</title><g class="cls-2"><g class="cls-3"><g class="cls-4"><g class="cls-5"><path class="cls-6" d="M369.62 283.18l-7.44 3.84 9.39 8.93-22.09-2.37 9.38 8.94-22.1-2.39-7.43 3.83 48.53 5.4-9.84-9.06 22.56 2.5-20.96-19.62m22.21-11.45l-16.85 8.68-3.86 2 13.9 5 6.95 2.49 13.89 5.01 7.65-3.95 6.8-3.5 6.25-3.24-6.96-2.49-13.78 7.11-6.94-2.5 10.35-5.34-6.95-2.49-10.34 5.34-6.96-2.52 13.78-7.11-6.93-2.49"/><path class="cls-6" d="M513.27 562.54l-5.19-1.87-5.22-1.88 1.72-.88 3.43-1.78a13.38 13.38 0 0 1 5.21-1.34h1.05a11.54 11.54 0 0 1 4.14.6c1.44.52 2.15 1.22 2.16 2.1s-.71 1.7-2.14 2.44l-5.17 2.66m-17.37-6.25l-1.72-.62-1.75-.64 1.71-.88a4.59 4.59 0 0 1 1.91-.52h.07a4.12 4.12 0 0 1 1.51.26c1.15.41 1.15.92 0 1.51l-1.72.89m1.73-6.95h-.46l-1.32.08a22.67 22.67 0 0 0-8.65 2.22l-8.63 4.46 8.68 3.13 1.73.62 7 2.5 5.21 1.88 12.16 4.37 8.67-4.48 3.4-1.75q5-2.57 5-5.68c0-2.09-1.68-3.72-5-4.93a26.21 26.21 0 0 0-8.83-1.37h-1.64a38.45 38.45 0 0 0-8 1.11 8.24 8.24 0 0 0-2.29-1.2 19.06 19.06 0 0 0-6.88-1m52.98-6.15l-20.85-7.5a26.79 26.79 0 0 1 10.37-2.7c.54 0 1.07-.07 1.58-.09h.62a22.93 22.93 0 0 1 8.2 1.18c2.88 1 4.32 2.44 4.32 4.22s-1.41 3.4-4.25 4.86m-6.92-14.62h-1q-1.27 0-2.59.15a45.05 45.05 0 0 0-17.22 4.4l-2 1-5 2.58 34.74 12.51.47-.24 6.74-3.48q6.82-3.61 6.8-8t-7.21-7a38.73 38.73 0 0 0-13.76-2" transform="translate(-83.65 -285.98)"/><path class="cls-6" d="M479.62 226.44l-18.43 9.5-2.27 1.17 13.9 5.01 6.94 2.49 13.9 5.01 6.74-3.48.17-.09 5.8-2.99 7.98-4.13-6.95-2.5-13.79 7.11-6.94-2.49 10.34-5.34-6.94-2.5-10.34 5.34-6.96-2.5 13.78-7.11-6.93-2.5"/><path class="cls-6" d="M589.29 502.71h-.62c-.52 0-1 0-1.58.09a27 27 0 0 0-10.34 2.65h-.07c-2.82 1.47-4.23 3.08-4.21 4.85s1.44 3.19 4.31 4.21a17.66 17.66 0 0 0 6.15 1h1.21a37.79 37.79 0 0 0 5-.49 45.74 45.74 0 0 0 5-1.08l2.51-.74 3.26-.91a8 8 0 0 1 1.9-.3h.14a7.21 7.21 0 0 1 2.55.42c1 .35 1.44.82 1.44 1.41s-.47 1.13-1.42 1.61a8.88 8.88 0 0 1-3.46.9h-.71a7.73 7.73 0 0 1-2.76-.4l-6.92 3.57a23 23 0 0 0 8.23 1.19h.62c.51 0 1 0 1.57-.09a26.86 26.86 0 0 0 10.37-2.6q4.28-2.19 4.25-4.86c0-1.78-1.45-3.18-4.33-4.23a17.15 17.15 0 0 0-6.13-1h-.62a39.18 39.18 0 0 0-5.64.59 41.58 41.58 0 0 0-5 1.18c-1.39.45-2.26.71-2.59.81a28.6 28.6 0 0 1-3.43.74 11.35 11.35 0 0 1-1.49.17h-.15a7.51 7.51 0 0 1-2.66-.41c-.95-.34-1.43-.81-1.44-1.4s.47-1.14 1.41-1.63a9.11 9.11 0 0 1 3.46-.88h.77a7.49 7.49 0 0 1 2.69.39l6.9-3.56a23.15 23.15 0 0 0-8.2-1.17" transform="translate(-83.65 -285.98)"/><path class="cls-6" d="M513.16 209.13l-6.92 3.57 34.74 12.5 1.22-.63 5.7-2.94-34.74-12.5"/><path class="cls-6" d="M635 479.86a57.78 57.78 0 0 0-9.23 1.5 37 37 0 0 0-8.05 3c-4.76 2.45-7.12 5.16-7.08 8.12s2.42 5.31 7.2 7a38.39 38.39 0 0 0 13.69 2h1.05c.85 0 1.71-.07 2.59-.14a44.73 44.73 0 0 0 17.28-4.46c4.74-2.44 7.11-5.14 7.08-8.11s-2.42-5.32-7.19-7a28.06 28.06 0 0 0-3.82-1.06l-3.15 1.62-4 2.06-9.76 5 6.94 2.49 9.76-5a3.23 3.23 0 0 1 1.24 3.72c-.47 1.39-1.82 2.65-4.06 3.81a26.9 26.9 0 0 1-10.36 2.59c-.53 0-1 .07-1.55.09h-.61a23.15 23.15 0 0 1-8.23-1.19c-2.86-1-4.3-2.43-4.33-4.21s1.38-3.4 4.24-4.88a27.37 27.37 0 0 1 10.35-2.66v-4.29" transform="translate(-83.65 -285.98)"/><path class="cls-6" d="M580.94 174.17l-5.69 2.92-1.23.64 18.99 6.83-39.68 3.84-.01.01 34.75 12.5 6.9-3.57-19-6.84 39.7-3.84-34.73-12.49m24.46-12.63l-7.41 3.82-13.28 6.86 13.9 5.01 6.94 2.49 13.89 5 2.09-1.08 4.83-2.49 13.79-7.11-6.97-2.5-13.78 7.11-6.94-2.5 10.34-5.34-6.94-2.49-10.35 5.34-6.96-2.51 13.8-7.12-6.95-2.49"/><path class="cls-6" d="M716.44 448.6l-5.21-1.87-5.23-1.88 5.16-2.66a13.49 13.49 0 0 1 5.2-1.34h1.08a11.53 11.53 0 0 1 4.12.59c1.44.51 2.16 1.22 2.16 2.11s-.7 1.7-2.12 2.44l-5.17 2.66m2.45-12.15h-.72c-.59 0-1.2.06-1.82.1a31.82 31.82 0 0 0-11.89 3l-3.63 1.87-1.77.91-.41.21-6.49 3.35 12.16 4.38 12.15 4.37 10.44 3.75 4.19-2.16 2.71-1.4-12.71-4.58h21.53l8.44-4.35h-19q2.11-2.22 1.21-4.47c-.59-1.48-2.16-2.68-4.69-3.6h-.05l-.42-.15a27.44 27.44 0 0 0-9.2-1.24" transform="translate(-83.65 -285.98)"/></g></g></g></g><path class="cls-7" d="M438.18 138.76l-67.51 28.03v-41.92l67.51-25.1v38.99zm0 90.36l-67.51 34.85v-70.98l67.51-29.87v66z"/><path class="cls-7" d="M599.63 356.46v35.6l86.48-35.91v21l-86.48 38.39v35.6L686.11 409v22l-125.88 65.2V345.25l125.88-43v22.06zm-192.07 40.73V575L84.06 406.48V286m24.53 49.78c.42-3-.37-6.15-.37-9.5a70.16 70.16 0 0 0-3.7-23.38q-3.68-10.45-8.76-12.25l-12.1-4.3v121.1l17 8.61c4.82 2.43 9 .26 12.49-6.58s5.31-16.46 5.31-28.63a105.84 105.84 0 0 0-3.09-25.92c-2.04-8.14-3.64-14.53-6.79-19.16zm-15.26-9.27v-12.26l3.43.94c1.65.64 1.47 3 1.47 7.15s-.83 5.79-2.47 5.13zm8.36 27.73c2.06.89 2.83 3.47 4.31 7.77a43.49 43.49 0 0 1 2.22 14.21q0 7.74-2.22 12.16t-5.31 2.92l-7.36-3.5v-36.75l2.43 1zm24 74.67l11 5.47v-48l14.45 55.15 14.27 7.09L152.17 399q5.7-2.42 9.44-12.77t3.75-25.53a100.66 100.66 0 0 0-6.06-35.62q-6-16-14.25-18.83l-8.4-2.94-11-3.85v129.43zm11-60.06v-39.37l8.4 3.18q3.53 1.34 6.05 8.2a43.48 43.48 0 0 1 2.49 15.14q0 8.29-2.54 13.11t-6.05 3.3zm67-41.6c-8.65-3.08-15.92 1.15-21.87 12.53s-8.79 26.19-8.79 45a153.41 153.41 0 0 0 8.79 52.6c6 16.48 13.23 27 21.87 31.32s16.31 1.24 22.83-9.7 9.88-26.77 9.88-46.93-3.31-38.61-9.88-55.39c-6.52-16.55-14.13-26.32-22.91-29.45zm0 28.25q7.87 3 13.62 17.94a90.92 90.92 0 0 1 5.8 32.89q0 17.91-5.8 27.9c-3.83 6.59-8.38 8.61-13.62 6.12s-9.62-8.67-13.24-18.53a91.72 91.72 0 0 1-5.45-31.89q0-17.12 5.38-27.23c3.62-6.8 8.01-9.23 13.23-7.22zm109.93 9.38L299 431.72l-14.72-76.91-13.75 64.85-14-74.34-14.86-5.15 28.85 165.55 13.9-67L299 520.1 331.37 371m13 3.49v167l17.25 8.72v-92.8l46 117.56-.07-54.86" transform="translate(-83.65 -285.98)"/></svg>