<svg xmlns="http://www.w3.org/2000/svg" viewBox="0 0 100 79.3"><path d="M93.7 1.9H6.4c-2.9 0-5.3 2.4-5.3 5.3v63.1c0 2.9 2.4 5.3 5.3 5.3h87.3c2.9 0 5.3-2.4 5.3-5.3V7.2c0-2.9-2.4-5.3-5.3-5.3zm2.5 68.5c0 1.4-1.1 2.5-2.5 2.5H6.4c-1.4 0-2.5-1.1-2.5-2.5V15.7h92.4v54.7h-.1zm0-57.5H3.8V7.2c0-1.4 1.1-2.5 2.5-2.5h87.3c1.4 0 2.5 1.1 2.5 2.5v5.7h.1z"/><path d="M67.6 7.4H32.3c-.8 0-1.4.6-1.4 1.4s.6 1.4 1.4 1.4h35.3c.8 0 1.4-.6 1.4-1.4s-.6-1.4-1.4-1.4z"/><circle cx="7.8" cy="8.8" r="1.4"/><circle cx="12.4" cy="8.8" r="1.4"/><circle cx="17.1" cy="8.8" r="1.4"/><path d="M38.1 50.1L30.8 45l7.3-5.1-2.5-3.5L23.3 45l12.3 8.6zm20.3-21.3h-4.9l-11.9 31h4.8zm6 24.8L76.7 45l-12.3-8.6-2.5 3.5 7.3 5.1-7.3 5.1z"/></svg>