<svg id="Layer_1" xmlns="http://www.w3.org/2000/svg" viewBox="0 0 100 100.1"><style>.st0{display:none}.st1{display:inline}</style><g class="st0"><g class="st1"><path d="M-962-126.8H218v1190.6H-962z"/><path d="M218.5 1064.6h-1181V-127.6h1181v1192.2zm-1180-1.6h1179V-126h-1179v1189z"/></g></g><path d="M95.7 34l-9.9-6.8c-.5-.3-1.1-.4-1.6-.1-.1.1-.2.1-.3.2H62.2v-8.9c0-3.4-2.8-6.2-6.2-6.2h-.4c-.9 0-1.8.2-2.6.6v-1.6C53 7.8 50.2 5 46.8 5h-.4c-3.4 0-6.2 2.8-6.2 6.2v.4c-.8-.4-1.6-.6-2.6-.6h-.4c-3.4 0-6.2 2.8-6.2 6.2v1c-.8-.4-1.6-.6-2.6-.6H28c-3.4 0-6.2 2.8-6.2 6.2v3.5h-9.9c-.7 0-1.3.6-1.3 1.3v1.6H9c-3.4 0-6.2 2.8-6.2 6.2v.7c0 3.4 2.8 6.2 6.2 6.2h1.7v1.6c0 .7.6 1.3 1.3 1.3h10.3V71c0 .2 0 .4.1.6v.1c.3.9 1.4 3.1 5.7 10.4v12.8h3.6v-9c5.1-.1 10.3 0 15.4 0h7v9h3.6V83.8L71 62.6c0-.1.1-.1.1-.2v-.1c0-.1.1-.2.1-.3V46.2h12.6c.1.1.2.2.3.2.2.1.5.2.7.2.3 0 .6-.1.9-.3l9.9-6.8c1-.7 1.5-1.7 1.5-2.8.1-1-.4-2-1.4-2.7zm-85.1 6.1H9c-1.7 0-3.1-1.4-3.1-3.1v-.7c0-1.7 1.4-3.1 3.1-3.1h1.7v6.9zm11.6-9v12.5h-9V29.9h9v1.2zm40 3.4c.2-.1.4-.1.6-.1h7.6c1.3 0 2.3 1 2.3 2.3s-1 2.3-2.3 2.3h-7.6c-.2 0-.4 0-.6-.1v-4.4zm5.5 26.6l-1.5 2.4-11.9 18.8h-22c-.1-.1-.2-.3-.2-.4-.1-.2-.3-.5-.4-.7-.1-.2-.2-.3-.3-.5-3.3-5.5-5.3-9.1-5.6-9.9v-47c0-1.4 1.1-2.6 2.5-2.6h.4c1.4 0 2.6 1.2 2.6 2.6v18.3h3.6V17.2c0-1.4 1.1-2.6 2.6-2.6h.4c1.4 0 2.6 1.1 2.6 2.6v24.9H44V11.2c0-1.4 1.1-2.6 2.6-2.6h.4c1.4 0 2.6 1.1 2.6 2.6v31l3.6-.2V18.4c0-1.4 1.1-2.6 2.6-2.6h.2c1.4 0 2.6 1.1 2.6 2.6v37.8h3.6v-8.9h5.5v13.8zm15.6-17.5H62.2v-3.3c.2 0 .4.1.6.1h7.6c2 0 3.6-1.6 3.6-3.6s-1.6-3.6-3.6-3.6h-7.6c-.2 0-.4 0-.6.1V30h21.1v13.6zm10.6-6.7L86.5 42V31.5l7.4 5.1c.1.1.2.2.2.1l-.2.2z"/></svg>