<svg xmlns="http://www.w3.org/2000/svg" viewBox="0 0 65.5 53.9"><path d="M16.4 3h1.5v1.5h-1.5zm-3.5 0h1.5v1.5h-1.5zm7 0h1.5v1.5h-1.5zm-7.3 14.7H17v1.5h-4.4zm5 31.9h-5.5c-.4 0-.8.3-.8.8s.3.8.8.8h5.5c.4 0 .8-.3.8-.8s-.4-.8-.8-.8z"/><path d="M27.9 36h18.7v-1.5H27.9V17.6c0-1.4-1.1-2.5-2.5-2.5h-15V7.3h48.8v23.3h1.5v-28c0-1.4-1.2-2.6-2.6-2.6H11.5c-1.4 0-2.6 1.2-2.6 2.6v12.5H2.5c-1.4 0-2.5 1.1-2.5 2.5v33.8c0 1.4 1.1 2.5 2.5 2.5h22.8c1.4 0 2.5-1.1 2.5-2.5V41h23.6v-1.5H27.9V36zM11.5 1.4H58c.6 0 1.1.5 1.1 1.1v3.2H10.4V2.6c0-.6.5-1.2 1.1-1.2zm-9 15.2h22.8c.6 0 1 .4 1 1v3H1.5v-3c0-.6.5-1 1-1zm23.9 5.5v24.7H1.5V22.1h24.9zm-1 30.3H2.5c-.5 0-1-.4-1-1v-3.1h24.8v3.1c.1.5-.4 1-.9 1z"/><path d="M65.3 42.1c-8.9-15.4-16.1-19-18.4-19.8.2-1.5-.3-2.8-.3-2.8-1.1-4-5.2-4.2-6.6-4.3-1.8-.1-2.9-2.1-2.9-2.2l-.5-.9-.7.7s-3.9 3.9-.5 9.5c2.5 4.3 6 4.3 7.5 4.1.8 2.3 4.5 9.4 19.6 18.4.1 0 .5.2 1 .2s1-.2 1.4-.6c.9-.8.6-1.9.4-2.3zm-1.4 1.4c-.2.2-.6.1-.6.1-17.4-10.3-19.2-18.1-19.2-18.2l-.2-.9-.8.3s-.6.2-1.4.2c-1.4 0-3.4-.6-5.1-3.4-2-3.3-1-5.8-.3-6.9.7.8 1.8 1.9 3.5 2 3 .2 4.6 1.1 5.2 3.3 0 0 .5 1.3.2 2.6l-.1.8.8.1c.1 0 8 1.7 18.1 19.3.1.2.1.4-.1.7z"/><path d="M49.286 29.612l1.078-1.043 1.043 1.078-1.078 1.043zm2.124 2.211l1.079-1.043 1.043 1.078-1.079 1.043zm1.95 2.11l1.078-1.043 1.043 1.078-1.078 1.043z"/></svg>