<svg id="Layer_1" data-name="Layer 1" xmlns="http://www.w3.org/2000/svg" viewBox="0 0 819.7 852.9"><defs><style>.cls-1{isolation:isolate}</style></defs><title>retroatom</title><path class="cls-1" d="M534.3 7.5h-18.7c-5.7 1.6-11.7 2.7-17.2 4.8-21.1 8.1-35.6 23.6-47.1 42.3-2.2 3.6-4.5 5.1-8.9 4.7-24.1-1.8-44.8 11.9-51.9 34-7.3 22.6 1.2 45.9 21.9 58.7 3.3 2 3.7 4 3.3 7.4-2.4 21.6-4.6 43.1-6.8 64.7-.6 6.3-.9 12.6-1.4 19.1H393c-41.8 0-83.4 3-123.4 16.3-37.8 12.5-71.2 30.6-80.4 74.4v18.7c4.5 24.8 16.3 46.1 32 65.5 20.9 25.7 46 46.8 72.8 66 7.9 5.6 15.9 11 22.8 15.6-12.4 27.2-25.4 53.2-36.2 80.1-16.5 41-28.1 83.2-24.7 128.1 1.8 23.8 8.9 45.7 26.1 63.2 19 19.2 43 25.8 69 26.6 34 1 66.6-6.8 97.8-19.4 29.1-11.7 57.2-25.7 85.8-38.6 10.3 14.4 20.8 30.6 32.9 45.6 28 34.8 58.8 66.1 105.4 75.1h18.7c8.5-2.9 17.5-4.9 25.5-9 18.7-9.4 31.3-25.2 41.4-43 23.3-41.2 32-86.5 37-132.8 1.4-13.4 2.2-26.9 3.3-40.4 10.4-.8 20.6-1.4 30.7-2.5 4.9-.6 7.3.9 9.7 5.3 10.3 18.8 32.2 27.8 52.9 22.4 20.3-5.3 35.2-23.7 35.2-44.8 0-5.8 1.9-8.4 6.8-11.1 47.1-26 59.5-67.7 34.4-115.2-11.5-21.8-27.4-40.4-45.5-57-12.4-11.4-25.4-22-38.3-33a7.09 7.09 0 0 1 .7-1.6 833.17 833.17 0 0 0 58-104.6c.7-1.6 3.9-3 5.9-2.9 17.1.4 31.7-5 43.9-17.1 8.7-8.6 12.8-19.4 15.7-30.9v-16c-4.1-17.9-13-32.2-29.5-41.4-1.4-.8-2.1-4-2.1-6.1-.2-16.8 1.6-33.8-.7-50.3-4.7-34.3-22.5-59.7-56.2-72-21-7.6-42.7-7.9-64.4-5.3-38.7 4.5-75 17.5-109.8 34.6-25.6 12.6-50.4 26.8-75.7 40.3-7.7-11-15.4-23.2-24.2-34.6-29.8-38.1-61.7-73.3-112-83.9zm231.9 519.7c-1.1 4.1-.8 9.5-3.4 11.9-27.5 26.5-55.3 52.6-83.3 78.6a11.21 11.21 0 0 1-8.3 2.4c-67.5-10.2-132.9-28.2-196.5-53.1-5-1.9-7.7-4.7-9.4-9.8a981.48 981.48 0 0 1-38.5-153.9 15.14 15.14 0 0 1 2.8-10.2c27.6-37.1 57.9-71.9 90.1-105.1 3.3-3.4 6.4-3.9 10.6-3.2a918.84 918.84 0 0 1 198.3 56.7c4 1.6 5.8 4 6.9 7.9a1083.65 1083.65 0 0 1 30.7 177.8zM877.7 395c-1.1-.6-1.8-1-2.6-1.5a693.62 693.62 0 0 0-113.3-63.9c-4.4-2-6.1-5-7.4-9.3-15.3-51.5-34.7-101.4-59.1-149.2-3.2-6.3-6.5-12.5-9.8-18.6 35.8-24.3 90.5-51.5 133.6-62.3 26.7-6.7 53.6-10.4 80.9-3.9 40 9.6 68.7 53.6 60.3 92.4-27.4-2.8-51.7 12.5-60.3 37.9a53.94 53.94 0 0 0 .3 35.9c6.1 17.2 18.3 28.3 35 34.9-15.8 38-35.4 73.4-57.6 107.6zM524.8 721.7c-11.3 4.9-21.9 9.9-32.8 14.1-34.3 13.1-69.2 23-106.8 19.5-34.1-3.2-61.3-24.2-69.9-57.1a158.9 158.9 0 0 1-4.6-40.7c.3-32.5 9.3-63.4 20.9-93.5 5.7-14.8 12.2-29.3 18.3-43.7a13.86 13.86 0 0 1 2.5.5q51.75 24.15 103.3 48.4a10.5 10.5 0 0 1 5 5.4c16.7 50.6 37.4 99.5 64.1 147.1zm123.7-580.3c-1 .9-1.6 1.6-2.3 2.1A1079.21 1079.21 0 0 0 515 250.8a9.43 9.43 0 0 1-6.9 2c-20.9-2.2-41.8-4.8-62.8-7-9.8-1.1-19.7-1.6-29.9-2.4.9-29.2 3.6-57.5 9.8-85.3 27.7 3.6 47.5-5.5 58-26.3a49.54 49.54 0 0 0 4.7-31c-2.5-15-10.8-26.3-24.2-35.6 8.1-6.4 14.8-13 22.7-17.7 24.9-14.8 49.9-11.2 74 2.1 38.8 21.4 64.2 55.8 88.1 91.8zM325.1 485.9c-26.4-20-51.2-42-69.3-70.5-8-12.7-14.1-26.2-15.9-41.2-3.4-29.9 10.5-51.2 34.6-66.8 23.3-15.2 49.6-22.3 76.7-26.4 18.5-2.8 37.3-4 55.7-6a23.67 23.67 0 0 1 1 3.1c1.8 26.3 3.6 52.6 5.1 78.9.2 2.7-1.3 6-3 8.2-11.2 15.1-23.3 29.7-34 45.1-17.2 24.7-33.7 49.9-50.9 75.6zM550.6 728c46.9-28.8 89.9-61.6 130.9-97a10.42 10.42 0 0 1 7.1-2c12.4 1 24.7 2.7 37 3.8 12.5 1.1 25.1 1.7 38.1 2.5-.1 2.7.1 5.1-.4 7.5-4.8 24.5-8.7 49.3-14.9 73.4-5.9 22.8-16.2 44.1-31.8 62.2-23.7 27.5-54.4 34.6-87.4 19.8-33.3-15-56.5-41.4-78.6-70.2zm320.2-307.1c6.8 5.7 13.8 11.2 20.4 17.1 21.4 19 40.7 39.7 52.7 66.1 15.8 34.6 7.6 67.7-21.4 87.7-19-22.7-36.3-29.7-57.2-22.2-25.1 9-34.2 28.3-32.3 54.5l-33.9 3.3c-.2-1.8-.4-2.6-.4-3.5-1.4-34.1-2.9-68.2-4.1-102.3a11.84 11.84 0 0 1 2.4-7c6.3-8 13.3-15.5 19.6-23.5 18-23.2 35.8-46.4 54.2-70.2zM540.5 713.5c-28.8-42.9-50.3-89-68.6-138.2a1017.7 1017.7 0 0 0 197.4 51.2c-40.9 33.4-82.8 62.6-128.8 87zm8.1-453.1c21.3-23.1 97-84.2 114.7-92.9 15.9 22.5 56.7 120.3 60.6 145.6a1006.44 1006.44 0 0 0-175.3-52.7zm-130.8 146c12.1 51.6 23.8 101.6 35.9 153.2-32.7-17-65-33.7-99.2-51.5 21.9-35 42.5-68.1 63.3-101.7zm349.3-47.5c33.3 16 66 34.4 96.6 57a964.57 964.57 0 0 1-69.2 88.6c-9.1-48.5-18.2-96.9-27.4-145.6zm-76.2 264.6c25.7-25.2 50.2-49.2 74.5-72.9v78.1c-25.4-1.8-49.3-3.5-74.5-5.2zM419.2 352.9c-1.7-26.6-3.2-51.7-4.9-78.2 24.7 1.3 47.8 2.5 71.8 3.8-22.7 25.3-44.2 49.2-66.9 74.4z" transform="translate(-189.2 -7.5)"/></svg>