<svg xmlns="http://www.w3.org/2000/svg" viewBox="0 0 646.95 296.74"><defs><style>.cls-1{fill:none}.cls-2{isolation:isolate}.cls-3{clip-path:url(#clip-path)}.cls-4{clip-path:url(#clip-path-2)}.cls-5{clip-path:url(#clip-path-3)}.cls-6{fill:#f08c21}.cls-7{fill:#fff}</style><clipPath id="clip-path"><path class="cls-1" d="M324.9 306.17l4.78-156.59 318.82-5.56-4.78 156.58-318.82 5.57z"/></clipPath><clipPath id="clip-path-2"><path class="cls-1" d="M324.9 306.17l12.38-151.31 311.22-10.84-12.38 151.3-311.22 10.85"/></clipPath><clipPath id="clip-path-3"><path class="cls-1" d="M367.01 304.7l-40.79-14.68 280.17-144.54 40.79 14.68L367.01 304.7"/></clipPath></defs><title>Asset 6</title><g id="Layer_2" data-name="Layer 2"><g id="Transparent_BROWN_Letters_copy" data-name="Transparent BROWN Letters copy"><g class="cls-2"><g class="cls-3"><g class="cls-4"><g class="cls-5"><path class="cls-6" d="M371.75 268.21l-7.36 3.79 11.24 10.24-24.6-2.83 10.82 9.94-25.42-2.92-7.33 3.78 51.43 5.87-11.82-10.23 25.63 3.12-22.59-20.76"/><path class="cls-7" d="M364.39 272l7.36-3.79L394.34 289l-25.63-3.11 11.82 10.23-51.43-5.87 7.33-3.79 25.41 2.92-10.84-9.97 24.6 2.83L364.39 272m7.67-4.54l-8.79 4.54 10.51 9.59-24.59-2.83 10.81 9.93-23.78-2.74-8.77 4.52 55 6.28-11.81-10.2 25.56 3.11-24.12-22.18"/><path class="cls-6" d="M397.45 254.87l-21.74 11.21 36.9 13.29 21.76-11.23-6.81-2.44-14.94 7.7-8.23-2.96 11.21-5.78-6.83-2.46-11.21 5.78-8.21-2.95 14.94-7.71-6.84-2.45"/><path class="cls-7" d="M375.71 266.09l21.75-11.22 6.84 2.46-14.95 7.67 8.21 3 11.21-5.78 6.83 2.46-11.21 5.78 8.22 3 14.94-7.71 6.8 2.44-21.76 11.23-36.9-13.28m21.75-11.81l-23.09 11.91L412.61 280l23.09-12-8.14-2.94-14.94 7.71-6.87-2.47 11.21-5.79-8.17-2.94-11.22 5.78-6.88-2.48 14.94-7.72-8.16-2.94"/><path class="cls-6" d="M441 252.09a13.78 13.78 0 0 1 1.94.1h.26l.72.13a8.19 8.19 0 0 1 1 .29c1.36.49 2 1.21 2 2v.07c-.06.7-.68 1.43-1.88 2.06l-6.69 3.46-9.75-3.5.33-.17 2-1.06c.63-.34 1.24-.66 1.87-1 .8-.42 1.63-.83 2.53-1.25l.4-.18a14.64 14.64 0 0 1 4.74-1h.5m-26.09-.31l3.27-1.69.15-.07a9.7 9.7 0 0 1 3.65-.82h.77a7.93 7.93 0 0 1 2.46.4c1 .37 1.54.93 1.52 1.54v.06c0 .52-.48 1.08-1.32 1.6-1.12.66-2 1.17-2.62 1.52l-.33.19-7.54-2.71m8.86-6.77h-1.18l-.91.05a26.5 26.5 0 0 0-10.15 2.6l-10.06 5.18 36.77 13.23 13.49-7c2.91-1.5 4.45-3.16 4.59-5v-.37c0-1.92-1.64-3.47-4.78-4.6l-.35-.13a26 26 0 0 0-8.47-1.19h-2.57a40 40 0 0 0-4.61.76l-.48.1-.13-.19a7.59 7.59 0 0 0-3.52-2.59l-.22-.08-.3-.1-.39-.12a18.54 18.54 0 0 0-2.49-.54 25.3 25.3 0 0 0-3.77-.26h-.51"/><path class="cls-7" d="M438.32 259.63l-8.41-3c.59-.3 1.14-.6 1.69-.89l1.92-1c.77-.39 1.56-.79 2.43-1.2a12.46 12.46 0 0 1 4.6-1h.28a9.68 9.68 0 0 1 3.4.47c2.26.81 2.34 2.4.14 3.53l-6 3.11m2.64-7.55h-.5a14.64 14.64 0 0 0-4.74 1l-.4.18c-.9.42-1.72.83-2.53 1.25-.63.32-1.24.64-1.87 1l-2 1.06-.33.17 9.75 3.5 6.69-3.46c1.21-.63 1.83-1.36 1.88-2.06v-.07c0-.77-.67-1.5-2-2a8.19 8.19 0 0 0-1-.29l-.72-.13h-.26a13.78 13.78 0 0 0-1.94-.1m-18.59 1.81l-6.16-2.23 2.6-1.33a7.92 7.92 0 0 1 3.17-.73h.17a6.84 6.84 0 0 1 2.35.33c1.82.65 1.43 1.83.13 2.65-.91.55-1.68 1-2.27 1.32m-.3-4.7h-.13a9.7 9.7 0 0 0-3.65.82l-.15.07-3.27 1.69 7.54 2.71.33-.19c.63-.35 1.5-.86 2.62-1.52.83-.52 1.27-1.08 1.32-1.6v-.06c0-.61-.49-1.16-1.52-1.54a7.93 7.93 0 0 0-2.46-.4h-.63m-20.64 3.69l10.06-5.18a26.5 26.5 0 0 1 10.15-2.6l.91-.05h1.68a25.3 25.3 0 0 1 3.77.26 18.54 18.54 0 0 1 2.49.54l.39.12.3.1.22.08a7.59 7.59 0 0 1 3.52 2.59l.13.19.48-.1a40 40 0 0 1 4.61-.76h2.57a26 26 0 0 1 8.47 1.19l.35.13c3.14 1.13 4.76 2.68 4.78 4.6v.37c-.13 1.8-1.67 3.47-4.59 5l-13.49 7-36.77-13.23m22.3-8.29h-.63l-1.45.08a28 28 0 0 0-10.83 2.78L400.11 253l38.1 13.71 14.16-7.31c3.28-1.7 4.92-3.59 4.86-5.64s-1.73-3.69-5.06-4.88a27.22 27.22 0 0 0-9.69-1.39h-.71l-1.65.08c-1.27.12-3.07.42-4.45.71a8.29 8.29 0 0 0-3.62-2.54 23.57 23.57 0 0 0-8.32-1.17"/><path class="cls-6" d="M473.61 225.26a28 28 0 0 1 8.71 1.16l.45.14.52.18c3.57 1.28 5.32 3 5.24 4.8v.09c-.12 1.69-1.81 3.49-5.06 5.16l-2.83 1.46-23.15-8.33 2.76-1.42a30.68 30.68 0 0 1 12.42-3.2h.93m1.47-4.31h-1.79l-1.06.07a50.75 50.75 0 0 0-18.42 4.77L444 231l36.75 13.22 9.55-4.93c5-2.6 7.71-5.41 8-8.38v-.44c0-2.84-2.73-5.27-8.08-7.19l-1.36-.46a42.06 42.06 0 0 0-13.35-1.85h-.36"/><path class="cls-7" d="M480.65 237.65l-21.81-7.85 2.08-1.08a29 29 0 0 1 12.1-3h.55a25.68 25.68 0 0 1 9.07 1.39c6.62 2.38 6.69 6.1.16 9.47l-2.15 1.11m-7-12.39h-.93a30.68 30.68 0 0 0-12.42 3.2l-2.76 1.42 23.15 8.33 2.83-1.46c3.24-1.67 4.94-3.47 5.06-5.16v-.09c.08-1.82-1.67-3.52-5.24-4.8l-.52-.18-.45-.14a28.08 28.08 0 0 0-8.71-1.16m-19.79.6a50.75 50.75 0 0 1 18.42-4.77l1.06-.07h2.15a42.06 42.06 0 0 1 13.35 1.85l1.36.46c5.34 1.92 8.07 4.35 8.08 7.19v.44c-.25 3-2.92 5.79-8 8.38l-9.55 4.93L444 231l9.89-5.1m21.62-5.33h-.93c-.75 0-1.51.07-2.26.13a52.24 52.24 0 0 0-19.42 5.12l-10.21 5.28 38.08 13.7 10.23-5.27c5.46-2.81 8.25-5.89 8.25-9.14 0-2.95-2.82-5.47-8.36-7.46a43.17 43.17 0 0 0-15.38-2.38"/><path class="cls-6" d="M497.28 203.36l-21.75 11.23 36.91 13.27 21.76-11.22-6.82-2.45-14.94 7.71-8.22-2.96 11.21-5.78-6.84-2.46-11.21 5.79-8.21-2.96 14.94-7.71-6.83-2.46"/><path class="cls-7" d="M475.53 214.59l21.76-11.23 6.83 2.46-14.94 7.72 8.21 3 11.21-5.78 6.84 2.46-11.21 5.78 8.21 3 14.94-7.71 6.81 2.45-21.76 11.22-36.91-13.27m21.76-11.81l-23.08 11.81 38.24 13.76 23.1-11.92-8.15-2.92-14.94 7.71-6.88-2.48 11.21-5.78-8.17-2.94-11.21 5.78-6.88-2.48 14.94-7.71-8.16-2.94"/><path class="cls-6" d="M524.14 193.13h-1.03a30.81 30.81 0 0 0-12.11 2.9c-2.9 1.5-4.41 3.27-4.54 4.95v.17c0 1.78 1.49 3.44 4.59 4.55a14.86 14.86 0 0 0 1.82.52 20.1 20.1 0 0 0 2.25.36c.89.09 1.8.14 2.72.15h1.69a43 43 0 0 0 7.74-1.09c.77-.17 1.5-.37 2.18-.56s1.33-.42 2.07-.65a30.85 30.85 0 0 1 7-1.68h.65a8 8 0 0 1 2.59.34l.17.06c1 .37 1.47 1 1.45 1.61v.06a2.72 2.72 0 0 1-1.31 1.84h.2l-.8.43a10.61 10.61 0 0 1-1.07.46c-.36.13-.75.24-1.15.34s-.86.2-1.3.28-.64.1-1 .14-.78.07-1.15.08h-.19a12.26 12.26 0 0 1-1.75-.09c-.28 0-.56-.1-.81-.16l-5.3 4a23.81 23.81 0 0 0 2.42.4 31.36 31.36 0 0 0 3.47.19h1.72a33.1 33.1 0 0 0 13-3.12c3.08-1.59 4.71-3.49 4.83-5.29v-.17c0-1.78-1.41-3.42-4.36-4.49q-.5-.18-1-.33l-.91-.22a22.3 22.3 0 0 0-4.11-.45h-2.1a41.26 41.26 0 0 0-10.29 1.86l-.91.29-2.39.74a31.3 31.3 0 0 1-4 .94 16.89 16.89 0 0 1-1.85.17H521a8.77 8.77 0 0 1-2.76-.35l-.28-.09c-1.17-.42-1.74-1.06-1.71-1.74v-.07c.06-.62.63-1.27 1.69-1.82l.12-.06.29-.14a12.14 12.14 0 0 1 4.1-.87h1.76a9.9 9.9 0 0 1 1.07.17l.4.1 5.3-4a25.17 25.17 0 0 0-3.29-.53q-.68-.07-1.38-.1h-2.27"/><path class="cls-7" d="M506.45 201.19v-.17c.13-1.68 1.64-3.45 4.54-4.95a30.81 30.81 0 0 1 12.11-2.9h3.29q.7 0 1.38.1a25.16 25.16 0 0 1 3.29.53l-5.3 4-.4-.1a9.9 9.9 0 0 0-1.07-.17h-1.76a12.14 12.14 0 0 0-4.1.87l-.29.14-.12.06c-1.06.55-1.63 1.2-1.69 1.82v.07c0 .68.54 1.32 1.71 1.74l.28.09a8.77 8.77 0 0 0 2.76.35h.21a16.89 16.89 0 0 0 1.85-.17 31.3 31.3 0 0 0 4-.94l2.39-.74.91-.29a41.26 41.26 0 0 1 10.29-1.86h2.1a22.29 22.29 0 0 1 4.11.45l.91.22q.53.15 1 .33c3 1.07 4.41 2.71 4.36 4.49v.17c-.13 1.79-1.75 3.7-4.83 5.29a33.1 33.1 0 0 1-13 3.12h-1.72a31.35 31.35 0 0 1-3.47-.19 23.81 23.81 0 0 1-2.42-.4l5.3-4c.25.07.53.11.81.16a12.26 12.26 0 0 0 1.75.09h.19c.38 0 .77 0 1.15-.08s.64-.08 1-.14.88-.16 1.3-.28.78-.22 1.15-.34a10.61 10.61 0 0 0 1.07-.46l.8-.43h-.2a2.72 2.72 0 0 0 1.31-1.84v-.06c0-.64-.41-1.23-1.45-1.61l-.17-.06a8 8 0 0 0-2.59-.34h-.65a30.85 30.85 0 0 0-7 1.68c-.74.23-1.43.46-2.07.65s-1.41.39-2.18.56a43 43 0 0 1-7.74 1.09h-1.69c-.92 0-1.84-.05-2.72-.15a20.1 20.1 0 0 1-2.25-.36 14.86 14.86 0 0 1-1.82-.52c-3.09-1.11-4.62-2.77-4.59-4.55m17.84-8.47h-.66a32.83 32.83 0 0 0-13.3 3.1c-6.44 3.33-6.42 7.93 0 10.25a23 23 0 0 0 8.09 1.11h.62a45.87 45.87 0 0 0 10.77-1.75c.67-.2 1.38-.44 2.13-.67a26.62 26.62 0 0 1 6.83-1.61h.2a6.16 6.16 0 0 1 2.23.33c1.93.69 1.28 2.38-.54 3.32l-.31.17a13.53 13.53 0 0 1-4.51 1h-.12a7.17 7.17 0 0 1-2.47-.31l-.42-.15-6.38 4.82.35.08a29.32 29.32 0 0 0 7.39.72h.61a35.54 35.54 0 0 0 14.24-3.31c6.62-3.42 6.84-8.24.47-10.53a22.1 22.1 0 0 0-7.79-1.09h-.6a43.55 43.55 0 0 0-11.18 2l-.91.3a31 31 0 0 1-7.71 1.76h-.19a7.07 7.07 0 0 1-2.5-.35c-1.88-.69-1.89-2.07 0-3a9.64 9.64 0 0 1 3.91-.9h.19a8 8 0 0 1 2.77.37l.42.16 6.39-4.82-.35-.09a29.92 29.92 0 0 0-7.71-.79"/><path class="cls-6" d="M533.61 184.69l-6.81 3.52 36.77 13.24 6.81-3.52-36.77-13.24"/><path class="cls-7" d="M526.8 188.21l6.81-3.52 36.76 13.24-6.81 3.51-36.76-13.23m6.8-4.1l-8.14 4.19 38.11 13.7 8.14-4.2-38.11-13.69"/><path class="cls-6" d="M573.91 168.27c-4.21.38-11.74 1.49-18.11 4.77l-.23.13h-.1c-4.63 2.43-7.08 5.13-7.32 8v.58c.05 3.17 2.68 5.72 7.77 7.56q1.1.39 2.26.71a43.84 43.84 0 0 0 12.2 1.41h2.55l1.66-.11a48.26 48.26 0 0 0 18.53-4.78c4.84-2.5 7.39-5.29 7.62-8.28v-.44c0-3.45-3.3-6.22-9.83-8.22l-18.49 9.4 6.51 2.34 10.81-5.57.25.29a3.52 3.52 0 0 1 1 2.52v.18c-.16 1.78-1.8 3.63-4.75 5.15a30.38 30.38 0 0 1-11.66 3l-.89.06h-1.91a25.78 25.78 0 0 1-8.91-1.34C559.64 184.57 558 183 558 181v-.36c.15-1.85 1.74-3.56 4.74-5.12a30.37 30.37 0 0 1 11.21-2.95v-4.27"/><path class="cls-7" d="M555.57 173.17l.23-.13c6.37-3.29 13.9-4.39 18.11-4.77v4.27a30.37 30.37 0 0 0-11.21 2.95c-3 1.55-4.59 3.26-4.74 5.12v.36c0 2 1.66 3.59 4.89 4.76a25.79 25.79 0 0 0 8.91 1.34h1.89l.89-.06a30.38 30.38 0 0 0 11.66-3c2.95-1.52 4.59-3.37 4.75-5.15v-.18a3.52 3.52 0 0 0-1-2.52l-.25-.29-10.81 5.57-6.47-2.44 18.46-9.52c6.53 2 9.84 4.77 9.83 8.22v.44c-.23 3-2.79 5.78-7.62 8.28a48.26 48.26 0 0 1-18.53 4.78l-1.66.11h-2.51a43.83 43.83 0 0 1-12.2-1.41q-1.16-.32-2.26-.71c-5.1-1.84-7.72-4.39-7.77-7.56v-.58c.24-2.89 2.69-5.59 7.32-8h.1m19.28-5.39h-.47c-4.21.34-12.2 1.41-19 4.86h-.1l-.23.12c-5.29 2.73-7.94 5.77-7.86 9s2.77 5.92 8.06 7.82a42.9 42.9 0 0 0 15.27 2.21h1.05c1 0 2-.1 3-.17a49.83 49.83 0 0 0 19.21-4.95c5.25-2.71 7.92-5.75 7.91-9 0-3.64-3.52-6.53-10.5-8.61l-.33-.1-19.74 10.19 7.85 2.82 10.4-5.37c1.32 1.78 1.08 4.59-3.78 7.1a28.43 28.43 0 0 1-11 2.83c-.55 0-1.09.07-1.62.09h-.7a24.45 24.45 0 0 1-8.72-1.26c-3-1.1-4.58-2.6-4.6-4.48s1.46-3.61 4.47-5.17a29.15 29.15 0 0 1 11-2.81h.47v-5.1"/><path class="cls-6" d="M607.54 146.48L600.7 150l21.23 7.65-43.88 3.82 37.16 13.37 6.82-3.52-21.24-7.63 43.93-3.83-37.18-13.38"/><path class="cls-7" d="M600.7 150l6.84-3.52 37.18 13.38-43.94 3.83 21.22 7.64-6.82 3.51-37.16-13.37 43.87-3.83L600.7 150m6.83-4.1l-8.16 4.2 20.34 7.32-43.87 3.83 39.38 14.18 8.14-4.2L603 163.9l43.93-3.83-8.58-3.07-30.82-11.1"/></g></g></g></g><path class="cls-1" d="M0 24.47a20.43 20.43 0 0 1 3.17.89 2.54 2.54 0 0 1 1.38 1.45 24.42 24.42 0 0 1-.08 9.61c-.29 1.38-1.07 1.65-2.43 1.14-2-.76-2-.76-2-2.9zm7.08 76.92c-2-.91-3.88-1.89-5.86-2.74a1.79 1.79 0 0 1-1.25-2C0 86.13 0 75.57 0 65v-3.65c3 1.11 5.85 2.08 8.63 3.27a4.24 4.24 0 0 1 1.9 2.06c4.26 9.46 5.74 19.25 3.11 29.43a14.13 14.13 0 0 1-2 4.16c-1.17 1.73-2.64 1.99-4.53 1.11zM362 120.65q32.78-12.15 65.54-24.36c.26-.1.52-.16 1-.3v37.72c0 .75 0 1.3-.91 1.67Q394.79 149 362 162.63l-1 .37v-40.82a1.37 1.37 0 0 1 1-1.53zM252.78 86.24Q283 96.63 313.24 107a1.25 1.25 0 0 1 1 1.42v121.46h-.21L251.5 85.89c.5.11.92.22 1.28.35zm-32.52-11.18l-14.43 66.34h-.26l-14.49-75.68h-.23l-13.51 63.67h-.24l-13.92-74zM43.31 40.43c0-.16 0-.31.08-.72l4.8 1.81a11 11 0 0 0 1.35.5c3.85.9 6 3.58 7.44 7a42.16 42.16 0 0 1 2.28 26.28 19.29 19.29 0 0 1-2.69 5.81c-1.25 2-3 2.27-5.14 1.38-2.43-1-4.85-2.07-7.28-3.07a1.15 1.15 0 0 1-.86-1.23q.04-18.87.02-37.76zm28.77 118.65l-13.21-49.76c6.43-3.68 8.6-10.05 10.53-16.52A71 71 0 0 0 72 74.09a104.19 104.19 0 0 0-4.29-33.62C66 34.8 63.9 29.26 60.55 24.32c-1.4-2.06-3.12-3.9-4.61-5.74l53.16 18.27a36.74 36.74 0 0 0-5.78-.19c-4.73.52-8.08 3.43-10.86 7-4.49 5.82-7.17 12.52-9.1 19.53a114.64 114.64 0 0 0-3.66 28.58 157.65 157.65 0 0 0 5.55 45.65c2.59 9.21 5.84 18.17 10.71 26.46 3.16 5.38 6.93 10.24 12.12 13.89zM101 140.72a75.69 75.69 0 0 1-8-24.35 96.38 96.38 0 0 1-.71-26.65c.78-6.89 2.43-13.53 6.36-19.39a17.4 17.4 0 0 1 2.22-2.67 8.45 8.45 0 0 1 9.93-1.81 17.92 17.92 0 0 1 7.32 6.39c3.75 5.28 6.06 11.23 7.91 17.37a88.53 88.53 0 0 1 3.7 24.57v2.28c0 7.83-.61 15.57-3.39 23a26.88 26.88 0 0 1-5.06 8.77c-3.38 3.74-7.53 4.38-11.88 1.85-3.85-2.22-6.4-5.6-8.4-9.36zM427.39 226q-23.76 12.21-47.49 24.48l-17.77 9.18c-.31.16-.63.3-1.13.54v-69.81a1.55 1.55 0 0 1 1.09-1.69q32.66-14.41 65.3-28.86l1.13-.48c0 .54.07 1 .07 1.37v63.36a1.85 1.85 0 0 1-1.2 1.91z"/><path class="cls-7" d="M592.86 141.38c-3.2 1.62-6.42 3.21-9.6 4.86L525.8 176l-57 29.53-1.87.94V56.87c0-.83 0-1.42 1.05-1.78q43.14-14.67 86.25-29.42l38-13c.22-.08.46-.11.69-.17v22.08l-.45.14Q550 50.48 507.53 66.23a1.6 1.6 0 0 0-1.24 1.8v34.17c.61-.23 1-.37 1.41-.54l67.68-28.11c5.82-2.42 11.63-4.87 17.45-7.31v21.14l-.44.19q-42.53 18.88-85.07 37.74a1.49 1.49 0 0 0-1 1.6v33.11c0 .37 0 .74.08 1.25l5.89-2.85 75.47-36.8c1.68-.82 3.39-1.56 5.09-2.33zM31.17 10.06Q16.52 5.05 1.88 0q-.07.3-.16.6A11 11 0 0 1 7.5 5.38a35.91 35.91 0 0 1 2.41 4.55c3.58 8.28 4.83 17 5 26 .05 2.59.62 5.21.38 7.77-.28 3 1.82 4.83 2.54 7.29.12.42.33.81.47 1.23 5.7 16.41 8.18 33.28 6.2 50.67a48.38 48.38 0 0 1-4 15.36c-1.94 4.1-4 8.12-9.31 9.11l20.92 10.92a13.94 13.94 0 0 0 .2-1.71V10.51zM361 260.17v-69.81a1.55 1.55 0 0 1 1.09-1.69q32.66-14.41 65.3-28.86l1.13-.48c0 .54.07 1 .07 1.37v63.36a1.85 1.85 0 0 1-1.19 1.91q-23.76 12.21-47.49 24.48l-17.77 9.18c-.33.17-.65.31-1.14.54zm-47-30.23L251.5 85.89c.55.15.92.23 1.28.35Q283 96.63 313.24 107a1.25 1.25 0 0 1 1 1.42v121.46zm-46.44 30.96l46.74 24.35-45.74-116.95h-.27l-.92 91.56-.33-.17c.18.42.36.81.52 1.21zm-91.15-47.46c.27.12.52.25.78.38a4.41 4.41 0 0 1-.5-1.12c-.61-3.34-1.17-6.69-1.75-10q-4.64-26.56-9.27-53.12-4.26-24.44-8.5-48.88l-8.56-49.23a1.66 1.66 0 0 0-1.26-1.47q-15.35-5.27-30.7-10.56c-1.72-.59-3.46-1.16-5.26-1.77 1.75 1.12 3.48 2.05 5 3.24 5.05 3.87 8.61 9 11.52 14.56 8.88 16.93 13.24 35.12 14.68 54.08a160 160 0 0 1-.22 27.66 90.64 90.64 0 0 1-4.83 22.67c-2.11 5.74-4.82 11.16-9.05 15.67-3.26 3.47-7.14 5.67-12.1 5.19a44 44 0 0 1-4.34-.87c.47.28.73.46 1 .6l61 31.76a13.12 13.12 0 0 1 2.36 1.21zM191 149.55l-13.34 64.29-.26.06.71.39.19.09q13.18 6.86 26.34 13.75a.9.9 0 0 1 .28.27l.53.2c-4.8-26.34-9.45-52.71-14.45-79.05zm60 100.56q.06-81.35 0-162.71c0-.69.11-1.38.16-2a8.54 8.54 0 0 1-1.42-.22c-1.52-.49-3-1-4.53-1.55L238 81.19l-32 147.46h-.38l.49.24.52.27.4.21 43.25 22.53c.38-.1.77-.18 1.16-.24a2.31 2.31 0 0 1-.44-1.55zM361 163v-40.82a1.37 1.37 0 0 1 1.06-1.53q32.78-12.15 65.54-24.36c.26-.1.52-.16 1-.3v37.72c0 .75 0 1.3-.91 1.67Q394.79 149 362 162.63zm-252.93 14.83l-36-18.74-13.2-49.77c6.43-3.68 8.6-10.05 10.53-16.52A71 71 0 0 0 72 74.09a104.19 104.19 0 0 0-4.29-33.62C66 34.8 63.9 29.26 60.55 24.32c-1.4-2.06-3.12-3.9-4.61-5.74l53.16 18.27a36.73 36.73 0 0 0-5.78-.19c-4.73.52-8.08 3.43-10.86 7-4.49 5.82-7.17 12.52-9.1 19.54a114.64 114.64 0 0 0-3.66 28.58 157.64 157.64 0 0 0 5.55 45.65c2.59 9.21 5.84 18.17 10.71 26.46 3.14 5.42 6.92 10.28 12.11 13.94z"/><path class="cls-7" d="M129.68 116.46c0 7.83-.61 15.57-3.39 23a26.88 26.88 0 0 1-5.06 8.77c-3.38 3.74-7.53 4.38-11.88 1.85-3.8-2.21-6.32-5.59-8.38-9.35a75.69 75.69 0 0 1-8-24.35 96.39 96.39 0 0 1-.71-26.65c.78-6.89 2.43-13.53 6.36-19.39a17.39 17.39 0 0 1 2.22-2.67 8.45 8.45 0 0 1 9.93-1.81 17.92 17.92 0 0 1 7.32 6.39c3.75 5.28 6.06 11.23 7.91 17.37a88.53 88.53 0 0 1 3.7 24.57c-.01.75-.02 1.51-.02 2.27zm90.58-41.4l-14.43 66.34h-.26l-14.49-75.68h-.23l-13.51 63.67h-.24l-13.92-74zM43.39 39.71l4.8 1.81a11 11 0 0 0 1.35.5c3.85.9 6 3.58 7.44 7a42.16 42.16 0 0 1 2.28 26.28 19.29 19.29 0 0 1-2.69 5.81c-1.25 2-3 2.27-5.14 1.38-2.43-1-4.85-2.07-7.28-3.07a1.15 1.15 0 0 1-.86-1.23V40.41c.02-.14.06-.29.1-.7zM0 61.35c3 1.11 5.85 2.08 8.63 3.27a4.24 4.24 0 0 1 1.9 2.06c4.26 9.46 5.74 19.25 3.11 29.43a14.13 14.13 0 0 1-2 4.16c-1.15 1.72-2.62 2-4.5 1.12s-3.88-1.89-5.86-2.74a1.79 1.79 0 0 1-1.25-2C0 86.13 0 75.57 0 65zm43.55 35.99h-.31V144c.11.14.22.29.33.43l.52.18c2.4.76 4.56 2.29 6.82 3.47l6.91 3.58zM0 24.47a20.44 20.44 0 0 1 3.17.89 2.54 2.54 0 0 1 1.38 1.45 24.42 24.42 0 0 1-.08 9.61c-.29 1.38-1.07 1.65-2.43 1.14-2-.76-2-.76-2-2.9C0 31.31 0 28 0 24.47z"/></g></g></svg>