<svg xmlns="http://www.w3.org/2000/svg" viewBox="0 0 647.88 296.39"><defs><style>.cls-1{fill:none}.cls-2{isolation:isolate}.cls-3{clip-path:url(#clip-path)}.cls-4{clip-path:url(#clip-path-2)}.cls-5{clip-path:url(#clip-path-3)}.cls-6{fill:#f08c21}.cls-7,.cls-8{fill:#fff}.cls-7{opacity:.15}</style><clipPath id="clip-path"><path class="cls-1" d="M328.27 305.49l4.74-155.47 316.22-5.52-4.75 155.47-316.21 5.52z"/></clipPath><clipPath id="clip-path-2"><path class="cls-1" d="M328.27 305.49l12.29-150.24 308.67-10.75-12.3 150.23-308.66 10.76"/></clipPath><clipPath id="clip-path-3"><path class="cls-1" d="M368.61 304.08l-39.08-14.06L608.88 145.9l39.08 14.07-279.35 144.11"/></clipPath></defs><title>Asset 5</title><g id="Layer_2" data-name="Layer 2"><g id="Transparent_BROWN_Letters_copy" data-name="Transparent BROWN Letters copy"><g class="cls-2"><g class="cls-3"><g class="cls-4"><g class="cls-5"><path class="cls-6" d="M373.96 267.8l-8.07 4.17 10.87 9.91-24.6-2.83 10.82 9.94-24.59-2.83-8.05 4.15.02.01 53.18 6.06-11.83-10.21 25.6 3.11-23.35-21.48m25.54-13.27l-22.42 11.58 37.59 13.52 22.42-11.56-7.48-2.69-14.96 7.7-7.54-2.72 11.21-5.78-7.5-2.69-11.21 5.78-7.55-2.72 14.95-7.71-7.51-2.71m40.88 5.36l-9.09-3.26c1.39-.71 2.6-1.37 3.89-2 .8-.41 1.62-.81 2.51-1.24a13.39 13.39 0 0 1 5-1.07h.27a10.8 10.8 0 0 1 3.68.51c2.45.88 2.57 2.58.15 3.83l-4.89 2.52-1.47.75m-15.94-5.73l-6.85-2.47 2.93-1.51a8.56 8.56 0 0 1 3.54-.82h.18a7.61 7.61 0 0 1 2.65.37c1.91.68 1.73 1.93.17 2.93-1.11.65-2 1.15-2.61 1.5m1.33-9.39h-.62l-1.45.08a27 27 0 0 0-10.5 2.68l-2.58 1.33-7.79 4 37.43 13.48 13.83-7.13c3.2-1.66 4.78-3.5 4.72-5.49s-1.67-3.58-4.91-4.75a26.3 26.3 0 0 0-9.36-1.34h-.71c-.54 0-1.08 0-1.65.09a40.79 40.79 0 0 0-4.77.78 7.73 7.73 0 0 0-3.64-2.66 22.53 22.53 0 0 0-8-1.14m56.87-6.82l-22.49-8.09 2.42-1.25a29.89 29.89 0 0 1 12.45-3.12h.55a26.54 26.54 0 0 1 9.39 1.44c6.77 2.43 6.87 6.29.18 9.75l-2.49 1.29m-5.32-17.21h-.87c-.73 0-1.47.07-2.22.13a51.35 51.35 0 0 0-19.09 5l-9.89 5.1 37.42 13.48 9.89-5.11q8.08-4.18 8.1-9 0-4.37-8.21-7.32a42.31 42.31 0 0 0-15.16-2.35m21.98-17.63l-22.43 11.58 37.58 13.53 22.43-11.59-7.48-2.68-14.96 7.71-7.54-2.71 11.22-5.8-7.51-2.69-11.21 5.79-7.56-2.73 14.96-7.7-7.5-2.71m26.93-10.14h-.65a31.67 31.67 0 0 0-12.9 3c-6.27 3.23-6.27 7.69 0 10a22.35 22.35 0 0 0 7.79 1.06h.68a43.42 43.42 0 0 0 10.46-1.72c2.64-.76 6.18-2.2 9.23-2.3h.19a7.05 7.05 0 0 1 2.5.36c2.09.74 1.53 2.54-.53 3.61h.07a13.65 13.65 0 0 1-5.27 1.22h-.22a7.73 7.73 0 0 1-2.66-.34l-5.83 4.39a28.33 28.33 0 0 0 7.09.7h.69a34.4 34.4 0 0 0 13.84-3.22c6.26-3.23 6.79-8 .48-10.24a21.57 21.57 0 0 0-7.57-1h-.59a41.41 41.41 0 0 0-10.85 1.93c-2.47.78-5.89 2-8.88 2.09h-.2a8 8 0 0 1-2.79-.39c-2.08-.74-2.09-2.25 0-3.32a10.59 10.59 0 0 1 4.28-1h.19a8.79 8.79 0 0 1 3.06.42l5.84-4.4a29 29 0 0 0-7.49-.78m9.43-8.58l-7.47 3.86 37.43 13.46 7.47-3.86-37.43-13.46M576.43 168c-6 .48-13.17 1.93-18.91 4.88h-.09q-7.83 4-7.71 8.88c.06 3.26 2.7 5.82 7.91 7.7a42.09 42.09 0 0 0 15 2.17h1.06c.94 0 1.91-.09 2.9-.16a48.91 48.91 0 0 0 18.87-4.87c5.18-2.68 7.77-5.63 7.78-8.88s-2.8-6.22-10.33-8.46l-19.09 9.85 7.17 2.58 10.61-5.47c1.91 2.12 1.18 5.12-3.65 7.62a29.39 29.39 0 0 1-11.33 2.91c-.56 0-1.11.07-1.65.09h-.71a25.27 25.27 0 0 1-9-1.3c-3.15-1.13-4.73-2.67-4.75-4.61s1.49-3.72 4.61-5.33a29.83 29.83 0 0 1 11.36-2.91v-4.67m33.11-21.86l-7.5 3.85 20.8 7.49-43.9 3.83 38.28 13.77 7.48-3.85-20.79-7.48 43.92-3.83-20.54-7.4-17.75-6.38"/></g></g></g></g><g id="Layer_51" data-name="Layer 51"><path class="cls-7" d="M2.35 0L.39 122l-.39-.49 316.19 163.64.15-.15.05-177-.15-.44L1.96.02l314.28 107.54"/><path class="cls-7" d="M594.79 141.4l-.69-128.71L316.39 108l-.05 177 278.45-143.6z"/></g><path class="cls-1" d="M2 24.49a20.43 20.43 0 0 1 3.17.89 2.54 2.54 0 0 1 1.38 1.45 24.42 24.42 0 0 1-.08 9.61c-.34 1.38-1.11 1.65-2.47 1.14-2-.76-2-.76-2-2.9zm7 76.92c-2-.91-3.88-1.89-5.86-2.74a1.79 1.79 0 0 1-1.25-2C2 86.15 2 75.59 2 65v-3.63c3 1.11 5.85 2.08 8.63 3.27a4.24 4.24 0 0 1 1.9 2.06c4.26 9.46 5.74 19.25 3.11 29.43a14.13 14.13 0 0 1-2 4.16c-1.24 1.71-2.71 1.99-4.64 1.12zm355 19.26q32.78-12.15 65.54-24.36c.26-.1.52-.16 1-.3v37.72c0 .75 0 1.3-.91 1.67q-32.86 13.59-65.7 27.25l-1 .37V122.2a1.37 1.37 0 0 1 1.07-1.53zM254.71 86.26q30.23 10.4 60.47 20.78a1.25 1.25 0 0 1 1 1.42v121.46h-.21L253.43 85.91c.57.15.92.23 1.28.35zm-32.52-11.17l-14.43 66.34h-.26L193 65.75h-.23l-13.49 63.65h-.24l-13.92-74zM45.25 40.45c0-.16 0-.31.08-.72l4.8 1.81a11 11 0 0 0 1.35.5c3.85.9 6 3.58 7.44 7a42.16 42.16 0 0 1 2.28 26.28 19.29 19.29 0 0 1-2.69 5.81c-1.25 2-3 2.27-5.14 1.38-2.43-1-4.85-2.07-7.28-3.07a1.15 1.15 0 0 1-.86-1.23q.03-18.87.02-37.76zM74 159.11l-13.2-49.77c6.43-3.68 8.6-10.05 10.53-16.52a71 71 0 0 0 2.6-18.71 104.19 104.19 0 0 0-4.29-33.62c-1.75-5.66-3.82-11.21-7.18-16.14-1.4-2.06-3.12-3.9-4.61-5.74L111 36.88a36.74 36.74 0 0 0-5.78-.19c-4.73.52-8.08 3.43-10.86 7-4.49 5.82-7.17 12.52-9.1 19.53A114.64 114.64 0 0 0 81.6 91.8a157.65 157.65 0 0 0 5.55 45.65c2.61 9.26 5.85 18.21 10.73 26.55 3.16 5.38 6.93 10.24 12.12 13.89zm28.89-18.36a75.69 75.69 0 0 1-8-24.35 96.38 96.38 0 0 1-.71-26.65c.78-6.89 2.43-13.53 6.36-19.39a17.4 17.4 0 0 1 2.22-2.67 8.45 8.45 0 0 1 9.93-1.81 17.92 17.92 0 0 1 7.31 6.39c3.75 5.28 6.06 11.23 7.91 17.37a88.53 88.53 0 0 1 3.7 24.57v2.28c0 7.83-.61 15.57-3.39 23a26.88 26.88 0 0 1-5.06 8.77c-3.38 3.74-7.53 4.38-11.88 1.85-3.8-2.23-6.28-5.61-8.37-9.36zM429.32 226q-23.76 12.21-47.49 24.48l-17.77 9.18c-.31.16-.63.3-1.13.54v-69.82a1.55 1.55 0 0 1 1.07-1.68q32.66-14.41 65.3-28.86l1.13-.48c0 .54.07 1 .07 1.37v63.36a1.85 1.85 0 0 1-1.18 1.91z"/><path class="cls-8" d="M594.79 141.4c-3.2 1.62-6.42 3.21-9.6 4.86L527.73 176l-57 29.53-1.87.94V56.87c0-.83 0-1.42 1.05-1.78Q513 40.41 556.13 25.66l38-13c.22-.08.46-.11.69-.17V34.6l-.45.14q-42.47 15.77-84.9 31.51a1.6 1.6 0 0 0-1.24 1.8v34.17c.61-.23 1-.37 1.41-.54l67.68-28.11c5.82-2.42 11.63-4.87 17.45-7.31V87.4l-.44.19q-42.53 18.88-85.07 37.74a1.49 1.49 0 0 0-1 1.6v33.11c0 .37 0 .74.08 1.25l5.89-2.85 75.47-36.8c1.68-.82 3.39-1.56 5.09-2.33zM33.1 10.09Q18.45 5.08 3.81 0q-.07.3-.16.6a11 11 0 0 1 5.78 4.81A35.91 35.91 0 0 1 11.84 10c3.58 8.28 4.83 17 5 26 .05 2.59.62 5.21.38 7.77-.28 3 1.82 4.83 2.54 7.29.12.42.33.81.47 1.23 5.68 16.47 8.17 33.33 6.18 50.72a48.38 48.38 0 0 1-4 15.36c-1.94 4.1-4 8.12-9.31 9.11L34 138.3a13.94 13.94 0 0 0 .2-1.71V10.53zM362.92 260.2v-69.82a1.55 1.55 0 0 1 1.08-1.68q32.66-14.41 65.3-28.86l1.13-.48c0 .54.07 1 .07 1.37v63.36a1.85 1.85 0 0 1-1.19 1.91q-23.76 12.21-47.49 24.48l-17.77 9.18c-.31.16-.63.34-1.13.54zm-47-30.2L253.43 85.91c.55.15.92.23 1.28.35q30.23 10.4 60.47 20.78a1.25 1.25 0 0 1 1 1.42v121.46zm-46.43 30.92l46.74 24.35-45.74-116.94h-.27l-.92 91.56-.33-.17c.18.42.36.8.52 1.2zm-91.15-47.46c.27.12.52.25.78.38a4.41 4.41 0 0 1-.5-1.12c-.61-3.34-1.17-6.69-1.75-10q-4.64-26.56-9.27-53.12-4.26-24.44-8.5-48.88l-8.56-49.23a1.66 1.66 0 0 0-1.26-1.49q-15.36-5.24-30.7-10.53c-1.72-.59-3.46-1.16-5.26-1.77 1.75 1.12 3.48 2.05 5 3.24 5.05 3.87 8.61 9 11.52 14.56 8.88 16.93 13.24 35.12 14.68 54.08a160 160 0 0 1-.22 27.66 90.64 90.64 0 0 1-4.83 22.67c-2.11 5.74-4.82 11.16-9.05 15.67-3.26 3.47-7.14 5.67-12.1 5.19a44 44 0 0 1-4.34-.87c.47.28.73.46 1 .6l61 31.76a13.12 13.12 0 0 1 2.36 1.2zm14.56-63.89l-13.34 64.29-.26.06.71.39.19.09q13.18 6.86 26.34 13.75a.9.9 0 0 1 .28.27l.53.2c-4.77-26.34-9.42-52.7-14.45-79.05zm60.04 100.56q.06-81.35 0-162.71c0-.69.11-1.38.16-2a8.54 8.54 0 0 1-1.42-.22c-1.52-.49-3-1-4.53-1.55L240 81.22l-32 147.45h-.38l.49.24.52.27.4.21 43.25 22.53c.38-.1.77-.18 1.16-.24a2.31 2.31 0 0 1-.5-1.55zM362.92 163v-40.82a1.37 1.37 0 0 1 1.06-1.53q32.78-12.15 65.54-24.36c.26-.1.52-.16 1-.3v37.72c0 .75 0 1.3-.91 1.67q-32.86 13.59-65.7 27.25zM110 177.85l-36-18.74-13.2-49.77c6.43-3.68 8.6-10.05 10.53-16.52a71 71 0 0 0 2.6-18.71 104.19 104.19 0 0 0-4.29-33.62c-1.75-5.66-3.82-11.21-7.18-16.14-1.4-2.06-3.12-3.9-4.61-5.74L111 36.88a36.73 36.73 0 0 0-5.78-.19c-4.73.52-8.08 3.43-10.86 7-4.49 5.82-7.17 12.52-9.1 19.54a114.64 114.64 0 0 0-3.66 28.58 157.64 157.64 0 0 0 5.55 45.65c2.61 9.25 5.85 18.2 10.73 26.54 3.12 5.34 6.93 10.19 12.12 13.85z"/><path class="cls-8" d="M131.62 116.49c0 7.83-.61 15.57-3.39 23a26.88 26.88 0 0 1-5.06 8.77c-3.38 3.74-7.53 4.38-11.88 1.85-3.8-2.21-6.32-5.59-8.38-9.35a75.69 75.69 0 0 1-8-24.35 96.39 96.39 0 0 1-.71-26.65c.78-6.89 2.43-13.53 6.36-19.39a17.39 17.39 0 0 1 2.22-2.67 8.45 8.45 0 0 1 9.93-1.81 17.92 17.92 0 0 1 7.29 6.38c3.75 5.28 6.06 11.23 7.91 17.37a88.53 88.53 0 0 1 3.7 24.57c.01.79.01 1.52.01 2.28zm90.57-41.4l-14.43 66.34h-.26L193 65.75h-.23l-13.49 63.65h-.24l-13.92-74zM45.32 39.73l4.8 1.81a11 11 0 0 0 1.35.5c3.85.9 6 3.58 7.44 7a42.16 42.16 0 0 1 2.28 26.28 19.29 19.29 0 0 1-2.69 5.81c-1.25 2-3 2.27-5.14 1.38-2.43-1-4.85-2.07-7.28-3.07a1.15 1.15 0 0 1-.86-1.23V40.43c.03-.13.06-.29.1-.7zM2 61.37c3 1.11 5.85 2.08 8.63 3.27a4.24 4.24 0 0 1 1.9 2.06c4.26 9.46 5.74 19.25 3.11 29.43a14.13 14.13 0 0 1-2 4.16c-1.15 1.72-2.62 2-4.5 1.12s-3.88-1.89-5.86-2.74a1.79 1.79 0 0 1-1.25-2C2 86.15 2 75.59 2 65zm43.49 36h-.31V144c.11.14.22.29.33.43l.52.18c2.4.76 4.56 2.29 6.82 3.47l6.91 3.58zM2 24.49a20.44 20.44 0 0 1 3.17.89 2.54 2.54 0 0 1 1.38 1.45 24.42 24.42 0 0 1-.08 9.61c-.34 1.38-1.11 1.65-2.47 1.14-2-.76-2-.76-2-2.9V24.49z"/></g></g></svg>