<?xml version="1.0" encoding="utf-8"?>
<!-- Generator: Adobe Illustrator 21.0.0, SVG Export Plug-In . SVG Version: 6.00 Build 0)  -->
<svg version="1.1" id="Logo_5-2" xmlns="http://www.w3.org/2000/svg" xmlns:xlink="http://www.w3.org/1999/xlink" x="0px" y="0px"
	 viewBox="0 0 671 319" style="enable-background:new 0 0 671 319;" xml:space="preserve">
<style type="text/css">
	.st0{fill:#DFDFDF;stroke:#FFFFFF;stroke-miterlimit:10;}
	.st1{fill:#DFDFDF;}
	.st2{fill:none;}
	.st3{fill:#474747;stroke:#FFFFFF;stroke-miterlimit:10;}
</style>
<title>BrownAE-logo-grey-white</title>
<path class="st0" d="M43.7,142.8c0-41.6,0.1-84.6,0.1-126.3v-1.5 M54.8,148.5c2.8,1.2,5.8,3.1,8.3,4.4l6.2,3.2L55.1,102h-0.3
	L54.8,148.5 M3.3,122.7c-0.6-0.4-0.9-1-1-1.7c0-39.1,0-78.1,0-117.2c0-0.4,0-2.5,0-3.1c0.6,0.2,2.2,0.8,2.5,0.9
	c3.1,1.1,5.1,1.9,8.3,2.9c2.3,0.8,4,3.8,5.4,5.8c1.9,2.9,3.4,6,4.4,9.2c3.6,10.1,3.3,20.6,3.9,31c0,0.6,0.2,1.2,0.4,1.8
	c0.8,1.9,1.9,3.7,2.6,5.6c5.5,16,8,32.3,6.2,49.2c-0.6,5.9-4.3,19.3-14.6,24l-0.9,0.4 M23.7,132.6l-0.5-0.3l0.8,0.4
	c-8.5-4.3,16.8,8.6,19.7,10.1 M43.8,15c-10.9-3.7-23-8-33.9-11.7C7.5,2.5,5.1,1.6,2.7,0.7h667.7v317.8H1.8V121.4l41.9,21.4
	 M279.6,265.7l46.2,24.1L280,172.6l-0.3,0.1C279.7,203.4,279.6,234.9,279.6,265.7 M217.7,233.5l44.7,23.3 M189.2,218.7
	c0.2,0.1,0.4,0.2,0.6,0.2c6.7,3.5,13.4,7,20.1,10.5c2.3,1.2,4.6,2.5,6.9,3.7 M262.3,256.8c0-54.2,0.2-110.5,0.2-164.7
	c0-1.3,0,0.4,0-1c0-0.3,0-0.7,0.1-1c0.3,0.7,0.8,1.3,1,1.9c8.5,19.7,17.1,39.4,25.6,59.1l35.9,82.8c0.1,0.3,0.3,0.6,0.6,1
	c0-0.4,0-0.5,0-0.6c0-40.4,0-80.9,0-121.3c0-0.8-0.3-1.1-1-1.3c-20.2-6.9-40.5-13.9-60.7-20.9c-0.4-0.2-0.7-0.4-1-0.6l0,0
	c-0.6-0.1-1.1-0.2-1.7-0.3c-0.8-0.2-1.6-0.5-2.4-0.8l-9.4-3.2c-0.1,0.3-0.2,0.6-0.2,0.8c-1.1,4.9-2.1,9.8-3.2,14.8l-13.3,61.4
	c-3.6,16.7-7.3,33.4-10.9,50.1c-1.4,6.4-2.8,12.9-4.2,19.3c-0.1,0.5-0.1,1.2-1,1.1c0-0.2,0-0.4,0-0.6c-1.5-8.6-3.1-17.1-4.6-25.7
	l-7.5-42.4c-0.7-3.6-1.3-7.1-1.9-10.7h-0.2l-13.4,64.6l-0.8-0.3c-1.6-9.3-3.3-18.7-4.9-28.1c-4-22.7-7.9-45.5-11.9-68.2
	c-3.8-22-7.6-43.9-11.5-65.9c0-0.7-0.5-1.2-1.1-1.4c-11.6-4-23.3-8-34.9-12c-0.3-0.1-0.7-0.2-0.9-0.3c1.8,1.2,3.6,2.2,5.3,3.6
	c5.3,4.2,8.9,9.8,11.9,15.8c8.6,17.1,12.8,35.4,13.9,54.4c0.6,8.9,0.4,17.9-0.5,26.8c-0.7,7.6-2.4,15.2-5,22.4
	c-2.2,5.7-5,11.2-9.5,15.5c-2.8,2.7-6,4.6-10,4.5c-1.9-0.2-3.8-0.4-5.7-0.9c0,0,0.4,0.2,0.7,0.4c17.1,9,34.2,17.9,51.3,26.8
	c4.2,2.2,8.5,4.4,12.8,6.6 M604.4,17c-0.5,0.1-0.8,0.2-1.2,0.3l-65.8,22.5C518.2,46.4,499,53,479.8,59.5c-0.9,0.1-1.5,1-1.3,1.8
	c0,49.4,0,98.8,0,148.2v1.4l1.2-0.6l16.2-8.4l58.9-30.5c16.1-8.3,32.2-16.7,48.3-25c0.8-0.3,1.3-1.1,1.2-2c0-6.4,0-12.8,0-19.2
	c0-0.5,0-0.9-0.1-1.5l-86.4,42.1c0-0.4-0.1-0.6-0.1-0.8c0-11.3,0-22.6,0-33.8c0-0.9,0.5-1.1,1.1-1.4c28.1-12.5,56.2-24.9,84.3-37.4
	c0.7-0.2,1.2-0.9,1.1-1.7c0-6.2,0-12.3,0-18.5v-1.4l-86.5,35.9c0-0.6,0-1,0-1.3c0-11,0-21.9,0-32.9c-0.1-0.8,0.4-1.6,1.2-1.8
	c28-10.4,56-20.8,84-31.2c0.9-0.2,1.5-1.1,1.3-2c0-6.4,0-12.7,0-19.1L604.4,17z M372.5,264.7c0.6-0.3,1-0.5,1.4-0.7l19.7-10.2
	c15.2-7.8,30.3-15.6,45.4-23.5c0.7-0.3,1.2-1,1.1-1.8c0-21.1,0-42.2,0-63.4v-1.4c-0.6,0.3-1.1,0.4-1.6,0.6
	c-21.7,9.6-43.3,19.2-65,28.7c-0.8,0.3-1.2,1-1.1,1.8c0,22.8,0,45.5,0,68.3L372.5,264.7z M440.1,100.5l-67.5,25.1v41.9
	c0.4-0.1,0.6-0.2,0.9-0.3c21.9-9.1,43.8-18.2,65.7-27.2c0.7-0.2,1.1-0.8,1-1.5c0-12.2,0-24.4,0-36.6L440.1,100.5z M67.6,23.2
	c1.6,2.1,3.5,4.2,5,6.5c3.1,5.2,5.5,10.8,7,16.6c3.9,13.8,4.9,28.3,3.1,42.5c-0.7,6.1-2.4,12-5.2,17.5c-1.5,2.8-3.2,5.4-6.1,6.9
	c-0.9,0.5-0.9,0.9-0.7,1.8c4.2,15.6,8.3,31.2,12.5,46.9c0.1,0.5,0.2,1.1,0.3,1.7l35.8,18.6c-5.2-4-9.4-9-12.4-14.8
	c-7.8-14.3-12-29.8-14.2-45.9c-1.3-9.6-1.7-19.3-1.3-29c0.2-8.5,1.5-17,3.7-25.2c2-7.1,4.7-13.8,9.4-19.6c2.2-3.1,5.4-5.3,9.1-6.3
	c2.3-0.5,4.7-0.5,7-0.1L67.6,23.2z M141.2,121.8c0.1-6.8-0.6-13.6-1.9-20.3c-1.5-7.9-4.3-15.6-8.3-22.6c-2.1-3.4-4.6-6.5-8.2-8.3
	s-7.2-1.4-10.3,1.5c-1.1,1.1-2.1,2.2-2.9,3.5c-3,4.9-4.8,10.3-5.5,16c-1.9,13.2-1,26.7,2.6,39.5c1.8,6.2,4.1,12.3,7.9,17.6
	c1.8,2.7,4.3,4.9,7.2,6.4c3.4,1.8,7.6,1.1,10.2-1.7c2.8-3,4.9-6.6,6.1-10.5C140.6,135.8,141.2,128.4,141.2,121.8L141.2,121.8z
	 M217.1,146h0.2l14.5-66.5L174.7,60l13.9,74h0.2l13.5-63.6h0.3L217.1,146z M54.8,44.2v1.6c0,7.5,0,14.9,0,22.4c0,4.8,0,9.6,0,14.4
	c0,0.5,0.2,1,0.6,1.3c2.6,1.2,5.3,2.3,7.9,3.4c1.4,0.7,3,0.3,4-0.9c1.1-1.4,2-2.9,2.7-4.6c1.6-4.3,1.8-8.8,1.6-13.3
	c-0.2-5.6-1.5-11-3.9-16c-0.9-1.8-2-3.7-3.9-4.5C61.1,46.5,58.1,45.5,54.8,44.2z M10.5,65.9c0,12.1,0,24,0,35.9
	c0.1,0.5,0.4,0.9,0.8,1.1c2.1,1.1,4.3,2.1,6.5,3.1c1.6,0.7,3.1,0.6,4-0.9c1.1-1.5,1.9-3.2,2.5-5c1.2-3.7,1.2-7.6,1.1-11.5
	C25,82.8,23.6,77,21.2,71.7c-0.4-1.1-1.2-2-2.2-2.6C16.4,67.9,13.5,67,10.5,65.9z M10.5,29c0,0.5,0,0.9,0,1.3c0,3.1,0.1,6.1,0,9.2
	c-0.2,1.1,0.5,2.2,1.7,2.5c0,0,0,0,0,0c1.9,0.6,2.8,0.4,3-1.7c0.2-2.9,0.2-5.7,0-8.6c-0.1-0.7-0.6-1.4-1.2-1.7
	C12.8,29.6,11.7,29.2,10.5,29L10.5,29z"/>
<path class="st1" d="M613.7,164.8l-13.5,7c0.3,0.2,0.7,0.4,1,0.6c2,0.7,3.9,2,5.9,1.9s3.8-1.5,5.6-2.5c1.4-0.7,2.8-1.4,4.2-2.1
	c0.4-0.2,0.9-0.3,1.3-0.2c1.9,0.6,3.8,1.3,6,2.1c-1.9,1-3.5,1.8-5.1,2.6s-3.2,1.7-5,2.6c0.6,0.3,0.9,0.5,1.3,0.6
	c1.6,0.6,3.1,1.2,4.7,1.7c0.7,0.2,1.4,0.2,2.1-0.1c3.9-1.9,7.8-4,11.7-6c0.6-0.4,1.4-0.5,2.2-0.2c1.7,0.7,3.4,1.2,5.4,1.9
	c-1.9,1-3.6,1.9-5.3,2.8c-4.7,2.4-9.4,4.8-14.1,7.2c-0.5,0.3-1.1,0.3-1.7,0.1c-11-3.9-22-7.9-33-11.9c-0.1-0.1-0.2-0.1-0.3-0.2
	l10.7-5.5c2.9-1.5,5.8-3,8.6-4.4c0.4-0.2,0.9-0.3,1.3-0.3C609.7,163.3,611.7,164.1,613.7,164.8z"/>
<path d="M11.4,39.5"/>
<path d="M16.1,40.3"/>
<path class="st1" d="M420.9,273.6c4.8-3.1,9.5-5.2,14.9-3.9c1.3,0.3,2.8,0.7,3,2.3s-1.3,2.1-2.4,3c-3.3,2.5-6.7,2.6-10.3,0.7
	C424.4,274.9,422.7,274.2,420.9,273.6z"/>
<path class="st1" d="M410.8,269.8c1.3-1.4,3.3-2,5.1-1.3c0.3,0.1,0.7,0.5,0.7,0.7c-0.1,0.4-0.3,0.7-0.6,0.9
	C414.5,271.3,412.3,271.2,410.8,269.8z"/>
<path class="st1" d="M448.1,250.5c0.3-0.2,0.5-0.4,0.8-0.6c6.9-2.7,13.8-3.3,20.9-0.8c0.8,0.3,1.5,0.7,2.1,1.3
	c1.5,1.1,1.8,3.2,0.8,4.7c-0.1,0.1-0.1,0.2-0.2,0.2c-0.9,1-2,1.8-3.1,2.5c-0.4,0.2-0.8,0.2-1.1,0c-6.5-2.3-13-4.6-19.5-7
	C448.6,250.7,448.4,250.6,448.1,250.5z"/>
<path class="st2" d="M11.4,124.8c0,0.3-0.1,0.7-0.1,1c0,0.2,0,0.4-0.1,0.5c0,0.1,0,0.2,0,0.3c0.3-0.1,0.6-0.3,0.9-0.5l0.5-0.2
	c0,0,0.2-0.1,0.2-0.1s0,0.4,0,0.5s-0.1,0.4,0,0.5s0.1,0,0.2,0l0.2,0c0.2,0.1,0.4,0.2,0.6,0.4c0.2,0.1,0.4,0.2,0.7,0.3
	c0.2,0.1,0.4,0.2,0.6,0.3s0.2,0.1,0.4,0.2c0.2,0.1,0.4,0.1,0.6,0.2l0.4,0.2c0.1,0.1,0.2,0.1,0.3,0.2c0.4,0.1,0.7,0.4,1,0.5
	c0.1,0,0.2,0,0.2,0.1c0.1,0,0.1,0.1,0.2,0.1l0.3,0c0.1,0,0.2,0,0.2,0.1"/>
<path class="st2" d="M11.6,7.5"/>
<path class="st2" d="M7.8,3.8"/>
<path class="st2" d="M7.8,3.2"/>
<path class="st2" d="M7.1,2.7"/>
<path class="st2" d="M16.1,5.2"/>
<path class="st2" d="M16.1,5.9"/>
<path class="st2" d="M16.3,5.8"/>
<path class="st3" d="M573.3,191.1l7.9-4.1c2.5-1.3,5-2.6,7.6-3.9c0.7-0.3,1.4-0.4,2.1-0.2c2.4,0.8,4.8,1.8,7,3.1
	c3.4,2.1,3.6,5.9,0.8,8.8c-3,3.1-6.8,4.7-10.8,6c-4.5,1.4-9.3,2.1-14,2.2c-5.3,0.4-10.6-0.4-15.6-2.2c-1.4-0.6-2.8-1.3-4-2.2
	c-2.4-1.6-3.1-4.7-1.5-7.1c0.2-0.2,0.3-0.4,0.5-0.7c1.4-1.6,3-2.9,4.9-4c5.3-3.1,11.2-4.2,17.2-4.9c0.2,0,0.5,0.3,0.7,0.5
	c0,0,0,0.1,0,0.2c0.2,3.1,0.2,3-2.8,3.5c-3.3,0.4-6.4,1.5-9.2,3.3c-1.5,1-2.8,2.2-2.6,4.2s1.7,3.1,3.4,3.8c3.7,1.5,7.7,2,11.6,1.5
	c3.7-0.2,7.3-1.2,10.6-2.8c1.7-0.9,3.3-1.9,3.8-3.9c0.2-0.8,0.1-1.6-0.2-2.3c-0.5-1.4-1.1-1.5-2.5-0.9c-2.5,1.3-4.9,2.5-7.3,3.8
	c-0.7,0.4-1.6,0.5-2.4,0.2C576.9,192.3,575.2,191.8,573.3,191.1z"/>
<path class="st3" d="M355.1,291.4c2.1-1.1,4.2-2.3,6.4-3.2c0.9-0.3,2,0,3.1,0.1c4,0.4,8.1,0.9,12.1,1.3c2.2,0.2,4.5,0.4,6.8,0.7
	l0.2-0.3l-8.8-8.5l21.3,2.3l0.2-0.4l-9-8.6c2.3-1.2,4.5-2.3,6.7-3.4c0.3-0.1,0.9,0.2,1.2,0.5c4.7,4.3,9.3,8.7,13.9,13l5.7,5.3
	l-21.8-2.4l-0.2,0.4l8.9,8.2l-0.1,0.3l-46.5-5.2L355.1,291.4z"/>
<path class="st3" d="M420.2,257.8c4.4-1.9,8.2-4.8,12.8-5.8c4.4-0.9,8.9-1.3,13.2,0.5c1.4,0.6,3,0.7,4.5,0.4c4.8-1,9.8-0.9,14.6,0.4
	c1.5,0.5,3,1.1,4.3,2c1.7,0.9,2.4,3.1,1.5,4.8c-0.2,0.3-0.4,0.6-0.6,0.8c-0.9,1.1-2.1,2-3.3,2.7c-3.8,2.1-7.7,4.1-11.6,6
	c-0.6,0.3-1.3,0.3-2,0.1c-10.9-3.9-21.7-7.8-32.6-11.7C420.7,258,420.6,258,420.2,257.8z M443.9,260.6c1.8,0.6,3.6,1.2,5.3,2
	c3.6,1.9,7,1.8,10.3-0.7c1.1-0.8,2.6-1.3,2.4-3s-1.7-2-3-2.3C453.3,255.5,448.7,257.5,443.9,260.6z M433.8,256.8
	c1.4,1.4,3.7,1.6,5.3,0.4c0.3-0.2,0.5-0.5,0.6-0.9c0-0.2-0.4-0.5-0.7-0.7C437.2,254.9,435.1,255.4,433.8,256.8L433.8,256.8z"/>
<path class="st3" d="M639.6,174.3l-38.5,3.7l-0.1,0.4l18.3,6.6c-2.1,1.1-4.1,2.2-6.1,3.1c-0.4,0.1-0.9,0.1-1.3-0.1
	c-10.9-3.9-21.8-7.8-32.7-11.9l38.2-3.7V172l-18.3-6.6c2.3-1.1,4.3-2.2,6.3-3.2c0.3-0.1,0.7,0,1,0.1l32.8,11.8
	C639.4,174.2,639.5,174.3,639.6,174.3z"/>
<path class="st3" d="M457.8,238.5c5.7-3.2,11.2-6,17.6-7.1c4.2-0.8,8.5-1.1,12.7-0.9c4.9,0.3,9.7,1,14,3.5c1.8,0.8,3.1,2.4,3.6,4.3
	c0.4,2-0.3,4-1.8,5.3c-1.2,1.2-2.6,2.2-4,3c-2.3,1.4-4.8,2.6-7.2,3.8c-0.5,0.2-1.1,0.2-1.7,0c-10.3-3.7-20.6-7.4-30.9-11.1
	L457.8,238.5z M471.1,237.5c0.2,0.2,0.5,0.3,0.7,0.5c6.5,2.3,13,4.7,19.5,7c0.4,0.2,0.8,0.2,1.1,0c1.1-0.7,2.2-1.6,3.1-2.5
	c1.2-1.4,1.1-3.5-0.3-4.7c-0.1-0.1-0.2-0.1-0.2-0.2c-0.6-0.5-1.4-1-2.1-1.3c-7.1-2.6-14-1.9-20.9,0.8
	C471.7,237.1,471.4,237.3,471.1,237.5L471.1,237.5z"/>
<path class="st3" d="M511,216.7l-13.5,7c0.4,0.3,0.9,0.5,1.3,0.7c1.6,0.6,3.2,1.2,4.9,1.7c0.6,0.2,1.2,0.1,1.8-0.1
	c2.9-1.4,5.7-2.9,8.5-4.3c0.6-0.3,1.3-0.3,1.9-0.1c1.8,0.5,3.5,1.2,5.5,2l-9.8,5.1v0.4c2.2,0.8,4.4,1.6,6.6,2.3
	c0.4,0.1,0.9-0.2,1.3-0.4c3.8-2,7.7-3.9,11.5-6c0.8-0.5,1.7-0.5,2.5-0.2c1.6,0.7,3.3,1.2,5.1,1.9c-0.2,0.2-0.4,0.3-0.6,0.4
	c-6.2,3.2-12.3,6.4-18.5,9.5c-0.6,0.3-1.3,0.3-2,0.2c-10.7-3.8-21.3-7.6-32-11.5c-0.3-0.1-0.6-0.3-1.2-0.5l6-3.1
	c4.4-2.3,8.7-4.5,13.1-6.8c0.7-0.4,1.5-0.4,2.2-0.1C507.2,215.4,509,216,511,216.7z"/>
<path class="st3" d="M396.5,270.1c6.6-3.4,13-6.7,19.5-10c0.4-0.2,0.8-0.3,1.2-0.2c1.9,0.6,3.8,1.3,5.9,2.1l-13.2,6.9v0.4
	c1.2,0.4,2.4,0.8,3.5,1.3c2.4,1.3,4.5,1,6.7-0.5c1.9-1.2,4-2.2,6.1-3.1c0.6-0.3,1.3-0.3,2-0.2c1.7,0.5,3.4,1.2,5.4,1.9l-10,5.2
	c0.4,0.2,0.7,0.4,1.1,0.6c1.7,0.6,3.4,1.3,5.1,1.8c0.6,0.2,1.3,0.1,1.9-0.1c4-2,7.9-4.1,11.8-6c0.6-0.3,1.3-0.3,2-0.1
	c1.8,0.5,3.5,1.2,5.4,1.9c-1.1,0.6-2,1.1-2.8,1.5c-5.4,2.8-10.8,5.6-16.3,8.4c-0.7,0.3-1.4,0.4-2.1,0.2c-11-3.9-21.9-7.8-32.8-11.8
	C396.7,270.3,396.6,270.2,396.5,270.1z"/>
<path class="st3" d="M538,205.8c-2,1-3.9,2-5.8,3c-0.4,0.1-0.9,0.1-1.3,0c-2.1-0.4-4.4,0-6.3,1c-0.6,0.3-1.3,1.2-1.2,1.6
	c0.3,0.7,0.8,1.3,1.6,1.5c2.4,0.8,4.8,0.2,7.2-0.4c3.2-0.8,6.3-1.7,9.5-2.3c4-0.7,8-0.8,11.8,0.9c1.6,0.7,3.2,1.6,3.3,3.6
	s-1.2,3-2.7,4c-3.1,1.9-6.6,3-10.2,3.3c-3.5,0.5-7,0.4-10.5-0.5c-0.3-0.1-0.5-0.2-1.1-0.4c2.2-1.1,4.2-2.2,6.2-3.1
	c0.3-0.1,0.7,0,1,0c2.2,0.2,4.4,0.3,6.4-1c0.6-0.4,1-1,1.1-1.7c-0.2-0.7-0.7-1.2-1.4-1.4c-1.5-0.3-3.1-0.4-4.6-0.1
	c-3.8,0.8-7.6,2-11.4,2.7c-3.7,0.8-7.5,0.7-11.1-0.3c-1.2-0.4-2.3-0.9-3.3-1.6c-1.4-0.8-1.9-2.6-1.1-4.1c0.1-0.3,0.3-0.5,0.5-0.7
	c0.9-1,1.9-1.8,3.1-2.4c3.1-1.6,6.5-2.5,10-2.7c3-0.3,6-0.2,9,0.5c0.3,0.1,0.5,0.1,0.8,0.2C537.7,205.6,537.9,205.7,538,205.8z"/>
<path class="st3" d="M531.7,200.3c2.1-1.1,4-2.1,5.9-3c0.5-0.1,1.1-0.1,1.6,0.1c10.4,3.7,20.9,7.5,31.3,11.2l1.8,0.6
	c-2.2,1.1-4.1,2.1-6.1,3.1c-0.4,0.1-0.8,0.1-1.1,0c-11-3.9-21.9-7.9-32.9-11.8C532,200.6,531.8,200.5,531.7,200.3z"/>
</svg>
