<?xml version="1.0" encoding="utf-8"?>
<!-- Generator: Adobe Illustrator 20.0.0, SVG Export Plug-In . SVG Version: 6.00 Build 0)  -->
<svg version="1.1" id="Layer_1" xmlns="http://www.w3.org/2000/svg" xmlns:xlink="http://www.w3.org/1999/xlink" x="0px" y="0px"
	 viewBox="0 0 500 500" style="enable-background:new 0 0 500 500;" xml:space="preserve">
<style type="text/css">
	.st0{fill:#FDFDFD;}
	.st1{fill:#FEFEFE;}
</style>
<title>Thumb-up</title>
<g>
	<path d="M342,36.3c22.6,6.3,34,22.8,39.5,44.1c2.6,10.1-0.4,19.9-4.1,29.4c-4.3,10.8-11.1,20.2-18,29.4s-14.4,18-20.2,28.2
		c-5.9,10.4-8.9,21.8-11.6,33.2c-0.2,1.3-0.3,2.4-0.3,3.7c-0.1,4.9,2.1,8.1,6.7,9.8c6.7,2.6,13.8,3.5,20.7,4.6
		c13.4,2.2,27,3.5,39.7,8.6c13.3,5.4,26.2,11.8,37.5,21.1c13.4,11.1,17.9,25.7,16.6,42.6c-0.4,3.9-1,7.7-2,11.5
		c-2.2,8.1-6,15.3-12.7,20.4c-6,4.6-8.1,10-6.6,17.4c1.3,5.6,1.3,11.3,0,16.9c-2,7.8-6.8,13.6-13.1,18.2c-4.3,3.1-8.7,6-13.1,9
		c-3.2,2.1-5.4,5.5-5.9,9.4c-1.6,12.9-9.7,20.9-20.8,26.3c-2.9,1.4-5.9,2.6-8.9,3.6c-5.4,1.8-10.1,5.5-13.1,10.4
		c-3.2,5-6.5,10.2-10.8,14.5c-7,7-15.8,10.4-25.3,12.2c-14.9,2.7-29.7,2.2-44.1-2.9c-10.8-3.8-21.7-4-32.9-2.7
		c-9.7,1.1-19.5,1.9-29.2-0.5c-12.8-3.3-23.4-10.4-33.1-19.1c-11.1-9.9-20.3-21.6-30.3-32.5c-5.6-6.2-11.7-12-18.2-17.2
		c-2.9-2.3-6.6-3.6-10.4-3.4c-4.1,0.2-8.2,0.3-12.2,0.5c-13.4,0.8-23.1-5.3-30.3-16.2c-6.8-10.2-9.9-21.5-11.3-33.5
		c-0.3-2.6-0.5-5.3-0.6-7.9v-10.6c0.9-16.1,3.2-32,8.6-47.2c4.7-13.1,11.3-24.8,21.8-34.2c9.7-8.8,21.1-12.4,34-11.2
		c4.5,0.5,9.1,0.4,13.6,0.9c10.2,1.2,19-2.2,27.3-7.7c11.8-7.9,22.2-17.4,32.3-27.4c7.6-7.5,15-15.1,22.4-22.8
		c8.8-9.2,19.1-16.5,29.4-23.9c7.3-5.2,14.7-10.3,21.3-16.3c8-7.2,14.2-16.2,18.2-26.2c5.2-12.9,9.9-26,16.6-38.3
		c2.3-4.2,5-8.2,7.7-12.1c4.2-5.8,10-9.1,16.7-11.1c0.9-0.3,2-0.1,2.6-1.1H342z M238.8,439.5c-5.2-2.8-10.4-5.9-15.1-9.4
		c-4.4-3.1-6.8-8.2-6.5-13.6c0.3-11.6,3.5-22.1,13.1-29.6c1-0.8,1.6-1.4,0.9-3c-4.1-10-3.4-19.8,2.8-28.8c2.8-4,6-7.5,9.7-10.5
		c1.3-1.1,1.6-1.8,0.5-3.4c-2.8-4.1-3.4-8.7-0.8-13.1c3.2-5.2,5.9-10.7,10.1-15.3c5.9-6.3,12.5-11.9,19.7-16.7
		c1.7-1.2,2.3-2.3,1.7-4.3c-1.4-5.7-0.3-10.8,3.9-15.3s9.1-8.3,14.6-11c14.6-7.2,29.7-11.2,46-7.3c9.7,2.3,18.8,6.2,27.8,10.4
		c6.8,3.2,13.7,5.4,21.1,1.8c0.1,0,0.2,0,0.3,0c4.3-1,8.3,1.2,9.5,5.1c1.3,4.1-0.9,8.5-5,9.7H393c-2.9,0.9-5.9,1.5-8.7,2.3
		c-5.3,1.3-10.9,0.7-15.8-1.5c-6.2-2.7-12.4-5.1-18.6-7.8c-10.9-4.7-22-7.6-33.9-4.6c-9.3,2.3-18.1,5.3-24.8,12.6
		c-3.1,3.3-2.6,5.5,1.4,7.7c4.5,2.4,9.1,4.8,13.6,7.2c10,5.5,19.8,11.5,29.9,16.9c13.1,7,26.6,10.4,41.5,8.6
		c12-1.4,23.9-3.6,35.7-5.7c0.6-0.1,1.2-0.5,1.4-1c2.5-4.5,6.2-8,10.1-11.3c2.9-2.3,5-5.6,6.1-9.1c5-16.5,2.3-32.1-13.9-42.8
		c-16.1-10.6-33.4-18-52.8-20.6c-11.2-1.4-22.3-3.2-33-6.8c-7.8-2.6-14.7-6.5-17.7-14.8c-2.4-6.6-2.3-13.3-0.7-20
		c4.3-19,11.5-36.6,23.5-52.2c6.8-8.7,13.6-17.4,19.6-26.6c5.1-7.8,9.5-16.1,10.4-25.7c1.2-12.3-9.5-30.5-20.9-36.4
		c-6.1-3.2-10.8-2.3-15.4,3c-2.2,2.5-4.1,5.3-5.9,8.3C318.3,75.1,313.9,86,309.9,97c-6.8,19-17.6,35-33.9,47
		c-7.2,5.3-14.5,10.6-21.9,15.6c-12.3,8.3-22.2,19.4-32.6,29.9c-12.4,12.7-25.3,25-39.7,35.7c-13.9,10.3-28.8,15.8-46.3,13.7
		c-5.2-0.7-10.4-1-15.7-1c-2.7,0-5.3,0.6-7.7,1.8c-10.8,5.5-17.9,14.4-22.5,25.3c-9.4,22.3-12.2,45.7-10,69.7
		c0.8,9.5,4.5,18.6,10.5,26c3.2,4,6.9,6.2,12.2,5.8c2.1-0.2,4.3-0.1,6.4-0.3c12.7-1.4,23.7,2.1,33.3,10.6
		c9.5,8.6,18.4,17.6,26.7,27.2c7,7.9,14,15.9,22.1,22.7c7.1,5.9,14.7,11,23.9,13C222.5,441.4,230.3,440,238.8,439.5z M412,351.4
		c-0.4-4-0.9-7.9-1.1-11.9c-0.1-1.9-0.7-2.2-2.3-1.8c-10.6,2.3-21.3,3.8-32.1,4.5c-9.9,0.6-19.8,1-29.3-2.5
		c-15.8-5.9-30.9-13.1-43.7-24.4c-3.1-2.7-6.4-5.1-9.5-7.7c-1.4-1.2-2.9-3.2-4.4-3.2s-3.2,1.8-4.8,2.9c-9.3,6.8-19.1,12.7-24.3,23.7
		c-1.7,3.5-2,3.4,1.6,5c15.7,6.8,30.9,14.4,45.7,22.9c14.1,8.2,30,12.9,46.3,13.7c10,0.5,20.1,0.4,30.1,0.9c4.2,0.3,6.8-1.2,9.8-3.4
		c4.1-3.2,8.6-5.9,12.9-9C409.7,358.6,412.2,355.8,412,351.4z M344.5,413.6c4.7,0.5,4.7,0.5,9.2-2.3c5.2-3.2,11-5,16.5-7.4
		c4.3-1.9,7.6-4.6,7.7-9.8c0.1-1.1,0.3-2.2,0.6-3.2c0.7-1.9-0.2-2.2-1.8-2.2c-7,0.2-14-0.1-21.1-0.5c-12.1-0.8-24-2.3-35.5-6.4
		c-10.1-3.7-19.5-8.8-28.9-14c-9.6-5.3-19.8-9.5-27.7-17.6c-0.6-0.6-1.2-0.9-2-0.2c-4,3.2-8,6.4-11.7,10c-3.3,3.2-5.4,7.6-6,12.2
		c-0.4,2.6,0.3,4.1,2.8,5.4c21,10.4,42.7,19.3,63.5,30c1.8,0.9,3.8,1.5,5.8,2C325.1,412,334.4,413,344.5,413.6L344.5,413.6z
		 M336.5,428.7c-2.7-0.4-5.4-0.6-8.2-1c-9.2-1.3-18.3-2.6-26.7-6.8c-15.8-8-32.1-15.2-48.2-22.6c-1.7-0.8-3.3-1.7-4.3-3.3
		c-0.8-1.4-1.6-1.2-3-0.5c-8.2,4.3-12.5,11.2-14,20.2c-0.4,1.2,0.1,2.5,1.2,3.2c2.2,1.7,4.4,3.2,6.8,4.6
		c15.9,9.1,33.1,15.2,50.3,21.4c5.5,2,11,3.2,16.8,2.6C319.8,445.3,330.6,441.4,336.5,428.7L336.5,428.7z"/>
	<path class="st0" d="M63.4,314.7v10.7h-0.5v-10.7H63.4z"/>
	<path class="st1" d="M238.8,439.5c-8.6,0.5-16.3,2-24.1,0.3c-9.2-2.1-16.7-7.1-23.9-13c-8.1-6.8-15-14.9-22.1-22.7
		c-8.4-9.5-17.3-18.6-26.7-27.1c-9.7-8.6-20.6-12.1-33.3-10.6c-2.1,0.3-4.2,0.1-6.4,0.3c-5.2,0.5-8.9-1.8-12.2-5.8
		c-6-7.5-9.6-16.5-10.5-26c-2.3-24,0.6-47.4,10-69.7c4.6-10.9,11.7-19.8,22.5-25.3c2.4-1.2,5-1.8,7.7-1.8c5.2,0,10.5,0.3,15.7,1
		c17.4,2.2,32.4-3.3,46.3-13.7c14.4-10.7,27.3-23.1,39.8-35.7c10.4-10.4,20.2-21.5,32.6-29.9c7.5-5,14.7-10.3,21.9-15.6
		c16.4-12,27.1-28,33.9-47c4-11,8.4-21.9,14.3-32.1c1.7-3,3.6-5.7,5.9-8.3c4.6-5.1,9.3-6.1,15.4-3c11.4,5.9,22.1,24,20.9,36.4
		c-0.9,9.5-5.2,17.8-10.4,25.7c-6,9.2-12.9,17.8-19.6,26.6c-12.1,15.6-19.2,33.2-23.5,52.2c-1.5,6.7-1.7,13.4,0.7,20
		c3.1,8.4,9.9,12.2,17.7,14.8c10.7,3.6,21.9,5.4,33,6.8c19.4,2.5,36.6,10,52.8,20.6c16.1,10.6,18.9,26.2,13.9,42.8
		c-1.1,3.6-3.2,6.8-6.1,9.1c-4,3.2-7.6,6.8-10.1,11.3c-0.3,0.5-0.8,0.9-1.4,1c-11.9,2.1-23.8,4.3-35.7,5.7
		c-14.9,1.8-28.5-1.5-41.5-8.6c-10.1-5.4-19.8-11.4-29.9-16.9c-4.5-2.5-9.1-4.9-13.6-7.2c-4.1-2.2-4.5-4.3-1.4-7.7
		c6.7-7.3,15.5-10.3,24.8-12.6c12-3.1,23.1-0.1,33.9,4.6c6.2,2.6,12.4,5.1,18.6,7.8c5,2.3,10.5,2.8,15.8,1.5c3-0.6,5.9-1.3,8.7-2.3
		c4.1-1.3,6.4-5.6,5.2-9.6v-0.1c-1.3-4-5.2-6.1-9.5-5.1c-0.1,0-0.2,0-0.3,0c-7.4,3.7-14.2,1.4-21.1-1.8c-9-4.2-18.1-8.2-27.8-10.4
		c-16.3-3.9-31.5,0.1-46,7.3c-5.5,2.8-10.4,6.5-14.6,11c-4.1,4.4-5.2,9.6-3.9,15.3c0.5,2.1,0,3.2-1.7,4.3
		c-7.1,4.8-13.8,10.4-19.6,16.7c-4.1,4.6-7,10-10.1,15.3c-2.6,4.3-2,8.9,0.8,13.1c1.1,1.6,0.7,2.3-0.5,3.4c-3.7,3.1-7,6.6-9.7,10.5
		c-6.2,9.1-6.8,18.8-2.8,28.8c0.6,1.7,0,2.3-0.9,3c-9.6,7.6-12.9,17.9-13.1,29.6c-0.4,5.3,2.2,10.4,6.5,13.6
		C228.5,433.5,233.6,436.7,238.8,439.5z"/>
	<path class="st0" d="M412,351.4c0.3,4.3-2.2,7.2-5.4,9.5c-4.2,3.1-8.7,5.9-12.9,9c-3,2.3-5.6,3.7-9.8,3.4
		c-10-0.6-20.1-0.5-30.1-0.9c-16.3-0.8-32.1-5.5-46.3-13.7c-14.8-8.5-30-16.1-45.7-22.9c-3.6-1.5-3.2-1.4-1.6-5
		c5.2-11,15-16.9,24.3-23.7c1.5-1.1,3.2-2.9,4.8-2.9c1.5,0,3,2.1,4.4,3.2c3.2,2.5,6.5,5,9.5,7.7c12.8,11.3,27.9,18.5,43.7,24.4
		c9.5,3.5,19.4,3.1,29.3,2.5c10.8-0.7,21.5-2.3,32.1-4.5c1.7-0.4,2.3-0.1,2.3,1.8C411.1,343.5,411.5,347.5,412,351.4z"/>
	<path class="st0" d="M344.5,413.6c-10.1-0.6-19.4-1.5-28.5-4c-2-0.5-3.9-1.2-5.8-2c-20.8-10.7-42.5-19.6-63.5-30
		c-2.6-1.3-3.2-2.8-2.8-5.4c0.5-4.6,2.7-8.9,5.9-12.2c3.7-3.6,7.7-6.8,11.7-10c0.9-0.7,1.4-0.5,2,0.2c7.8,8,18.1,12.3,27.7,17.6
		c9.4,5.1,18.8,10.4,28.9,14c11.4,4.1,23.4,5.6,35.5,6.4c7,0.5,14,0.7,21.1,0.5c1.7,0,2.5,0.2,1.8,2.2c-0.4,1-0.6,2.1-0.6,3.2
		c-0.2,5.2-3.4,7.9-7.7,9.8c-5.5,2.5-11.3,4.2-16.5,7.4C349.2,414,349.2,414,344.5,413.6z"/>
	<path class="st0" d="M336.5,428.7c-5.9,12.6-16.7,16.6-29.2,17.7c-5.9,0.5-11.3-0.5-16.8-2.6c-17.1-6.3-34.4-12.3-50.3-21.4
		c-2.3-1.4-4.7-3-6.8-4.6c-1.1-0.7-1.5-2-1.2-3.2c1.5-8.9,5.9-15.8,14-20.1c1.4-0.7,2.2-1,3,0.5c1,1.7,2.6,2.6,4.3,3.3
		c16.1,7.4,32.3,14.5,48.2,22.6c8.4,4.2,17.6,5.6,26.7,6.8C331,428.1,333.8,428.4,336.5,428.7z"/>
</g>
</svg>
