<?xml version="1.0" encoding="utf-8"?>
<!-- Generator: Adobe Illustrator 21.1.0, SVG Export Plug-In . SVG Version: 6.00 Build 0)  -->
<svg version="1.1" id="Layer_1" xmlns="http://www.w3.org/2000/svg" xmlns:xlink="http://www.w3.org/1999/xlink" x="0px" y="0px"
	 viewBox="0 0 100 100.1" style="enable-background:new 0 0 100 100.1;" xml:space="preserve">
<style type="text/css">
	.st0{display:none;}
	.st1{display:inline;}
</style>
<g class="st0">
	<g class="st1">
		<rect x="-962" y="-126.8" width="1180" height="1190.6"/>
		<path d="M218.5,1064.6h-1181V-127.6h1181V1064.6z M-961.5,1063h1179V-126h-1179V1063z"/>
	</g>
</g>
<g>
	<g>
		<path d="M95.7,34l-9.9-6.8c-0.5-0.3-1.1-0.4-1.6-0.1c-0.1,0.1-0.2,0.1-0.3,0.2H62.2v-8.9c0-3.4-2.8-6.2-6.2-6.2h-0.4
			c-0.9,0-1.8,0.2-2.6,0.6v-1.6c0-3.4-2.8-6.2-6.2-6.2h-0.4c-3.4,0-6.2,2.8-6.2,6.2v0.4c-0.8-0.4-1.6-0.6-2.6-0.6h-0.4
			c-3.4,0-6.2,2.8-6.2,6.2v1c-0.8-0.4-1.6-0.6-2.6-0.6h-0.4c-3.4,0-6.2,2.8-6.2,6.2v3.5H11.9c-0.7,0-1.3,0.6-1.3,1.3v1.6H9
			c-3.4,0-6.2,2.8-6.2,6.2v0.7c0,3.4,2.8,6.2,6.2,6.2h1.7v1.6c0,0.7,0.6,1.3,1.3,1.3h10.3v24.5V71c0,0.2,0,0.4,0.1,0.6
			c0,0,0,0,0,0.1c0,0,0,0,0,0c0.3,0.9,1.4,3.1,5.7,10.4v12.8h3.6v-9c5.1-0.1,10.3,0,15.4,0c2.3,0,4.6,0,7,0v9h3.6V83.8L71,62.6
			c0-0.1,0.1-0.1,0.1-0.2c0,0,0-0.1,0-0.1c0-0.1,0.1-0.2,0.1-0.3c0,0,0,0,0,0c0-0.2,0-0.3,0-0.5V46.2h12.6c0.1,0.1,0.2,0.2,0.3,0.2
			c0.2,0.1,0.5,0.2,0.7,0.2c0.3,0,0.6-0.1,0.9-0.3l9.9-6.8c1-0.7,1.5-1.7,1.5-2.8C97.2,35.7,96.7,34.7,95.7,34z M10.6,40.1H9
			c-1.7,0-3.1-1.4-3.1-3.1v-0.7c0-1.7,1.4-3.1,3.1-3.1h1.7V40.1z M22.2,31.1v12.5h-9V29.9h9V31.1z M62.2,34.5
			c0.2-0.1,0.4-0.1,0.6-0.1h7.6c1.3,0,2.3,1,2.3,2.3s-1,2.3-2.3,2.3h-7.6c-0.2,0-0.4,0-0.6-0.1V34.5z M67.7,61.1l-1.5,2.4L54.3,82.3
			c-2.4,0-4.8,0-7.2,0c-4.6,0-9.3,0-14,0c-0.3,0-0.5,0-0.8,0c-0.1-0.1-0.2-0.3-0.2-0.4c-0.1-0.2-0.3-0.5-0.4-0.7
			c-0.1-0.2-0.2-0.3-0.3-0.5c-3.3-5.5-5.3-9.1-5.6-9.9v-0.1V31.1v-7.3c0-1.4,1.1-2.6,2.5-2.6h0.4c1.4,0,2.6,1.2,2.6,2.6v18.3h3.6
			V17.2c0-1.4,1.1-2.6,2.6-2.6h0.4c1.4,0,2.6,1.1,2.6,2.6v24.9H44V17.2v-6c0-1.4,1.1-2.6,2.6-2.6h0.4c1.4,0,2.6,1.1,2.6,2.6v7.2V42
			v0.2l3.6-0.2V18.4c0-1.4,1.1-2.6,2.6-2.6H56c1.4,0,2.6,1.1,2.6,2.6v27.2c0,0,0,0,0,0s0,0,0,0v7.8l0,0v0.4c0,0,0,0,0,0v2.4h3.6
			v-8.9h5.5L67.7,61.1L67.7,61.1z M83.3,43.6H62.2v-3.3c0.2,0,0.4,0.1,0.6,0.1h7.6c2,0,3.6-1.6,3.6-3.6c0-2-1.6-3.6-3.6-3.6h-7.6
			c-0.2,0-0.4,0-0.6,0.1v-3.3h21.1V43.6z M93.9,36.9L86.5,42V31.5l7.4,5.1c0.1,0.1,0.2,0.2,0.2,0.1C94.1,36.7,94,36.8,93.9,36.9z"/>
	</g>
</g>
</svg>
