<?xml version="1.0" encoding="utf-8"?>
<!-- Generator: Adobe Illustrator 21.1.0, SVG Export Plug-In . SVG Version: 6.00 Build 0)  -->
<svg version="1.1" id="Layer_1" xmlns="http://www.w3.org/2000/svg" xmlns:xlink="http://www.w3.org/1999/xlink" x="0px" y="0px"
	 viewBox="0 0 65.5 53.9" style="enable-background:new 0 0 65.5 53.9;" xml:space="preserve">
<g>
	<rect x="16.4" y="3" width="1.5" height="1.5"/>
	<rect x="12.9" y="3" width="1.5" height="1.5"/>
	<rect x="19.9" y="3" width="1.5" height="1.5"/>
	<rect x="12.6" y="17.7" width="4.4" height="1.5"/>
	<path d="M17.6,49.6h-5.5c-0.4,0-0.8,0.3-0.8,0.8s0.3,0.8,0.8,0.8h5.5c0.4,0,0.8-0.3,0.8-0.8S18,49.6,17.6,49.6z"/>
	<path d="M27.9,36h18.7v-1.5H27.9V17.6c0-1.4-1.1-2.5-2.5-2.5h-15V7.3h48.8v23.3h1.5v-28c0-1.4-1.2-2.6-2.6-2.6H11.5
		c-1.4,0-2.6,1.2-2.6,2.6v12.5H2.5c-1.4,0-2.5,1.1-2.5,2.5v33.8c0,1.4,1.1,2.5,2.5,2.5h22.8c1.4,0,2.5-1.1,2.5-2.5V41h23.6v-1.5
		H27.9V36z M11.5,1.4H58c0.6,0,1.1,0.5,1.1,1.1v3.2H10.4V2.6C10.4,2,10.9,1.4,11.5,1.4z M2.5,16.6h22.8c0.6,0,1,0.4,1,1v3H1.5v-3
		C1.5,17,2,16.6,2.5,16.6z M26.4,22.1v24.7H1.5V22.1H26.4z M25.4,52.4H2.5c-0.5,0-1-0.4-1-1v-3.1h24.8v3.1
		C26.4,51.9,25.9,52.4,25.4,52.4z"/>
	<path d="M65.3,42.1c-8.9-15.4-16.1-19-18.4-19.8c0.2-1.5-0.3-2.8-0.3-2.8c-1.1-4-5.2-4.2-6.6-4.3c-1.8-0.1-2.9-2.1-2.9-2.2
		l-0.5-0.9l-0.7,0.7c0,0-3.9,3.9-0.5,9.5c2.5,4.3,6,4.3,7.5,4.1c0.8,2.3,4.5,9.4,19.6,18.4c0.1,0,0.5,0.2,1,0.2s1-0.2,1.4-0.6
		C65.8,43.6,65.5,42.5,65.3,42.1z M63.9,43.5c-0.2,0.2-0.6,0.1-0.6,0.1l0,0C45.9,33.3,44.1,25.5,44.1,25.4l-0.2-0.9l-0.8,0.3
		c0,0-0.6,0.2-1.4,0.2c-1.4,0-3.4-0.6-5.1-3.4c-2-3.3-1-5.8-0.3-6.9c0.7,0.8,1.8,1.9,3.5,2c3,0.2,4.6,1.1,5.2,3.3
		c0,0,0.5,1.3,0.2,2.6l-0.1,0.8l0.8,0.1c0.1,0,8,1.7,18.1,19.3C64.1,43,64.1,43.2,63.9,43.5z"/>
	<rect x="49.6" y="28.9" transform="matrix(0.7187 -0.6953 0.6953 0.7187 -6.4559 43.3284)" width="1.5" height="1.5"/>
	<rect x="51.7" y="31.1" transform="matrix(0.7187 -0.6953 0.6953 0.7187 -7.3701 45.4183)" width="1.5" height="1.5"/>
	<rect x="53.7" y="33.2" transform="matrix(0.7187 -0.6953 0.6953 0.7187 -8.3181 47.4095)" width="1.5" height="1.5"/>
</g>
</svg>
