<?xml version="1.0" encoding="utf-8"?>
<!-- Generator: Adobe Illustrator 21.1.0, SVG Export Plug-In . SVG Version: 6.00 Build 0)  -->
<svg version="1.1" id="Layer_1" xmlns="http://www.w3.org/2000/svg" xmlns:xlink="http://www.w3.org/1999/xlink" x="0px" y="0px"
	 viewBox="0 0 100 79.3" style="enable-background:new 0 0 100 79.3;" xml:space="preserve">
<g>
	<path d="M93.7,1.9H6.4c-2.9,0-5.3,2.4-5.3,5.3v63.1c0,2.9,2.4,5.3,5.3,5.3h87.3c2.9,0,5.3-2.4,5.3-5.3V7.2
		C99,4.3,96.6,1.9,93.7,1.9z M96.2,70.4c0,1.4-1.1,2.5-2.5,2.5H6.4c-1.4,0-2.5-1.1-2.5-2.5V15.7h92.4v54.7H96.2z M96.2,12.9H3.8V7.2
		c0-1.4,1.1-2.5,2.5-2.5h87.3c1.4,0,2.5,1.1,2.5,2.5v5.7H96.2z"/>
	<path d="M67.6,7.4H32.3c-0.8,0-1.4,0.6-1.4,1.4s0.6,1.4,1.4,1.4h35.3c0.8,0,1.4-0.6,1.4-1.4S68.4,7.4,67.6,7.4z"/>
	<circle cx="7.8" cy="8.8" r="1.4"/>
	<circle cx="12.4" cy="8.8" r="1.4"/>
	<circle cx="17.1" cy="8.8" r="1.4"/>
	<polygon points="38.1,50.1 30.8,45 38.1,39.9 35.6,36.4 23.3,45 35.6,53.6 	"/>
	<polygon points="58.4,28.8 53.5,28.8 41.6,59.8 46.4,59.8 	"/>
	<polygon points="64.4,53.6 76.7,45 64.4,36.4 61.9,39.9 69.2,45 61.9,50.1 	"/>
</g>
</svg>
