<svg xmlns="http://www.w3.org/2000/svg" xmlns:xlink="http://www.w3.org/1999/xlink" viewBox="0 0 647.88 296.39"><defs><style>.cls-1{fill:none;}.cls-2{isolation:isolate;}.cls-3{clip-path:url(#clip-path);}.cls-4{clip-path:url(#clip-path-2);}.cls-5{clip-path:url(#clip-path-3);}.cls-6{fill:#f08c21;}.cls-7,.cls-8{fill:#fff;}.cls-7{opacity:0.15;}</style><clipPath id="clip-path"><polygon class="cls-1" points="328.27 305.49 333.01 150.02 649.23 144.5 644.48 299.97 328.27 305.49"/></clipPath><clipPath id="clip-path-2"><polyline class="cls-1" points="328.27 305.49 340.56 155.25 649.23 144.5 636.93 294.73 328.27 305.49"/></clipPath><clipPath id="clip-path-3"><polyline class="cls-1" points="368.61 304.08 329.53 290.02 608.88 145.9 647.96 159.97 368.61 304.08"/></clipPath></defs><title>Asset 5</title><g id="Layer_2" data-name="Layer 2"><g id="Transparent_BROWN_Letters_copy" data-name="Transparent BROWN Letters copy"><g class="cls-2"><g class="cls-3"><g class="cls-4"><g class="cls-5"><polyline class="cls-6" points="373.96 267.8 365.89 271.97 376.76 281.88 352.16 279.05 362.98 288.99 338.39 286.16 330.34 290.31 330.36 290.32 383.54 296.38 383.54 296.38 371.71 286.17 397.31 289.28 397.31 289.28 373.96 267.8"/><polyline class="cls-6" points="399.5 254.53 377.08 266.11 414.67 279.63 437.09 268.07 429.61 265.38 414.65 273.08 407.11 270.36 418.32 264.58 410.82 261.89 399.61 267.67 392.06 264.95 407.01 257.24 399.5 254.53"/><path class="cls-6" d="M440.38,259.89l-9.09-3.26c1.39-.71,2.6-1.37,3.89-2,.8-.41,1.62-.81,2.51-1.24a13.39,13.39,0,0,1,5-1.07h.27a10.8,10.8,0,0,1,3.68.51c2.45.88,2.57,2.58.15,3.83l-4.89,2.52-1.47.75m-15.94-5.73-6.85-2.47,2.93-1.51a8.56,8.56,0,0,1,3.54-.82h.18a7.61,7.61,0,0,1,2.65.37c1.91.68,1.73,1.93.17,2.93-1.11.65-2,1.15-2.61,1.5m1.33-9.39-.62,0-1.45.08a27,27,0,0,0-10.5,2.68l-2.58,1.33-7.79,4,37.43,13.48,13.83-7.13c3.2-1.66,4.78-3.5,4.72-5.49s-1.67-3.58-4.91-4.75a26.3,26.3,0,0,0-9.36-1.34l-.71,0c-.54,0-1.08,0-1.65.09a40.79,40.79,0,0,0-4.77.78,7.73,7.73,0,0,0-3.64-2.66,22.53,22.53,0,0,0-8-1.14"/><path class="cls-6" d="M482.7,237.92l-22.49-8.09,2.42-1.25a29.89,29.89,0,0,1,12.45-3.12h.55a26.54,26.54,0,0,1,9.39,1.44c6.77,2.43,6.87,6.29.18,9.75l-2.49,1.29m-5.32-17.21-.87,0c-.73,0-1.47.07-2.22.13a51.35,51.35,0,0,0-19.09,5h0l-9.89,5.1,37.42,13.48,9.89-5.11q8.08-4.18,8.1-9,0-4.37-8.21-7.32a42.31,42.31,0,0,0-15.16-2.35"/><polyline class="cls-6" points="499.34 203.03 476.91 214.61 514.49 228.14 536.92 216.55 529.44 213.87 514.48 221.58 506.94 218.87 518.16 213.07 510.65 210.38 499.44 216.17 491.88 213.44 506.84 205.74 499.34 203.03"/><path class="cls-6" d="M526.27,192.89l-.65,0a31.67,31.67,0,0,0-12.9,3c-6.27,3.23-6.27,7.69,0,10a22.35,22.35,0,0,0,7.79,1.06l.68,0a43.42,43.42,0,0,0,10.46-1.72c2.64-.76,6.18-2.2,9.23-2.3h.19a7.05,7.05,0,0,1,2.5.36c2.09.74,1.53,2.54-.53,3.61h.07a13.65,13.65,0,0,1-5.27,1.22h-.22a7.73,7.73,0,0,1-2.66-.34l-5.83,4.39a28.33,28.33,0,0,0,7.09.7l.69,0a34.4,34.4,0,0,0,13.84-3.22c6.26-3.23,6.79-8,.48-10.24a21.57,21.57,0,0,0-7.57-1l-.59,0a41.41,41.41,0,0,0-10.85,1.93c-2.47.78-5.89,2-8.88,2.09h-.2a8,8,0,0,1-2.79-.39c-2.08-.74-2.09-2.25,0-3.32a10.59,10.59,0,0,1,4.28-1h.19a8.79,8.79,0,0,1,3.06.42l5.84-4.4a29,29,0,0,0-7.49-.78"/><polyline class="cls-6" points="535.66 184.38 528.19 188.24 565.62 201.7 573.09 197.84 535.66 184.38"/><path class="cls-6" d="M576.43,168c-6,.48-13.17,1.93-18.91,4.88h-.09q-7.83,4-7.71,8.88c.06,3.26,2.7,5.82,7.91,7.7a42.09,42.09,0,0,0,15,2.17l1.06,0c.94,0,1.91-.09,2.9-.16a48.91,48.91,0,0,0,18.87-4.87c5.18-2.68,7.77-5.63,7.78-8.88s-2.8-6.22-10.33-8.46l-19.09,9.85,7.17,2.58,10.61-5.47c1.91,2.12,1.18,5.12-3.65,7.62a29.39,29.39,0,0,1-11.33,2.91c-.56,0-1.11.07-1.65.09l-.71,0a25.27,25.27,0,0,1-9-1.3c-3.15-1.13-4.73-2.67-4.75-4.61s1.49-3.72,4.61-5.33a29.83,29.83,0,0,1,11.36-2.91l0-4.67"/><polyline class="cls-6" points="609.59 146.16 602.09 150.01 622.89 157.5 578.99 161.33 617.27 175.1 624.75 171.25 603.96 163.77 647.88 159.94 627.34 152.54 609.59 146.16"/></g></g></g></g><g id="Layer_51" data-name="Layer 51"><polyline class="cls-7" points="2.35 0 0.39 122 0 121.51 316.19 285.15 316.34 285 316.39 108 316.24 107.56 1.96 0.02 316.24 107.56"/><polygon class="cls-7" points="594.79 141.4 594.1 12.69 316.39 108 316.34 285 594.79 141.4"/></g><path class="cls-1" d="M2,24.49a20.43,20.43,0,0,1,3.17.89,2.54,2.54,0,0,1,1.38,1.45,24.42,24.42,0,0,1-.08,9.61C6.13,37.82,5.36,38.09,4,37.58c-2-.76-2-.76-2-2.9ZM9,101.41c-2-.91-3.88-1.89-5.86-2.74a1.79,1.79,0,0,1-1.25-2C2,86.15,2,75.59,2,65V61.37c3,1.11,5.85,2.08,8.63,3.27a4.24,4.24,0,0,1,1.9,2.06c4.26,9.46,5.74,19.25,3.11,29.43a14.13,14.13,0,0,1-2,4.16C12.4,102,10.93,102.28,9,101.41ZM364,120.67q32.78-12.15,65.54-24.36c.26-.1.52-.16,1-.3v1.37q0,18.17,0,36.35c0,.75,0,1.3-.91,1.67q-32.86,13.59-65.7,27.25l-1,.37v-1.24q0-19.79,0-39.58A1.37,1.37,0,0,1,364,120.67ZM254.71,86.26q30.23,10.4,60.47,20.78a1.25,1.25,0,0,1,1,1.42q0,60.29,0,120.57c0,.3,0,.59,0,.89l-.21,0L253.43,85.91C254,86.06,254.35,86.14,254.71,86.26ZM222.19,75.09l-14.43,66.34h-.26L193,65.75l-.23,0L179.28,129.4l-.24,0-13.92-74ZM45.25,40.45c0-.16,0-.31.08-.72l4.8,1.81a11,11,0,0,0,1.35.5c3.85.9,6,3.58,7.44,7a42.16,42.16,0,0,1,2.28,26.28,19.29,19.29,0,0,1-2.69,5.81c-1.25,2-3,2.27-5.14,1.38-2.43-1-4.85-2.07-7.28-3.07a1.15,1.15,0,0,1-.86-1.23Q45.26,59.34,45.25,40.45ZM74,159.11,60.8,109.34c6.43-3.68,8.6-10.05,10.53-16.52a71,71,0,0,0,2.6-18.71,104.19,104.19,0,0,0-4.29-33.62c-1.75-5.66-3.82-11.21-7.18-16.14-1.4-2.06-3.12-3.9-4.61-5.74L111,36.88a36.74,36.74,0,0,0-5.78-.19c-4.73.52-8.08,3.43-10.86,7-4.49,5.82-7.17,12.52-9.1,19.53a114.64,114.64,0,0,0-3.66,28.58,157.65,157.65,0,0,0,5.55,45.65C89.76,146.71,93,155.66,97.88,164c3.16,5.38,6.93,10.24,12.12,13.89Zm28.89-18.36a75.69,75.69,0,0,1-8-24.35,96.38,96.38,0,0,1-.71-26.65c.78-6.89,2.43-13.53,6.36-19.39a17.4,17.4,0,0,1,2.22-2.67,8.45,8.45,0,0,1,9.93-1.81A17.92,17.92,0,0,1,120,72.27c3.75,5.28,6.06,11.23,7.91,17.37a88.53,88.53,0,0,1,3.7,24.57c0,.76,0,1.52,0,2.28,0,7.83-.61,15.57-3.39,23a26.88,26.88,0,0,1-5.06,8.77c-3.38,3.74-7.53,4.38-11.88,1.85C107.48,147.88,105,144.5,102.91,140.75ZM429.32,226q-23.76,12.21-47.49,24.48l-17.77,9.18c-.31.16-.63.3-1.13.54V258.9q0-34.26,0-68.52A1.55,1.55,0,0,1,364,188.7q32.66-14.41,65.3-28.86l1.13-.48c0,.54.07,1,.07,1.37q0,31.68,0,63.36A1.85,1.85,0,0,1,429.32,226Z"/><path class="cls-8" d="M594.79,141.4c-3.2,1.62-6.42,3.21-9.6,4.86L527.73,176l-57,29.53-1.87.94c0-.59,0-1,0-1.42q0-74.09,0-148.18c0-.83,0-1.42,1.05-1.78Q513,40.41,556.13,25.66l38-13c.22-.08.46-.11.69-.17V34.6l-.45.14Q551.9,50.51,509.47,66.25a1.6,1.6,0,0,0-1.24,1.8c0,10.92,0,21.84,0,32.75v1.42c.61-.23,1-.37,1.41-.54l67.68-28.11c5.82-2.42,11.63-4.87,17.45-7.31V87.4l-.44.19q-42.53,18.88-85.07,37.74a1.49,1.49,0,0,0-1,1.6q0,16.56,0,33.11c0,.37,0,.74.08,1.25l5.89-2.85,75.47-36.8c1.68-.82,3.39-1.56,5.09-2.33Z"/><path class="cls-8" d="M33.1,10.09Q18.45,5.08,3.81,0q-.07.3-.16.6A11,11,0,0,1,9.43,5.41,35.91,35.91,0,0,1,11.84,10c3.58,8.28,4.83,17,5,26,.05,2.59.62,5.21.38,7.77-.28,3,1.82,4.83,2.54,7.29.12.42.33.81.47,1.23,5.68,16.47,8.17,33.33,6.18,50.72a48.38,48.38,0,0,1-4,15.36c-1.94,4.1-4,8.12-9.31,9.11L34,138.3a13.94,13.94,0,0,0,.2-1.71q0-62.13,0-124.26v-1.8Z"/><path class="cls-8" d="M362.92,260.2V258.9q0-34.26,0-68.52A1.55,1.55,0,0,1,364,188.7q32.66-14.41,65.3-28.86l1.13-.48c0,.54.07,1,.07,1.37q0,31.68,0,63.36a1.85,1.85,0,0,1-1.19,1.91q-23.76,12.21-47.49,24.48l-17.77,9.18C363.74,259.82,363.42,260,362.92,260.2Z"/><path class="cls-8" d="M315.92,230,253.43,85.91c.55.15.92.23,1.28.35q30.23,10.4,60.47,20.78a1.25,1.25,0,0,1,1,1.42q0,60.29,0,120.57c0,.3,0,.59,0,.89Z"/><path class="cls-8" d="M269.49,260.92l46.74,24.35L270.49,168.33l-.27,0-.92,91.56-.33-.17C269.15,260.14,269.33,260.52,269.49,260.92Z"/><path class="cls-8" d="M178.34,213.46c.27.12.52.25.78.38a4.41,4.41,0,0,1-.5-1.12c-.61-3.34-1.17-6.69-1.75-10q-4.64-26.56-9.27-53.12-4.26-24.44-8.5-48.88-4.28-24.61-8.56-49.23A1.66,1.66,0,0,0,149.28,50q-15.36-5.24-30.7-10.53c-1.72-.59-3.46-1.16-5.26-1.77,1.75,1.12,3.48,2.05,5,3.24,5.05,3.87,8.61,9,11.52,14.56,8.88,16.93,13.24,35.12,14.68,54.08a160,160,0,0,1-.22,27.66,90.64,90.64,0,0,1-4.83,22.67c-2.11,5.74-4.82,11.16-9.05,15.67-3.26,3.47-7.14,5.67-12.1,5.19a44,44,0,0,1-4.34-.87c.47.28.73.46,1,.6q30.5,15.88,61,31.76A13.12,13.12,0,0,1,178.34,213.46Z"/><path class="cls-8" d="M192.9,149.57l-13.34,64.29-.26.06.71.39.19.09q13.18,6.86,26.34,13.75a.9.9,0,0,1,.28.27l.53.2C202.58,202.28,197.93,175.92,192.9,149.57Z"/><path class="cls-8" d="M252.94,250.13q.06-81.35,0-162.71c0-.69.11-1.38.16-2a8.54,8.54,0,0,1-1.42-.22c-1.52-.49-3-1-4.53-1.55L240,81.22,208,228.67l-.38,0,.49.24h0l.52.27.4.21,43.25,22.53c.38-.1.77-.18,1.16-.24A2.31,2.31,0,0,1,252.94,250.13Z"/><path class="cls-8" d="M362.92,163v-1.24q0-19.79,0-39.58a1.37,1.37,0,0,1,1.06-1.53q32.78-12.15,65.54-24.36c.26-.1.52-.16,1-.3v1.37q0,18.17,0,36.35c0,.75,0,1.3-.91,1.67q-32.86,13.59-65.7,27.25Z"/><path class="cls-8" d="M110,177.85,74,159.11,60.8,109.34c6.43-3.68,8.6-10.05,10.53-16.52a71,71,0,0,0,2.6-18.71,104.19,104.19,0,0,0-4.29-33.62c-1.75-5.66-3.82-11.21-7.18-16.14-1.4-2.06-3.12-3.9-4.61-5.74L111,36.88a36.73,36.73,0,0,0-5.78-.19c-4.73.52-8.08,3.43-10.86,7-4.49,5.82-7.17,12.52-9.1,19.54a114.64,114.64,0,0,0-3.66,28.58,157.64,157.64,0,0,0,5.55,45.65C89.76,146.71,93,155.66,97.88,164,101,169.34,104.81,174.19,110,177.85Z"/><path class="cls-8" d="M131.62,116.49c0,7.83-.61,15.57-3.39,23a26.88,26.88,0,0,1-5.06,8.77c-3.38,3.74-7.53,4.38-11.88,1.85-3.8-2.21-6.32-5.59-8.38-9.35a75.69,75.69,0,0,1-8-24.35,96.39,96.39,0,0,1-.71-26.65c.78-6.89,2.43-13.53,6.36-19.39a17.39,17.39,0,0,1,2.22-2.67,8.45,8.45,0,0,1,9.93-1.81A17.92,17.92,0,0,1,120,72.27c3.75,5.28,6.06,11.23,7.91,17.37a88.53,88.53,0,0,1,3.7,24.57C131.62,115,131.62,115.73,131.62,116.49Z"/><path class="cls-8" d="M222.19,75.09l-14.43,66.34h-.26L193,65.75l-.23,0L179.28,129.4l-.24,0-13.92-74Z"/><path class="cls-8" d="M45.32,39.73l4.8,1.81a11,11,0,0,0,1.35.5c3.85.9,6,3.58,7.44,7a42.16,42.16,0,0,1,2.28,26.28,19.29,19.29,0,0,1-2.69,5.81c-1.25,2-3,2.27-5.14,1.38-2.43-1-4.85-2.07-7.28-3.07a1.15,1.15,0,0,1-.86-1.23q0-18.89,0-37.78C45.25,40.3,45.28,40.14,45.32,39.73Z"/><path class="cls-8" d="M2,61.37c3,1.11,5.85,2.08,8.63,3.27a4.24,4.24,0,0,1,1.9,2.06c4.26,9.46,5.74,19.25,3.11,29.43a14.13,14.13,0,0,1-2,4.16c-1.15,1.72-2.62,2-4.5,1.12s-3.88-1.89-5.86-2.74a1.79,1.79,0,0,1-1.25-2C2,86.15,2,75.59,2,65Z"/><path class="cls-8" d="M45.49,97.37l-.31,0V144l0,0c.11.14.22.29.33.43l.52.18c2.4.76,4.56,2.29,6.82,3.47l6.91,3.58Z"/><path class="cls-8" d="M2,24.49a20.44,20.44,0,0,1,3.17.89,2.54,2.54,0,0,1,1.38,1.45,24.42,24.42,0,0,1-.08,9.61C6.13,37.82,5.36,38.09,4,37.58c-2-.76-2-.76-2-2.9C2,31.34,2,28,2,24.49Z"/></g></g></svg>