<svg id="Layer_1" xmlns="http://www.w3.org/2000/svg" viewBox="0 0 36.1 35.9"><style>.st0{fill:#4d4d4d}</style><title>Asset 2</title><g id="Layer_2"><g id="home_page"><g id="Main_Nav"><g id="social_utility"><g id="Icons"><path id="LinkedIn_alt_" class="st0" d="M30.7 3.3H5.1c-1.2 0-2.2.9-2.2 2.1v25.7c0 1.2 1 2.2 2.2 2.2h25.6c1.2 0 2.2-.9 2.2-2.1V5.5c0-1.2-1-2.2-2.2-2.2zM12 28.4H7.4V14.9H12v13.5zM9.7 13c-1.3 0-2.4-1.1-2.3-2.4 0-1.3 1.1-2.4 2.4-2.3 1.3-.1 2.4.8 2.6 2.1.1 1.3-.8 2.4-2.1 2.6h-.6zm18.6 15.4h-4.5v-7.2c0-1.8-.7-3.1-2.3-3.1-1 0-2 .7-2.3 1.6-.2.4-.2.8-.2 1.2v7.6h-4.5s.1-12.3 0-13.5H19v1.9c.8-1.4 2.4-2.3 4.1-2.2 3 0 5.2 1.9 5.2 6.1v7.6zM19 16.8z"/></g></g></g></g></g></svg>