<svg id="Layer_1" xmlns="http://www.w3.org/2000/svg" viewBox="0 0 34 32"><style>.st0{fill:#444}</style><path class="st0" d="M3.6 2.8v27.1h27.5V2.8H3.6zm25.3 25H5.7V5h23.2v22.8z"/><path class="st0" d="M16.6 10.4c-.7-.6-1.7-.9-3.2-.9h-3.2v11.1h2.3V17h.8c1.6-.1 2.5-.5 3.3-1.4.6-.6 1-1.5 1-2.6s-.4-2-1-2.6zm-3.3 4.7h-.8v-3.8h1c1.2 0 1.8.9 1.8 1.9 0 1.1-.7 1.9-2 1.9zm8.9.4c-1-.4-1.3-.6-1.3-.9 0-.4.4-.7 1-.7.7 0 1.8.5 2.1.7v-1.9c-.5-.3-1.3-.6-2.2-.6-2 0-3.3 1.2-3.3 2.7 0 1 .6 1.7 2.3 2.2 1 .3 1.2.8 1.2 1.2s-.3.7-1.1.7-1.9-.4-2.3-.7V20c.6.3 1.5.7 2.3.7 2.4.1 3.6-1.2 3.6-2.7-.1-1.2-.7-2-2.3-2.5z"/></svg>