<svg id="Layer_1" xmlns="http://www.w3.org/2000/svg" viewBox="0 0 550.9 511.8"><style>.st0{fill:#fff}.st1{fill:#444}</style><title>Asset 1</title><g id="Layer_2"><g id="Layer_1-2"><path class="st0" d="M550.9 511.8H0V0h550.9v511.8zm-19.7-368.5c-24-28-47.6-55.6-71.3-83.1-1.4-1.4-3.1-2.5-5-3.2-28-11.9-56-23.8-84.1-35.7-2.3-1-4.7-1.5-7.2-1.5-58.8-.1-117.7-.1-176.5 0-2.5 0-4.9.5-7.2 1.5C152 33.1 124 45 96 57c-2.6 1.1-4.8 2.8-6.7 4.9-13 15-25.9 30.1-38.8 45.1l-31 36.2L275.4 492l255.8-348.7z"/><path class="st1" d="M531.2 143.3L275.4 492 19.6 143.3l31-36.2C63.4 92 76.3 76.9 89.3 61.9c1.8-2.1 4.1-3.8 6.7-4.9 28-12 56-23.9 84-35.7 2.3-1 4.7-1.5 7.2-1.5 58.8-.1 117.7-.1 176.5 0 2.5 0 4.9.6 7.2 1.5C399 33.2 427 45.1 455 57c1.9.7 3.6 1.7 5 3.1 23.6 27.6 47.2 55.2 71.2 83.2zm-132.8 93.2H151l124 226.3 123.4-226.3zm-.4-17.7c-.5-1.3-.7-1.9-.9-2.5-13.2-29.8-26.6-59.5-39.6-89.4-1.4-3.3-3.6-3.3-6.3-3.2-50.8 0-101.6 0-152.4-.1-3.8 0-5.5 1.2-7 4.6-12.6 28.6-25.4 57.2-38.1 85.7-.6 1.5-1.2 3-2 4.8l246.3.1zm35.7-151.3c-.7-.5-1.4-.9-2.1-1.3-22.2-9.5-44.4-18.9-66.6-28.2-2-.7-4.2-1.1-6.3-1-56-.1-112-.1-167.9 0-2.8 0-5.6.6-8.1 1.7-20.7 8.7-41.3 17.6-62 26.4-1.4.6-2.8 1.4-4.5 2.2.9.6 1.4 1 2 1.3 24.3 12.1 48.5 24.2 72.9 36.2 2.3 1 4.7 1.5 7.2 1.4 51.1.1 102.3.1 153.4 0 3-.1 5.9-.8 8.5-2.1C380.9 94 401.4 83.7 422 73.4c3.8-1.9 7.6-3.9 11.7-5.9zM40.6 144.3l93.5 70.8 43.9-98-80.7-39.4-56.7 66.6zm411.5-66.6l-80.6 39.4 43.9 97.8 93.3-70.8-56.6-66.4zM79.6 195.1l-.8.8L194 352.6c.4-.7.4-1.5 0-2.2-20.8-38.1-41.5-76.2-62.3-114.3-.7-1.3-1.6-2.5-2.8-3.4-16.4-12.6-32.8-25.1-49.3-37.6zm391.1 1.1l-.9-.6c-15.4 11.7-30.8 23.2-46.1 35-2.7 2.1-5 4.7-6.7 7.7-20 36.5-40 73-59.8 109.5-.8 1.4-1.5 2.9-2.2 4.4l.8.4 114.9-156.4z"/><path class="st0" d="M398.4 236.5L275 462.8 151 236.5h247.4zm-.4-17.7H151.7c.8-1.9 1.3-3.4 2-4.8 12.7-28.6 25.5-57.1 38.1-85.7 1.5-3.4 3.2-4.6 7-4.6 50.8.1 101.6.2 152.4.1 2.7 0 4.9 0 6.3 3.2 13.1 29.9 26.4 59.6 39.6 89.4.3.5.5 1.1.9 2.4zm35.7-151.3c-4.1 2.1-7.9 4-11.8 6-20.5 10.2-41.1 20.5-61.7 30.6-2.7 1.3-5.6 2-8.5 2.1-51.1.1-102.3.1-153.4 0-2.5.1-4.9-.4-7.2-1.4-24.3-12-48.6-24.1-72.9-36.2-.6-.3-1.1-.7-2-1.3 1.7-.8 3-1.6 4.5-2.2 20.6-8.8 41.3-17.7 62-26.4 2.6-1.1 5.3-1.7 8.1-1.7 56-.1 112-.1 167.9 0 2.1-.1 4.3.3 6.3 1 22.2 9.3 44.4 18.8 66.6 28.2.7.4 1.4.8 2.1 1.3zM40.6 144.3l56.7-66.5 80.7 39.4-43.9 98-93.5-70.9zm411.5-66.6l56.5 66.3-93.3 70.8-43.9-97.8 80.7-39.3zM79.6 195.1l49.2 37.5c1.2.9 2.1 2.1 2.8 3.4 20.8 38.1 41.6 76.2 62.3 114.3.4.7.4 1.5 0 2.2l-115-156.6.7-.8zm391.1 1.1L355.8 352.6l-.8-.4c.7-1.5 1.5-2.9 2.2-4.4 19.9-36.5 39.9-73 59.8-109.4 1.7-3 4-5.6 6.7-7.7 15.3-11.8 30.7-23.4 46.1-35l.9.5z"/></g></g></svg>