<svg id="Layer_1" xmlns="http://www.w3.org/2000/svg" viewBox="0 0 33.3 33.3"><style>.st0{fill:#4d4d4d}</style><title>Asset 3</title><g id="Layer_2"><g id="home_page"><g id="Main_Nav"><g id="social_utility"><g id="Icons"><path id="Twitter" class="st0" d="M24.1 24.1h-7.4c-2 0-3.7-1.6-3.7-3.7v-2.6h10.5c1.9 0 3.5-1.6 3.5-3.5s-1.6-3.5-3.5-3.5H12.9V5.4c0-1-.4-2-1.1-2.6-.6-.8-1.6-1.2-2.6-1.2s-2 .4-2.7 1.1c-.7.7-1.1 1.7-1 2.7v15c0 3 1.1 5.8 3.3 7.9 2.1 2.2 4.9 3.4 7.9 3.3h7.4c2.1 0 3.7-1.7 3.7-3.8 0-1-.4-1.9-1.1-2.6-.7-.7-1.6-1.1-2.6-1.1z"/></g></g></g></g></g></svg>