<svg xmlns="http://www.w3.org/2000/svg" xmlns:xlink="http://www.w3.org/1999/xlink" viewBox="0 0 648.43 297.78"><defs><style>.cls-1{fill:none;}.cls-2{isolation:isolate;}.cls-3{clip-path:url(#clip-path);}.cls-4{clip-path:url(#clip-path-2);}.cls-5{clip-path:url(#clip-path-3);}.cls-6{fill:#f08c21;}.cls-7{fill:#fff;}.cls-8{fill:#2d1801;stroke:#fff;stroke-miterlimit:10;}.cls-8{opacity:0.90;}</style><clipPath id="clip-path"><polygon class="cls-1" points="323.96 307.52 328.78 149.81 650.2 144.2 645.39 301.91 323.96 307.52"/></clipPath><clipPath id="clip-path-2"><polyline class="cls-1" points="323.96 307.52 336.43 155.13 650.2 144.2 637.74 296.59 323.96 307.52"/></clipPath><clipPath id="clip-path-3"><polyline class="cls-1" points="367.84 305.99 325.34 290.69 606.33 145.73 648.83 161.03 367.84 305.99"/></clipPath></defs><title>Asset 10</title><g id="Layer_2" data-name="Layer 2"><g id="Gold_Letters" data-name="Gold Letters"><g class="cls-2"><g class="cls-3"><g class="cls-4"><g class="cls-5"><polyline class="cls-6" points="371.99 269.28 365.34 272.71 376.93 283.28 352.32 280.44 363.15 290.38 336.93 287.37 330.3 290.78 379.95 296.45 368.13 286.21 393.79 289.33 371.99 269.28"/><path class="cls-7" d="M365.34,272.71l6.65-3.43,21.8,20.06-25.66-3.12L380,296.45l-49.65-5.67,6.63-3.41,26.22,3-10.83-9.93,24.61,2.83-11.59-10.57m7.25-4.92-9.5,4.89,10.15,9.26-24.59-2.82,10.83,9.93-23-2.64L327,291.29h0l56.71,6.47L372,287.59l25.51,3.1-24.9-22.9"/><polyline class="cls-6" points="397.85 255.85 376.74 266.74 413 279.78 434.09 268.89 427.94 266.69 412.99 274.39 404.11 271.2 415.32 265.42 409.16 263.2 397.94 268.98 389.06 265.78 404.01 258.07 397.85 255.85"/><path class="cls-7" d="M376.74,266.74l21.11-10.88,6.16,2.22-15,7.71,8.88,3.2,11.22-5.78,6.17,2.22-11.22,5.78,8.88,3.2,14.94-7.71,6.15,2.21L413,279.78l-36.26-13m21.09-12.05-23.75,12.25,38.92,14,23.75-12.25-8.81-3.19-15,7.72L406.76,271,418,265.21,409.15,262l-11.22,5.79-6.2-2.23,15-7.72-8.85-3.18"/><path class="cls-6" d="M428.3,257.46l.66-.34c.71-.35,1.36-.71,2-1.06l1.8-.93c.83-.43,1.68-.85,2.63-1.3a11.67,11.67,0,0,1,2.11-.73l.22-.06a16.74,16.74,0,0,1,3-.43l.38,0h.62c.52,0,1,0,1.51.07l.29,0a11.27,11.27,0,0,1,1.3.23c.29.07.56.16.82.25,1.45.52,2.17,1.3,2.16,2.13t0,.08c-.06.76-.72,1.54-2,2.21l-7,3.62-10.42-3.75m-13.71-4.94,3.59-1.85a10.42,10.42,0,0,1,4-1h.53a10.07,10.07,0,0,1,2.71.3l.45.14c1.13.41,1.68,1,1.67,1.67t0,.06c-.05.57-.53,1.18-1.43,1.74-1.14.67-2,1.17-2.65,1.52l-.65.38-8.22-3m9.33-6.61h-.61l-.58,0-.7,0a25.2,25.2,0,0,0-9.82,2.51l-9.72,5,36.09,13,13.16-6.78c2.82-1.46,4.28-3,4.44-4.73,0-.07,0-.15,0-.22s0-.14,0-.22c0-1.9-1.54-3.37-4.63-4.48l-.4-.13q-.89-.3-1.83-.52l-.31-.07a27,27,0,0,0-6-.56h-1.13l-.4,0-1,.07a43.58,43.58,0,0,0-4.47.74l-.92.22-.29-.4a7.3,7.3,0,0,0-3.39-2.5l-.21-.07-.29-.1a18,18,0,0,0-3-.68,25.52,25.52,0,0,0-3.73-.22h-.25"/><path class="cls-7" d="M438.71,260,431,257.25l1.36-.71,1.91-1c.76-.39,1.55-.79,2.39-1.18a11.54,11.54,0,0,1,4.28-.93h.19a9.38,9.38,0,0,1,3.18.43c2.09.75,2.15,2.22.14,3.24l-5.7,3m2.66-7.46h-.31l-.38,0a16.74,16.74,0,0,0-3,.43l-.22.06a11.67,11.67,0,0,0-2.11.73c-1,.45-1.8.87-2.63,1.3l-1.8.93c-.64.35-1.3.71-2,1.06l-.66.34,10.42,3.75,7-3.62c1.3-.67,2-1.46,2-2.21t0-.08c0-.83-.71-1.61-2.16-2.13-.26-.09-.53-.17-.82-.25a11.27,11.27,0,0,0-1.3-.23l-.29,0c-.49,0-1-.07-1.51-.07h-.31m-18.63,1.72-5.48-2,2.27-1.16a6.79,6.79,0,0,1,2.79-.65h.09a6.34,6.34,0,0,1,2.14.29c1.62.59,1.27,1.64.11,2.37l-1.93,1.12m0-4.63h-.53a10.42,10.42,0,0,0-4,1l-3.59,1.85,8.22,3,.65-.38c.64-.35,1.51-.85,2.65-1.52.9-.57,1.37-1.17,1.43-1.74t0-.06c0-.66-.54-1.26-1.67-1.67l-.45-.14a10.07,10.07,0,0,0-2.71-.3m-20.23,3.87,9.72-5A25.2,25.2,0,0,1,422,246l.7,0,.58,0h.86a25.52,25.52,0,0,1,3.73.22,18,18,0,0,1,3,.68l.29.1.21.07a7.3,7.3,0,0,1,3.39,2.5l.29.4.92-.22a43.58,43.58,0,0,1,4.47-.74l1-.07.4,0H443a27,27,0,0,1,6,.56l.31.07q.95.22,1.83.52l.4.13c3.09,1.11,4.61,2.58,4.63,4.48,0,.07,0,.15,0,.22s0,.14,0,.22c-.16,1.72-1.61,3.27-4.44,4.73l-13.16,6.78-36.09-13m21.71-8.45-.64,0c-.5,0-1,0-1.53.09A29,29,0,0,0,410.87,248l-11.06,5.7,38.79,14,14.48-7.47c3.38-1.74,5.07-3.69,5-5.81s-1.78-3.78-5.2-5a28,28,0,0,0-10-1.43l-.71,0c-.57,0-1.15.06-1.73.09-1.17.11-2.78.37-4.12.64a8.79,8.79,0,0,0-3.59-2.45,24.13,24.13,0,0,0-8.58-1.21"/><path class="cls-6" d="M474,225.75h.63l1.25,0c.85,0,1.68.1,2.51.2a26.34,26.34,0,0,1,4.55.95l.64.21.41.13c3.67,1.33,5.47,3.07,5.39,4.95v.09c-.12,1.74-1.86,3.58-5.2,5.32L481,239.23l-23.83-8.57,3.09-1.6c.28-.15.55-.28.84-.41s.73-.34,1.11-.49a32,32,0,0,1,10.38-2.36l.86,0H474m1.54-3.89h-1.05c-.44,0-.88,0-1.33.07l-.56,0a50.36,50.36,0,0,0-17.74,4.52h0l-9.9,5.11,36.08,13,9.22-4.76c5-2.55,7.58-5.32,7.82-8.24,0-.14,0-.29,0-.43,0-2.78-2.68-5.15-7.93-7l-.7-.24-.59-.2-.05,0-.38-.12-1.38-.39a39.13,39.13,0,0,0-4.13-.84l-.5-.07a44.94,44.94,0,0,0-6.45-.4h-.44"/><path class="cls-7" d="M481,238.07l-21.15-7.61,1.76-.91a28.1,28.1,0,0,1,11.73-2.93h.55a24.87,24.87,0,0,1,8.77,1.34c6.43,2.31,6.49,5.91.16,9.17l-1.82,1m-7-12.32h-.53l-.86,0a32,32,0,0,0-10.38,2.36c-.38.16-.75.32-1.11.49s-.56.26-.84.41l-3.09,1.6L481,239.23l3.15-1.62c3.34-1.73,5.08-3.58,5.2-5.32v-.09c.08-1.88-1.72-3.62-5.39-4.95l-.41-.13-.64-.21a26.34,26.34,0,0,0-4.55-.95c-.83-.1-1.66-.17-2.51-.2l-1.25,0H474m-19.15.76A50.36,50.36,0,0,1,472.63,222l.56,0c.45,0,.89-.05,1.33-.07H476a44.94,44.94,0,0,1,6.45.4l.5.07a39.13,39.13,0,0,1,4.13.84l1.38.39.38.12.05,0,.59.2.7.24c5.26,1.89,7.93,4.26,7.93,7,0,.14,0,.29,0,.43-.24,2.92-2.86,5.69-7.82,8.24l-9.22,4.76-36.08-13,9.9-5.11h0m21-5.49-1,0c-.76,0-1.52.07-2.29.13-5.2.41-12.86,1.64-19.76,5.2l-10.53,5.45,38.76,13.94,10.56-5.45c5.56-2.86,8.38-6,8.39-9.29,0-3-2.87-5.56-8.5-7.6A43.89,43.89,0,0,0,475.86,221"/><polyline class="cls-6" points="497.67 204.35 476.57 215.24 512.82 228.27 533.91 217.39 527.77 215.18 512.82 222.89 503.93 219.69 515.14 213.91 508.99 211.7 497.78 217.47 488.87 214.28 503.84 206.56 497.67 204.35"/><path class="cls-7" d="M476.57,215.24l21.09-10.89,6.17,2.22-15,7.72,8.9,3.2L509,211.7l6.15,2.21-11.21,5.78,8.89,3.2,15-7.72,6.13,2.21-21.09,10.88-36.24-13m21.09-12.06L473.9,215.44l38.93,14,23.75-12.25L527.76,214l-14.94,7.72-6.21-2.24,11.22-5.78L509,210.52l-11.21,5.78-6.2-2.23,14.94-7.71-8.84-3.19"/><path class="cls-6" d="M524.5,194h-.84a32.12,32.12,0,0,0-10,1.95l-.51.2c-.4.16-.79.34-1.17.52l-.3.16c-2.82,1.44-4.28,3.16-4.4,4.79q0,.08,0,.17c0,1.72,1.45,3.34,4.44,4.41.22.08.44.15.65.22a22.27,22.27,0,0,0,6.72.78H520a42.6,42.6,0,0,0,9.66-1.62c.64-.18,1.33-.4,2.06-.64l.43-.14,1.48-.47a27.27,27.27,0,0,1,4.56-1,11.9,11.9,0,0,1,1.24-.1h.26a8.72,8.72,0,0,1,2.49.29l.48.15c1.14.4,1.61,1.05,1.58,1.75v.07a2.51,2.51,0,0,1-.93,1.58l.48,0-1.6.83-.56.26a16.1,16.1,0,0,1-4.43,1.06,10.2,10.2,0,0,1-1,.07h-.83a10.73,10.73,0,0,1-1.43-.12l-.29-.06-4.78,3.61.47.09a28.7,28.7,0,0,0,5.51.4h.81a33.48,33.48,0,0,0,12.05-2.65l.49-.23.33-.16c3-1.55,4.57-3.4,4.71-5.14q0-.08,0-.17c0-1.73-1.37-3.32-4.22-4.35q-.6-.22-1.25-.38a20.93,20.93,0,0,0-5-.59h-1.26l-.69,0a35.73,35.73,0,0,0-4.13.48l-1.05.19c-1.45.29-2.83.64-4.07,1l-.43.13-.91.29-1.74.55c-.82.25-1.7.5-2.59.72-.37.09-.74.17-1.12.24-.66.13-1.32.24-2,.32-.37,0-.74.07-1.11.07h-.24a9.28,9.28,0,0,1-3.29-.48c-1.27-.45-1.89-1.13-1.85-1.87v-.07c.06-.67.67-1.36,1.83-2a9.88,9.88,0,0,1,1-.43,13.19,13.19,0,0,1,3.2-.68c.28,0,.57,0,.86-.06h.17a13.6,13.6,0,0,1,2.12.12l.66.12,4.76-3.6-.55-.1a28.63,28.63,0,0,0-5.75-.45"/><path class="cls-7" d="M507.31,201.85q0-.08,0-.17c.12-1.62,1.58-3.34,4.4-4.79l.3-.16c.38-.18.77-.36,1.17-.52l.51-.2a32.12,32.12,0,0,1,10-1.95h.84a28.63,28.63,0,0,1,5.75.45l.55.1L526,198.2l-.66-.12a13.6,13.6,0,0,0-2.12-.12h-.17c-.28,0-.57,0-.86.06a13.19,13.19,0,0,0-3.2.68,9.88,9.88,0,0,0-1,.43c-1.15.6-1.76,1.29-1.83,2v.07c0,.74.58,1.42,1.85,1.87a9.28,9.28,0,0,0,3.29.48h.24c.37,0,.74,0,1.11-.07.66-.07,1.33-.18,2-.32.38-.07.75-.15,1.12-.24.9-.22,1.77-.47,2.59-.72l1.74-.55.91-.29.43-.13c1.23-.37,2.62-.72,4.07-1l1.05-.19a35.73,35.73,0,0,1,4.13-.48l.69,0h1.26a20.93,20.93,0,0,1,5,.59q.64.17,1.25.38c2.86,1,4.26,2.62,4.22,4.35q0,.08,0,.17c-.13,1.74-1.71,3.59-4.71,5.14l-.33.16-.49.23a33.48,33.48,0,0,1-12.05,2.65h-.81a28.7,28.7,0,0,1-5.51-.4l-.47-.09,4.78-3.61.29.06a10.73,10.73,0,0,0,1.43.12h.83a10.2,10.2,0,0,0,1-.07,16.1,16.1,0,0,0,4.43-1.06l.56-.26,1.6-.83-.48,0a2.51,2.51,0,0,0,.93-1.58v-.07c0-.7-.44-1.35-1.58-1.75l-.48-.15a8.72,8.72,0,0,0-2.49-.29h-.26a11.9,11.9,0,0,0-1.24.1,27.27,27.27,0,0,0-4.56,1l-1.48.47-.43.14c-.73.24-1.42.46-2.06.64a42.6,42.6,0,0,1-9.66,1.62h-.82a22.27,22.27,0,0,1-6.72-.78c-.22-.07-.44-.13-.65-.22-3-1.08-4.48-2.69-4.44-4.41m17.42-8.65-.66,0a33.76,33.76,0,0,0-13.69,3.19c-6.61,3.41-6.61,8.15,0,10.55a24.2,24.2,0,0,0,8.38,1.14l.61,0a46.41,46.41,0,0,0,11-1.8c.68-.2,1.4-.43,2.16-.67a26.3,26.3,0,0,1,6.59-1.56h.17a5.36,5.36,0,0,1,1.92.28c1.74.63,1.12,2.17-.54,3l-.36.19a12.51,12.51,0,0,1-4.12.85h-.12a6.51,6.51,0,0,1-2.15-.26l-.83-.3-6.94,5.24.72.17a30.23,30.23,0,0,0,7.53.73l.7,0a36.34,36.34,0,0,0,14.6-3.4c6.81-3.51,7-8.47.48-10.82a23.75,23.75,0,0,0-8.23-1.11h-.57a43.46,43.46,0,0,0-11.32,2l-.92.3a30,30,0,0,1-7.42,1.72h-.18a6.34,6.34,0,0,1-2.23-.32c-1.71-.61-1.7-1.86,0-2.74a8.67,8.67,0,0,1,3.54-.82h.18a7.33,7.33,0,0,1,2.49.34l.82.31,7-5.24-.7-.17a30.49,30.49,0,0,0-7.93-.82"/><polyline class="cls-6" points="533.99 185.69 527.85 188.87 563.95 201.86 570.1 198.68 533.99 185.69"/><path class="cls-7" d="M527.85,188.87l6.14-3.18,36.11,13L564,201.86l-36.1-13m6.13-4.34-8.8,4.54L564,203l8.8-4.55-38.77-14"/><path class="cls-6" d="M573.82,169.22c-4.2.41-11.28,1.53-17.3,4.64l-.48.25-.09,0c-4.4,2.37-6.72,5-6.95,7.75,0,.1,0,.19,0,.28s0,.19,0,.28c.05,3.13,2.62,5.63,7.64,7.44.54.19,1.11.38,1.67.55q1.27.37,2.61.66a45.27,45.27,0,0,0,9.93.88h.22l.81,0h.51l.91,0,1.63-.11a47.34,47.34,0,0,0,18.19-4.7c4.75-2.44,7.27-5.18,7.5-8.13,0-.14,0-.29,0-.44,0-3.33-3.15-6-9.34-8l-17.81,9.2,5.84,2.11,11-5.68.51.57a3.69,3.69,0,0,1,1,2.6q0,.09,0,.18c-.17,1.84-1.86,3.73-4.89,5.3a31,31,0,0,1-12,3.09l-.89.06-.73,0h-.15l-.72,0h-.65a28.39,28.39,0,0,1-6.93-.79q-.82-.21-1.59-.47l-.37-.13c-3.32-1.19-5-2.82-5-4.88,0-.07,0-.13,0-.19s0-.13,0-.19c.15-1.9,1.78-3.67,4.88-5.25a30.62,30.62,0,0,1,11.07-3l0-3.86"/><path class="cls-7" d="M556,174.11l.48-.25c6-3.11,13.1-4.24,17.3-4.64l0,3.86a30.62,30.62,0,0,0-11.07,3c-3.09,1.58-4.73,3.35-4.88,5.25,0,.07,0,.13,0,.19s0,.13,0,.19c0,2.05,1.7,3.69,5,4.88l.37.13q.77.26,1.59.47a28.39,28.39,0,0,0,6.93.79h.65l.72,0h.15l.73,0,.89-.06a31,31,0,0,0,12-3.09c3-1.56,4.72-3.46,4.89-5.3q0-.09,0-.18a3.69,3.69,0,0,0-1-2.6l-.51-.57-11,5.68-5.84-2.11,17.81-9.2c6.19,2,9.32,4.64,9.34,8,0,.15,0,.3,0,.44-.23,3-2.75,5.69-7.5,8.13a47.34,47.34,0,0,1-18.19,4.7l-1.63.11-.91,0h-.51l-.81,0h-.22a45.27,45.27,0,0,1-9.93-.88q-1.35-.28-2.61-.66c-.57-.17-1.13-.36-1.67-.55-5-1.81-7.58-4.31-7.64-7.44,0-.09,0-.18,0-.28s0-.19,0-.28c.23-2.78,2.55-5.39,6.95-7.75l.09,0m19.66-5.87-1,.07c-4.21.35-12.22,1.42-19.08,4.82l-.1,0-.48.25c-5.37,2.78-8.06,5.87-8,9.2s2.82,6,8.19,8a43.55,43.55,0,0,0,15.52,2.25l1.13,0c1,0,2-.09,3-.17a50.66,50.66,0,0,0,19.53-5.05c5.34-2.75,8.06-5.84,8.06-9.18,0-3.7-3.59-6.65-10.66-8.76l-.65-.2-20.39,10.52,8.51,3.06,10.17-5.24c1,1.72.56,4.27-3.88,6.57A27.28,27.28,0,0,1,575,187c-.56,0-1.12.08-1.67.1l-.62,0a23.54,23.54,0,0,1-8.44-1.23c-3-1.07-4.45-2.49-4.46-4.34s1.38-3.49,4.34-5a27.69,27.69,0,0,1,10.7-2.74l.93-.07,0-5.51"/><polyline class="cls-6" points="607.93 147.46 601.75 150.64 623.43 158.45 579.55 162.27 615.6 175.25 621.74 172.08 600.07 164.27 644 160.45 607.93 147.46"/><path class="cls-7" d="M601.75,150.64l6.18-3.18,36.07,13-43.93,3.83,21.68,7.8-6.14,3.17-36.05-13,43.88-3.83-21.68-7.8m6.16-4.34-8.82,4.56L619,158l-43.87,3.82h0l40.49,14.58,8.8-4.54-19.89-7.16,43.92-3.83L607.91,146.3"/></g></g></g></g><path class="cls-8" d="M.53,25.12A20.43,20.43,0,0,1,3.7,26a2.54,2.54,0,0,1,1.38,1.45A24.42,24.42,0,0,1,5,37.07c-.29,1.38-1.07,1.65-2.43,1.14-2-.76-2-.76-2-2.9ZM7.61,102c-2-.91-3.88-1.89-5.86-2.74a1.79,1.79,0,0,1-1.25-2c0-10.56,0-21.12,0-31.68V62c3,1.11,5.85,2.08,8.63,3.27a4.24,4.24,0,0,1,1.9,2.06c4.26,9.46,5.74,19.25,3.11,29.43a14.13,14.13,0,0,1-2,4.16C11,102.64,9.49,102.91,7.61,102ZM362.53,121.3q32.78-12.15,65.54-24.36c.26-.1.52-.16,1-.3V98q0,18.17,0,36.35c0,.75,0,1.3-.91,1.67q-32.86,13.59-65.7,27.25l-1,.37v-1.24q0-19.79,0-39.58A1.37,1.37,0,0,1,362.53,121.3ZM253.28,86.89q30.23,10.4,60.47,20.78a1.25,1.25,0,0,1,1,1.42q0,60.29,0,120.57c0,.3,0,.59,0,.89l-.21,0L252,86.54C252.55,86.69,252.92,86.76,253.28,86.89ZM220.76,75.72l-14.43,66.34h-.26L191.58,66.38l-.23,0L177.85,130l-.24,0-13.92-74ZM43.81,41.08c0-.16,0-.31.08-.72l4.8,1.81a11,11,0,0,0,1.35.5c3.85.9,6,3.58,7.44,7A42.16,42.16,0,0,1,59.76,76a19.29,19.29,0,0,1-2.69,5.81c-1.25,2-3,2.27-5.14,1.38-2.43-1-4.85-2.07-7.28-3.07a1.15,1.15,0,0,1-.86-1.23Q43.83,60,43.81,41.08ZM72.58,159.73,59.37,110c6.43-3.68,8.6-10.05,10.53-16.52a71,71,0,0,0,2.6-18.71,104.19,104.19,0,0,0-4.29-33.62C66.47,35.45,64.4,29.91,61,25c-1.4-2.06-3.12-3.9-4.61-5.74L109.6,37.51a36.74,36.74,0,0,0-5.78-.19c-4.73.52-8.08,3.43-10.86,7-4.49,5.82-7.17,12.52-9.1,19.53a114.64,114.64,0,0,0-3.66,28.58,157.65,157.65,0,0,0,5.55,45.65c2.59,9.21,5.84,18.17,10.71,26.46,3.16,5.38,6.93,10.24,12.12,13.89Zm28.89-18.36a75.69,75.69,0,0,1-8-24.35,96.38,96.38,0,0,1-.71-26.65c.78-6.89,2.43-13.53,6.36-19.39a17.4,17.4,0,0,1,2.22-2.67,8.45,8.45,0,0,1,9.93-1.81,17.92,17.92,0,0,1,7.32,6.39c3.75,5.28,6.06,11.23,7.91,17.37a88.53,88.53,0,0,1,3.7,24.57c0,.76,0,1.52,0,2.28,0,7.83-.61,15.57-3.39,23a26.88,26.88,0,0,1-5.06,8.77c-3.38,3.74-7.53,4.38-11.88,1.85C106.05,148.51,103.53,145.13,101.47,141.38Zm326.42,85.25q-23.76,12.21-47.49,24.48l-17.77,9.18c-.31.16-.63.3-1.13.54v-1.29q0-34.26,0-68.52a1.55,1.55,0,0,1,1.09-1.69q32.66-14.41,65.3-28.86L429,160c0,.54.07,1,.07,1.37q0,31.68,0,63.36A1.85,1.85,0,0,1,427.89,226.62Z"/><path class="cls-8" d="M593.36,142c-3.2,1.62-6.42,3.21-9.6,4.86L526.3,176.62l-57,29.53-1.87.94c0-.59,0-1,0-1.42q0-74.09,0-148.18c0-.83,0-1.42,1.05-1.78Q511.59,41,554.7,26.29l38-13c.22-.08.46-.11.69-.17V35.23l-.45.14Q550.47,51.14,508,66.88a1.6,1.6,0,0,0-1.24,1.8c0,10.92,0,21.84,0,32.75v1.42c.61-.23,1-.37,1.41-.54l67.68-28.11c5.82-2.42,11.63-4.87,17.45-7.31V88l-.44.19Q550.38,107.09,507.84,126a1.49,1.49,0,0,0-1,1.6q0,16.56,0,33.11c0,.37,0,.74.08,1.25l5.89-2.85,75.47-36.8c1.68-.82,3.39-1.56,5.09-2.33Z"/><path class="cls-8" d="M31.67,10.72Q17,5.7,2.38.65q-.07.3-.16.6A11,11,0,0,1,8,6a35.91,35.91,0,0,1,2.41,4.54c3.58,8.28,4.83,17,5,26,.05,2.59.62,5.21.38,7.77-.28,3,1.82,4.83,2.54,7.29.12.42.33.81.47,1.23C24.5,69.29,27,86.15,25,103.54a48.38,48.38,0,0,1-4,15.36C19.06,123,17,127,11.69,128l20.92,10.92a13.94,13.94,0,0,0,.2-1.71q0-62.13,0-124.26v-1.8Z"/><path class="cls-8" d="M361.49,260.83v-1.29q0-34.26,0-68.52a1.55,1.55,0,0,1,1.09-1.69q32.66-14.41,65.3-28.86L429,160c0,.54.07,1,.07,1.37q0,31.68,0,63.36a1.85,1.85,0,0,1-1.19,1.91q-23.76,12.21-47.49,24.48l-17.77,9.18C362.31,260.45,362,260.59,361.49,260.83Z"/><path class="cls-8" d="M314.49,230.59,252,86.54c.55.15.92.23,1.28.35q30.23,10.4,60.47,20.78a1.25,1.25,0,0,1,1,1.42q0,60.29,0,120.57c0,.3,0,.59,0,.89Z"/><path class="cls-8" d="M268.06,261.55l46.74,24.35L269.06,169l-.27,0-.92,91.56-.33-.17C267.72,260.77,267.9,261.15,268.06,261.55Z"/><path class="cls-8" d="M176.91,214.09c.27.12.52.25.78.38a4.41,4.41,0,0,1-.5-1.12c-.61-3.34-1.17-6.69-1.75-10q-4.64-26.56-9.27-53.12-4.26-24.44-8.5-48.88-4.28-24.61-8.56-49.23a1.66,1.66,0,0,0-1.26-1.48q-15.36-5.24-30.7-10.53c-1.72-.59-3.46-1.16-5.26-1.77,1.75,1.12,3.48,2.05,5,3.24,5.05,3.87,8.61,9,11.52,14.56,8.88,16.93,13.24,35.12,14.68,54.08a160,160,0,0,1-.22,27.66,90.64,90.64,0,0,1-4.83,22.67c-2.11,5.74-4.82,11.16-9.05,15.67-3.26,3.47-7.14,5.67-12.1,5.19a44,44,0,0,1-4.34-.87c.47.28.73.46,1,.6q30.5,15.88,61,31.76A13.12,13.12,0,0,1,176.91,214.09Z"/><path class="cls-8" d="M191.47,150.2l-13.34,64.29-.26.06.71.39.19.09q13.18,6.86,26.34,13.75a.9.9,0,0,1,.28.27l.53.2C201.15,202.91,196.5,176.55,191.47,150.2Z"/><path class="cls-8" d="M251.51,250.76q.06-81.35,0-162.71c0-.69.11-1.38.16-2a8.54,8.54,0,0,1-1.42-.22c-1.52-.49-3-1-4.53-1.55l-7.21-2.46-32,147.46-.38,0,.49.24h0l.52.27.4.21,43.25,22.53c.38-.1.77-.18,1.16-.24A2.31,2.31,0,0,1,251.51,250.76Z"/><path class="cls-8" d="M361.49,163.65v-1.24q0-19.79,0-39.58a1.37,1.37,0,0,1,1.06-1.53q32.78-12.15,65.54-24.36c.26-.1.52-.16,1-.3V98q0,18.17,0,36.35c0,.75,0,1.3-.91,1.67q-32.86,13.59-65.7,27.25Z"/><path class="cls-8" d="M108.57,178.48l-36-18.74L59.37,110c6.43-3.68,8.6-10.05,10.53-16.52a71,71,0,0,0,2.6-18.71,104.19,104.19,0,0,0-4.29-33.62C66.47,35.45,64.4,29.91,61,25c-1.4-2.06-3.12-3.9-4.61-5.74L109.6,37.51a36.73,36.73,0,0,0-5.78-.19c-4.73.52-8.08,3.43-10.86,7-4.49,5.82-7.17,12.52-9.1,19.54a114.64,114.64,0,0,0-3.66,28.58,157.64,157.64,0,0,0,5.55,45.65c2.59,9.21,5.84,18.17,10.71,26.46C99.6,170,103.38,174.82,108.57,178.48Z"/><path class="cls-8" d="M130.18,117.11c0,7.83-.61,15.57-3.39,23a26.88,26.88,0,0,1-5.06,8.77c-3.38,3.74-7.53,4.38-11.88,1.85-3.8-2.21-6.32-5.59-8.38-9.35a75.69,75.69,0,0,1-8-24.35,96.39,96.39,0,0,1-.71-26.65c.78-6.89,2.43-13.53,6.36-19.39a17.39,17.39,0,0,1,2.22-2.67,8.45,8.45,0,0,1,9.93-1.81,17.92,17.92,0,0,1,7.32,6.39c3.75,5.28,6.06,11.23,7.91,17.37a88.53,88.53,0,0,1,3.7,24.57C130.19,115.6,130.18,116.36,130.18,117.11Z"/><path class="cls-8" d="M220.76,75.72l-14.43,66.34h-.26L191.58,66.38l-.23,0L177.85,130l-.24,0-13.92-74Z"/><path class="cls-8" d="M43.89,40.36l4.8,1.81a11,11,0,0,0,1.35.5c3.85.9,6,3.58,7.44,7A42.16,42.16,0,0,1,59.76,76a19.29,19.29,0,0,1-2.69,5.81c-1.25,2-3,2.27-5.14,1.38-2.43-1-4.85-2.07-7.28-3.07a1.15,1.15,0,0,1-.86-1.23q0-18.89,0-37.78C43.81,40.93,43.85,40.77,43.89,40.36Z"/><path class="cls-8" d="M.53,62c3,1.11,5.85,2.08,8.63,3.27a4.24,4.24,0,0,1,1.9,2.06c4.26,9.46,5.74,19.25,3.11,29.43a14.13,14.13,0,0,1-2,4.16c-1.15,1.72-2.62,2-4.5,1.12s-3.88-1.89-5.86-2.74a1.79,1.79,0,0,1-1.25-2c0-10.56,0-21.12,0-31.68Z"/><path class="cls-8" d="M44.05,98l-.31,0v46.59l0,0c.11.14.22.29.33.43l.52.18c2.4.76,4.56,2.29,6.82,3.47l6.91,3.58Z"/><path class="cls-8" d="M.53,25.12A20.44,20.44,0,0,1,3.7,26a2.54,2.54,0,0,1,1.38,1.45A24.42,24.42,0,0,1,5,37.07c-.29,1.38-1.07,1.65-2.43,1.14-2-.76-2-.76-2-2.9C.53,32,.53,28.62.53,25.12Z"/></g></g></svg>
