<svg xmlns="http://www.w3.org/2000/svg" xmlns:xlink="http://www.w3.org/1999/xlink" viewBox="0 0 645.95 296.36"><defs><style>.cls-1{fill:none;}.cls-2{isolation:isolate;}.cls-3{clip-path:url(#clip-path);}.cls-4{clip-path:url(#clip-path-2);}.cls-5{clip-path:url(#clip-path-3);}.cls-6{fill:#f08c21;}.cls-7{fill:#fff;}</style><clipPath id="clip-path"><polygon class="cls-1" points="326.34 305.47 331.08 149.99 647.29 144.47 642.55 299.95 326.34 305.47"/></clipPath><clipPath id="clip-path-2"><polyline class="cls-1" points="326.34 305.47 338.63 155.23 647.29 144.47 635 294.71 326.34 305.47"/></clipPath><clipPath id="clip-path-3"><polyline class="cls-1" points="366.68 304.06 327.6 290 606.95 145.88 646.03 159.94 366.68 304.06"/></clipPath></defs><title>Asset 2</title><g id="Layer_2" data-name="Layer 2"><g id="Transparent_BROWN_Letters_copy" data-name="Transparent BROWN Letters copy"><g class="cls-2"><g class="cls-3"><g class="cls-4"><g class="cls-5"><polyline class="cls-6" points="372.03 267.78 363.96 271.95 374.83 281.86 350.23 279.03 361.05 288.97 336.46 286.13 328.41 290.29 328.42 290.3 381.6 296.36 381.61 296.36 369.78 286.15 395.38 289.25 395.38 289.25 372.03 267.78"/><polyline class="cls-6" points="397.57 254.51 375.15 266.08 412.73 279.61 435.16 268.05 427.68 265.35 412.72 273.06 405.18 270.34 416.39 264.56 408.89 261.87 397.68 267.65 390.12 264.93 405.08 257.21 397.57 254.51"/><path class="cls-6" d="M438.45,259.87l-9.09-3.26c1.39-.71,2.6-1.37,3.89-2,.8-.41,1.62-.81,2.51-1.24a13.39,13.39,0,0,1,5-1.07H441a10.8,10.8,0,0,1,3.68.51c2.45.88,2.57,2.58.15,3.83l-4.89,2.52-1.47.75m-15.94-5.73-6.85-2.47,2.93-1.51a8.56,8.56,0,0,1,3.54-.82h.18a7.61,7.61,0,0,1,2.65.37c1.91.68,1.73,1.93.17,2.93-1.11.65-2,1.15-2.61,1.5m1.33-9.39-.62,0-1.45.08a27,27,0,0,0-10.5,2.68l-2.58,1.33-7.79,4,37.43,13.48,13.83-7.13c3.2-1.66,4.78-3.5,4.72-5.49s-1.67-3.58-4.91-4.75a26.3,26.3,0,0,0-9.36-1.34l-.71,0c-.54,0-1.08,0-1.65.09a40.79,40.79,0,0,0-4.77.78,7.73,7.73,0,0,0-3.64-2.66,22.53,22.53,0,0,0-8-1.14"/><path class="cls-6" d="M480.77,237.89l-22.49-8.09,2.42-1.25a29.89,29.89,0,0,1,12.45-3.12h.55a26.54,26.54,0,0,1,9.39,1.44c6.77,2.43,6.87,6.29.18,9.75l-2.49,1.29m-5.32-17.21-.87,0c-.73,0-1.47.07-2.22.13a51.35,51.35,0,0,0-19.09,5h0l-9.89,5.1,37.42,13.48,9.89-5.11q8.08-4.18,8.1-9,0-4.37-8.21-7.32a42.31,42.31,0,0,0-15.16-2.35"/><polyline class="cls-6" points="497.41 203.01 474.98 214.59 512.56 228.11 534.99 216.53 527.5 213.84 512.55 221.56 505.01 218.84 516.23 213.05 508.72 210.36 497.51 216.15 489.95 213.42 504.91 205.72 497.41 203.01"/><path class="cls-6" d="M524.34,192.86l-.65,0a31.67,31.67,0,0,0-12.9,3c-6.27,3.23-6.27,7.69,0,10a22.35,22.35,0,0,0,7.79,1.06l.68,0a43.42,43.42,0,0,0,10.46-1.72c2.64-.76,6.18-2.2,9.23-2.3h.19a7.05,7.05,0,0,1,2.5.36c2.09.74,1.53,2.54-.53,3.61h.07a13.65,13.65,0,0,1-5.27,1.22h-.22a7.73,7.73,0,0,1-2.66-.34l-5.83,4.39a28.33,28.33,0,0,0,7.09.7l.69,0a34.4,34.4,0,0,0,13.84-3.22c6.26-3.23,6.79-8,.48-10.24a21.57,21.57,0,0,0-7.57-1l-.59,0a41.41,41.41,0,0,0-10.85,1.93c-2.47.78-5.89,2-8.88,2.09h-.2a8,8,0,0,1-2.79-.39c-2.08-.74-2.09-2.25,0-3.32a10.59,10.59,0,0,1,4.28-1h.19A8.79,8.79,0,0,1,526,198l5.84-4.4a29,29,0,0,0-7.49-.78"/><polyline class="cls-6" points="533.73 184.35 526.25 188.21 563.69 201.68 571.16 197.82 533.73 184.35"/><path class="cls-6" d="M574.5,168c-6,.48-13.17,1.93-18.91,4.88h-.09q-7.83,4-7.71,8.88c.06,3.26,2.7,5.82,7.91,7.7a42.09,42.09,0,0,0,15,2.17l1.06,0c.94,0,1.91-.09,2.9-.16a48.91,48.91,0,0,0,18.87-4.87c5.18-2.68,7.77-5.63,7.78-8.88s-2.8-6.22-10.33-8.46L571.88,179l7.17,2.58,10.61-5.47c1.91,2.12,1.18,5.12-3.65,7.62a29.39,29.39,0,0,1-11.33,2.91c-.56,0-1.11.07-1.65.09l-.71,0a25.27,25.27,0,0,1-9-1.3c-3.15-1.13-4.73-2.67-4.75-4.61s1.49-3.72,4.61-5.33a29.83,29.83,0,0,1,11.36-2.91l0-4.67"/><polyline class="cls-6" points="607.65 146.13 600.16 149.99 620.96 157.48 577.06 161.3 615.34 175.08 622.81 171.23 602.02 163.75 645.95 159.92 625.41 152.52 607.65 146.13"/></g></g></g></g><path class="cls-1" d="M0,24.47a20.43,20.43,0,0,1,3.17.89,2.54,2.54,0,0,1,1.38,1.45,24.42,24.42,0,0,1-.08,9.61c-.29,1.38-1.07,1.65-2.43,1.14-2-.76-2-.76-2-2.9Zm7.08,76.92c-2-.91-3.88-1.89-5.86-2.74a1.79,1.79,0,0,1-1.25-2C0,86.13,0,75.57,0,65V61.35c3,1.11,5.85,2.08,8.63,3.27a4.24,4.24,0,0,1,1.9,2.06c4.26,9.46,5.74,19.25,3.11,29.43a14.13,14.13,0,0,1-2,4.16C10.47,102,9,102.26,7.11,101.38ZM362,120.65q32.78-12.15,65.54-24.36c.26-.1.52-.16,1-.3v1.37q0,18.17,0,36.35c0,.75,0,1.3-.91,1.67Q394.79,149,362,162.63l-1,.37v-1.24q0-19.79,0-39.58A1.37,1.37,0,0,1,362,120.65ZM252.78,86.24Q283,96.63,313.24,107a1.25,1.25,0,0,1,1,1.42q0,60.29,0,120.57c0,.3,0,.59,0,.89l-.21,0L251.5,85.89C252,86,252.42,86.11,252.78,86.24ZM220.26,75.06l-14.43,66.34h-.26L191.08,65.72l-.23,0-13.51,63.67-.24,0-13.92-74ZM43.31,40.43c0-.16,0-.31.08-.72l4.8,1.81a11,11,0,0,0,1.35.5c3.85.9,6,3.58,7.44,7a42.16,42.16,0,0,1,2.28,26.28,19.29,19.29,0,0,1-2.69,5.81c-1.25,2-3,2.27-5.14,1.38-2.43-1-4.85-2.07-7.28-3.07a1.15,1.15,0,0,1-.86-1.23Q43.33,59.32,43.31,40.43ZM72.08,159.08,58.87,109.32c6.43-3.68,8.6-10.05,10.53-16.52A71,71,0,0,0,72,74.09a104.19,104.19,0,0,0-4.29-33.62C66,34.8,63.9,29.26,60.55,24.32c-1.4-2.06-3.12-3.9-4.61-5.74L109.1,36.85a36.74,36.74,0,0,0-5.78-.19c-4.73.52-8.08,3.43-10.86,7-4.49,5.82-7.17,12.52-9.1,19.53a114.64,114.64,0,0,0-3.66,28.58,157.65,157.65,0,0,0,5.55,45.65c2.59,9.21,5.84,18.17,10.71,26.46,3.16,5.38,6.93,10.24,12.12,13.89ZM101,140.72a75.69,75.69,0,0,1-8-24.35,96.38,96.38,0,0,1-.71-26.65c.78-6.89,2.43-13.53,6.36-19.39a17.4,17.4,0,0,1,2.22-2.67,8.45,8.45,0,0,1,9.93-1.81,17.92,17.92,0,0,1,7.32,6.39c3.75,5.28,6.06,11.23,7.91,17.37a88.53,88.53,0,0,1,3.7,24.57c0,.76,0,1.52,0,2.28,0,7.83-.61,15.57-3.39,23a26.88,26.88,0,0,1-5.06,8.77c-3.38,3.74-7.53,4.38-11.88,1.85C105.55,147.86,103,144.48,101,140.72ZM427.39,226q-23.76,12.21-47.49,24.48l-17.77,9.18c-.31.16-.63.3-1.13.54v-1.29q0-34.26,0-68.52a1.55,1.55,0,0,1,1.09-1.69q32.66-14.41,65.3-28.86l1.13-.48c0,.54.07,1,.07,1.37q0,31.68,0,63.36A1.85,1.85,0,0,1,427.39,226Z"/><path class="cls-7" d="M592.86,141.38c-3.2,1.62-6.42,3.21-9.6,4.86L525.8,176l-57,29.53-1.87.94c0-.59,0-1,0-1.42q0-74.09,0-148.18c0-.83,0-1.42,1.05-1.78q43.14-14.67,86.25-29.42l38-13c.22-.08.46-.11.69-.17V34.58l-.45.14Q550,50.48,507.53,66.23a1.6,1.6,0,0,0-1.24,1.8c0,10.92,0,21.84,0,32.75v1.42c.61-.23,1-.37,1.41-.54l67.68-28.11c5.82-2.42,11.63-4.87,17.45-7.31V87.38l-.44.19q-42.53,18.88-85.07,37.74a1.49,1.49,0,0,0-1,1.6q0,16.56,0,33.11c0,.37,0,.74.08,1.25l5.89-2.85,75.47-36.8c1.68-.82,3.39-1.56,5.09-2.33Z"/><path class="cls-7" d="M31.17,10.06Q16.52,5.05,1.88,0q-.07.3-.16.6A11,11,0,0,1,7.5,5.38,35.91,35.91,0,0,1,9.91,9.93c3.58,8.28,4.83,17,5,26,.05,2.59.62,5.21.38,7.77-.28,3,1.82,4.83,2.54,7.29.12.42.33.81.47,1.23C24,68.63,26.48,85.5,24.5,102.89a48.38,48.38,0,0,1-4,15.36c-1.94,4.1-4,8.12-9.31,9.11l20.92,10.92a13.94,13.94,0,0,0,.2-1.71q0-62.13,0-124.26v-1.8Z"/><path class="cls-7" d="M361,260.17v-1.29q0-34.26,0-68.52a1.55,1.55,0,0,1,1.09-1.69q32.66-14.41,65.3-28.86l1.13-.48c0,.54.07,1,.07,1.37q0,31.68,0,63.36a1.85,1.85,0,0,1-1.19,1.91q-23.76,12.21-47.49,24.48l-17.77,9.18C361.81,259.8,361.49,259.94,361,260.17Z"/><path class="cls-7" d="M314,229.94,251.5,85.89c.55.15.92.23,1.28.35Q283,96.63,313.24,107a1.25,1.25,0,0,1,1,1.42q0,60.29,0,120.57c0,.3,0,.59,0,.89Z"/><path class="cls-7" d="M267.56,260.9l46.74,24.35L268.56,168.3l-.27,0-.92,91.56-.33-.17C267.22,260.11,267.4,260.5,267.56,260.9Z"/><path class="cls-7" d="M176.41,213.44c.27.12.52.25.78.38a4.41,4.41,0,0,1-.5-1.12c-.61-3.34-1.17-6.69-1.75-10q-4.64-26.56-9.27-53.12-4.26-24.44-8.5-48.88-4.28-24.61-8.56-49.23A1.66,1.66,0,0,0,147.35,50Q132,44.73,116.65,39.44c-1.72-.59-3.46-1.16-5.26-1.77,1.75,1.12,3.48,2.05,5,3.24,5.05,3.87,8.61,9,11.52,14.56,8.88,16.93,13.24,35.12,14.68,54.08a160,160,0,0,1-.22,27.66,90.64,90.64,0,0,1-4.83,22.67c-2.11,5.74-4.82,11.16-9.05,15.67-3.26,3.47-7.14,5.67-12.1,5.19a44,44,0,0,1-4.34-.87c.47.28.73.46,1,.6q30.5,15.88,61,31.76A13.12,13.12,0,0,1,176.41,213.44Z"/><path class="cls-7" d="M191,149.55l-13.34,64.29-.26.06.71.39.19.09q13.18,6.86,26.34,13.75a.9.9,0,0,1,.28.27l.53.2C200.65,202.26,196,175.89,191,149.55Z"/><path class="cls-7" d="M251,250.11q.06-81.35,0-162.71c0-.69.11-1.38.16-2a8.54,8.54,0,0,1-1.42-.22c-1.52-.49-3-1-4.53-1.55L238,81.19,206,228.65l-.38,0,.49.24h0l.52.27.4.21,43.25,22.53c.38-.1.77-.18,1.16-.24A2.31,2.31,0,0,1,251,250.11Z"/><path class="cls-7" d="M361,163v-1.24q0-19.79,0-39.58a1.37,1.37,0,0,1,1.06-1.53q32.78-12.15,65.54-24.36c.26-.1.52-.16,1-.3v1.37q0,18.17,0,36.35c0,.75,0,1.3-.91,1.67Q394.79,149,362,162.63Z"/><path class="cls-7" d="M108.07,177.83l-36-18.74L58.87,109.32c6.43-3.68,8.6-10.05,10.53-16.52A71,71,0,0,0,72,74.09a104.19,104.19,0,0,0-4.29-33.62C66,34.8,63.9,29.26,60.55,24.32c-1.4-2.06-3.12-3.9-4.61-5.74L109.1,36.85a36.73,36.73,0,0,0-5.78-.19c-4.73.52-8.08,3.43-10.86,7-4.49,5.82-7.17,12.52-9.1,19.54a114.64,114.64,0,0,0-3.66,28.58,157.64,157.64,0,0,0,5.55,45.65c2.59,9.21,5.84,18.17,10.71,26.46C99.1,169.31,102.88,174.17,108.07,177.83Z"/><path class="cls-7" d="M129.68,116.46c0,7.83-.61,15.57-3.39,23a26.88,26.88,0,0,1-5.06,8.77c-3.38,3.74-7.53,4.38-11.88,1.85-3.8-2.21-6.32-5.59-8.38-9.35a75.69,75.69,0,0,1-8-24.35,96.39,96.39,0,0,1-.71-26.65c.78-6.89,2.43-13.53,6.36-19.39a17.39,17.39,0,0,1,2.22-2.67,8.45,8.45,0,0,1,9.93-1.81,17.92,17.92,0,0,1,7.32,6.39c3.75,5.28,6.06,11.23,7.91,17.37a88.53,88.53,0,0,1,3.7,24.57C129.69,114.94,129.68,115.7,129.68,116.46Z"/><path class="cls-7" d="M220.26,75.06l-14.43,66.34h-.26L191.08,65.72l-.23,0-13.51,63.67-.24,0-13.92-74Z"/><path class="cls-7" d="M43.39,39.71l4.8,1.81a11,11,0,0,0,1.35.5c3.85.9,6,3.58,7.44,7a42.16,42.16,0,0,1,2.28,26.28,19.29,19.29,0,0,1-2.69,5.81c-1.25,2-3,2.27-5.14,1.38-2.43-1-4.85-2.07-7.28-3.07a1.15,1.15,0,0,1-.86-1.23q0-18.89,0-37.78C43.31,40.27,43.35,40.12,43.39,39.71Z"/><path class="cls-7" d="M0,61.35c3,1.11,5.85,2.08,8.63,3.27a4.24,4.24,0,0,1,1.9,2.06c4.26,9.46,5.74,19.25,3.11,29.43a14.13,14.13,0,0,1-2,4.16c-1.15,1.72-2.62,2-4.5,1.12s-3.88-1.89-5.86-2.74a1.79,1.79,0,0,1-1.25-2C0,86.13,0,75.57,0,65Z"/><path class="cls-7" d="M43.55,97.34l-.31,0V144l0,0c.11.14.22.29.33.43l.52.18c2.4.76,4.56,2.29,6.82,3.47l6.91,3.58Z"/><path class="cls-7" d="M0,24.47a20.44,20.44,0,0,1,3.17.89,2.54,2.54,0,0,1,1.38,1.45,24.42,24.42,0,0,1-.08,9.61c-.29,1.38-1.07,1.65-2.43,1.14-2-.76-2-.76-2-2.9C0,31.31,0,28,0,24.47Z"/></g></g></svg>