<svg xmlns="http://www.w3.org/2000/svg" viewBox="0 0 768 768"><defs><style>.cls-1{fill:#fff;}.cls-2{fill:#444;}</style></defs><title>Asset 1</title><g id="Layer_2" data-name="Layer 2"><g id="Layer_1-2" data-name="Layer 1"><path class="cls-1" d="M0,768V0H768V768Zm385.26-9.07a83.62,83.62,0,0,0,9.52-.67A66.2,66.2,0,0,0,447.94,676c-.92-3.56,0-5.36,3.1-7.17q73-42,145.78-84.2c3.66-2.13,5.62-1.36,8.46,1.32,16.94,15.94,37.1,21.89,59.83,17.25,28.51-5.82,50.78-31.29,52.41-58.93,1.87-31.74-16.05-59-45.55-68.64-4.31-1.41-5.54-3.31-5.53-7.68q.21-84,0-168c0-4.46,1.4-6.23,5.64-7.6,30-9.74,49.61-39.91,45.28-70.64-3.67-26-17.86-44.83-42.6-54s-47.87-4.48-67.82,13.12c-3.31,2.92-5.48,2.91-9,.84-27-15.78-54.18-31.37-81.29-47q-32.45-18.74-64.91-37.44c-3-1.69-3.92-3.32-3.37-7.07a102.86,102.86,0,0,0,1.22-21.72C447.36,35.13,415.73,2.92,372.47,9.9c-34.27,5.54-61.71,40-53,79.38.94,4.23-.26,6.21-3.79,8.23q-73,41.91-145.81,84.14c-3.76,2.18-5.86,1.79-9-1-16.74-15-36.47-20.49-58.37-15.76C71.64,171.53,53,195.95,50.6,222.94c-3.12,34.57,18,60.58,45,69.31,4.74,1.53,5.94,3.72,5.93,8.41q-.23,83.24,0,166.48c0,4.95-1.29,7.12-6.19,8.75-32.12,10.69-51,44.61-43.34,77,12,50.34,71.33,68.73,109.78,33.91,2.66-2.41,4.58-2.34,7.4-.68,13.21,7.75,26.51,15.35,39.78,23q53.43,30.84,106.9,61.62c3.45,2,4.09,3.94,3.67,7.88-.89,8.35-2,17-.79,25.19C323.39,735.5,351.4,758.83,385.26,758.93Z"/><path class="cls-2" d="M385.26,758.93c-33.86-.1-61.87-23.43-66.47-55.13-1.19-8.2-.11-16.85.79-25.19.42-3.93-.22-5.9-3.67-7.88Q262.37,640.06,209,609.11c-13.27-7.66-26.57-15.26-39.78-23-2.82-1.65-4.74-1.73-7.4.68C123.38,621.6,64,603.21,52,552.87c-7.69-32.38,11.22-66.3,43.34-77,4.9-1.63,6.2-3.8,6.19-8.75q-.27-83.24,0-166.48c0-4.69-1.19-6.88-5.93-8.41-27.05-8.72-48.15-34.73-45-69.31,2.44-27,21-51.41,51.91-58.09,21.9-4.74,41.63.75,58.37,15.76,3.15,2.82,5.24,3.22,9,1q72.79-42.27,145.81-84.14c3.53-2,4.73-4,3.79-8.23-8.72-39.39,18.72-73.85,53-79.38,43.26-7,74.89,25.23,77.08,58.48a102.86,102.86,0,0,1-1.22,21.72c-.56,3.75.41,5.37,3.37,7.07q32.51,18.62,64.91,37.44c27.11,15.65,54.26,31.24,81.29,47,3.56,2.08,5.74,2.08,9-.84,19.95-17.6,43-22.39,67.82-13.12s38.93,28,42.6,54c4.34,30.73-15.24,60.9-45.28,70.64-4.24,1.37-5.65,3.15-5.64,7.6q.23,84,0,168c0,4.37,1.22,6.27,5.53,7.68,29.5,9.64,47.43,36.9,45.55,68.64-1.63,27.64-23.9,53.11-52.41,58.93-22.74,4.64-42.89-1.31-59.83-17.25-2.84-2.68-4.8-3.44-8.46-1.32Q524,626.92,451,668.83c-3.14,1.8-4,3.61-3.1,7.17a66.2,66.2,0,0,1-53.17,82.25A83.62,83.62,0,0,1,385.26,758.93Zm-1.65-235.5q98.73,0,197.46.09c4.2,0,5.75-1.5,7.49-5.28,3.72-8.09,7.85-16.18,13.16-23.26,3.2-4.27,3.45-6.75.89-11.15Q551.09,395,499.88,306.07,453.05,225,406.31,143.79c-2.33-4.05-4.65-4.62-9.09-4.14a133.85,133.85,0,0,1-24.7.51c-7.9-.61-7.81-1.23-11.79,5.67Q316.53,222.41,272.32,299q-53.95,93.44-108,186.84c-1.82,3.15-1.17,4.91.79,7.82a174.71,174.71,0,0,1,14,23.92c2,4.29,3.67,6,8.48,6Q285.63,523.3,383.62,523.44Zm.52,30.16H188.66a27.55,27.55,0,0,0-5.48.21,3.73,3.73,0,0,0-2.3,2.11c-.22.61.51,1.84,1.15,2.43a18.15,18.15,0,0,0,3.35,2.16q72.69,41.95,145.34,84c3.53,2,5.71,2.22,9.06-.72,26.39-23.23,64.71-22.69,89.77,1.22,3.13,3,5.27,3.12,8.9,1q63.5-36.89,127.16-73.48c6.63-3.83,13.33-7.56,19.82-11.61a5,5,0,0,0,1.89-4.27c-.33-1.24-2.27-2.41-3.75-2.9s-3.3-.13-5-.13ZM131.67,383.7c0,28.17,0,56.33.09,84.5,0,2,1.35,4,2.07,6,1.6-1.43,3.68-2.57,4.72-4.32,7.54-12.76,14.87-25.65,22.28-38.48q87.71-151.86,175.35-303.76c.86-1.5.77-3.54,1.13-5.33-1.94.3-4.18.07-5.77,1q-73.43,42.18-146.77,84.52c-3.35,1.93-4.49,3.8-3.61,7.93a65.68,65.68,0,0,1-43.61,76.37c-4.73,1.58-6,3.86-6,8.54C131.76,328.37,131.67,356,131.67,383.7Zm504.67.27c0-27.83-.08-55.66.08-83.48,0-4.45-1.07-6.7-5.69-8.23a65.72,65.72,0,0,1-43.85-76.66c.84-4-.27-5.7-3.46-7.52-17.65-10.05-35.2-20.29-52.79-30.44q-47.15-27.23-94.35-54.37c-1.51-.87-3.58-.75-5.4-1.09a48.93,48.93,0,0,0,.91,5.32,14.27,14.27,0,0,0,1.68,3.05L627.77,467.09a41.09,41.09,0,0,0,3.66,5.94c2,2.38,3.87,1.71,4.66-1.11a18.77,18.77,0,0,0,.24-5Q636.34,425.46,636.33,384Z"/><path class="cls-1" d="M383.62,523.44q-98,0-196,.11c-4.81,0-6.49-1.72-8.48-6a174.71,174.71,0,0,0-14-23.92c-2-2.91-2.62-4.67-.79-7.82q54.08-93.36,108-186.84,44.21-76.57,88.4-153.14c4-6.9,3.89-6.28,11.79-5.67a133.85,133.85,0,0,0,24.7-.51c4.44-.48,6.77.09,9.09,4.14Q452.93,225,499.88,306.07,551.21,395,602.62,483.82c2.55,4.4,2.31,6.88-.89,11.15-5.31,7.08-9.44,15.18-13.16,23.26-1.74,3.78-3.3,5.29-7.49,5.28Q482.35,523.34,383.62,523.44Z"/><path class="cls-1" d="M384.13,553.59H578.61c1.67,0,3.46-.36,5,.13s3.42,1.65,3.75,2.9a5,5,0,0,1-1.89,4.27c-6.49,4.06-13.19,7.79-19.82,11.61Q502,609.21,438.45,646c-3.63,2.11-5.77,2-8.9-1-25.06-23.91-63.38-24.45-89.77-1.22-3.34,2.94-5.53,2.77-9.06.72q-72.6-42.1-145.34-84a18.15,18.15,0,0,1-3.35-2.16c-.64-.59-1.37-1.83-1.15-2.43a3.73,3.73,0,0,1,2.3-2.11,27.55,27.55,0,0,1,5.48-.21Z"/><path class="cls-1" d="M131.67,383.7c0-27.67.09-55.33-.09-83,0-4.68,1.24-7,6-8.54a65.68,65.68,0,0,0,43.61-76.37c-.87-4.13.27-6,3.61-7.93q73.41-42.21,146.77-84.52c1.59-.91,3.83-.68,5.77-1-.36,1.79-.27,3.83-1.13,5.33q-87.6,151.92-175.35,303.76c-7.41,12.84-14.74,25.72-22.28,38.48-1,1.76-3.12,2.9-4.72,4.32-.72-2-2.06-4-2.07-6C131.62,440,131.67,411.87,131.67,383.7Z"/><path class="cls-1" d="M636.33,384q0,41.49,0,83a18.77,18.77,0,0,1-.24,5c-.79,2.81-2.67,3.49-4.66,1.11a41.09,41.09,0,0,1-3.66-5.94L433.46,130.55a14.27,14.27,0,0,1-1.68-3.05,48.93,48.93,0,0,1-.91-5.32c1.81.34,3.88.23,5.4,1.09q47.23,27.08,94.35,54.37c17.59,10.16,35.14,20.39,52.79,30.44,3.19,1.82,4.3,3.56,3.46,7.52a65.72,65.72,0,0,0,43.85,76.66c4.62,1.53,5.72,3.78,5.69,8.23C636.25,328.31,636.33,356.14,636.33,384Z"/></g></g></svg>