<?xml version="1.0" encoding="utf-8"?>
<!-- Generator: Adobe Illustrator 21.1.0, SVG Export Plug-In . SVG Version: 6.00 Build 0)  -->
<svg version="1.1" id="Layer_1" xmlns="http://www.w3.org/2000/svg" xmlns:xlink="http://www.w3.org/1999/xlink" x="0px" y="0px"
	 viewBox="0 0 550.9 511.8" style="enable-background:new 0 0 550.9 511.8;" xml:space="preserve">
<style type="text/css">
	.st0{fill:#FFFFFF;}
	.st1{fill:#444444;}
</style>
<title>Asset 1</title>
<g id="Layer_2">
	<g id="Layer_1-2">
		<path class="st0" d="M550.9,511.8H0V0h550.9V511.8z M531.2,143.3c-24-28-47.6-55.6-71.3-83.1c-1.4-1.4-3.1-2.5-5-3.2
			c-28-11.9-56-23.8-84.1-35.7c-2.3-1-4.7-1.5-7.2-1.5c-58.8-0.1-117.7-0.1-176.5,0c-2.5,0-4.9,0.5-7.2,1.5C152,33.1,124,45,96,57
			c-2.6,1.1-4.8,2.8-6.7,4.9c-13,15-25.9,30.1-38.8,45.1l-31,36.2L275.4,492L531.2,143.3z"/>
		<path class="st1" d="M531.2,143.3L275.4,492L19.6,143.3l31-36.2C63.4,92,76.3,76.9,89.3,61.9c1.8-2.1,4.1-3.8,6.7-4.9
			c28-12,56-23.9,84-35.7c2.3-1,4.7-1.5,7.2-1.5c58.8-0.1,117.7-0.1,176.5,0c2.5,0,4.9,0.6,7.2,1.5C399,33.2,427,45.1,455,57
			c1.9,0.7,3.6,1.7,5,3.1C483.6,87.7,507.2,115.3,531.2,143.3z M398.4,236.5H151l124,226.3L398.4,236.5z M398,218.8
			c-0.5-1.3-0.7-1.9-0.9-2.5c-13.2-29.8-26.6-59.5-39.6-89.4c-1.4-3.3-3.6-3.3-6.3-3.2c-50.8,0-101.6,0-152.4-0.1
			c-3.8,0-5.5,1.2-7,4.6c-12.6,28.6-25.4,57.2-38.1,85.7c-0.6,1.5-1.2,3-2,4.8L398,218.8z M433.7,67.5c-0.7-0.5-1.4-0.9-2.1-1.3
			C409.4,56.7,387.2,47.3,365,38c-2-0.7-4.2-1.1-6.3-1c-56-0.1-112-0.1-167.9,0c-2.8,0-5.6,0.6-8.1,1.7c-20.7,8.7-41.3,17.6-62,26.4
			c-1.4,0.6-2.8,1.4-4.5,2.2c0.9,0.6,1.4,1,2,1.3c24.3,12.1,48.5,24.2,72.9,36.2c2.3,1,4.7,1.5,7.2,1.4c51.1,0.1,102.3,0.1,153.4,0
			c3-0.1,5.9-0.8,8.5-2.1C380.9,94,401.4,83.7,422,73.4C425.8,71.5,429.6,69.5,433.7,67.5z M40.6,144.3l93.5,70.8l43.9-98L97.3,77.7
			L40.6,144.3z M452.1,77.7l-80.6,39.4l43.9,97.8l93.3-70.8L452.1,77.7z M79.6,195.1l-0.8,0.8L194,352.6c0.4-0.7,0.4-1.5,0-2.2
			c-20.8-38.1-41.5-76.2-62.3-114.3c-0.7-1.3-1.6-2.5-2.8-3.4C112.5,220.1,96.1,207.6,79.6,195.1z M470.7,196.2l-0.9-0.6
			c-15.4,11.7-30.8,23.2-46.1,35c-2.7,2.1-5,4.7-6.7,7.7c-20,36.5-40,73-59.8,109.5c-0.8,1.4-1.5,2.9-2.2,4.4l0.8,0.4L470.7,196.2z"
			/>
		<path class="st0" d="M398.4,236.5L275,462.8L151,236.5H398.4z"/>
		<path class="st0" d="M398,218.8H151.7c0.8-1.9,1.3-3.4,2-4.8c12.7-28.6,25.5-57.1,38.1-85.7c1.5-3.4,3.2-4.6,7-4.6
			c50.8,0.1,101.6,0.2,152.4,0.1c2.7,0,4.9,0,6.3,3.2c13.1,29.9,26.4,59.6,39.6,89.4C397.4,216.9,397.6,217.5,398,218.8z"/>
		<path class="st0" d="M433.7,67.5c-4.1,2.1-7.9,4-11.8,6c-20.5,10.2-41.1,20.5-61.7,30.6c-2.7,1.3-5.6,2-8.5,2.1
			c-51.1,0.1-102.3,0.1-153.4,0c-2.5,0.1-4.9-0.4-7.2-1.4c-24.3-12-48.6-24.1-72.9-36.2c-0.6-0.3-1.1-0.7-2-1.3
			c1.7-0.8,3-1.6,4.5-2.2c20.6-8.8,41.3-17.7,62-26.4c2.6-1.1,5.3-1.7,8.1-1.7c56-0.1,112-0.1,167.9,0c2.1-0.1,4.3,0.3,6.3,1
			c22.2,9.3,44.4,18.8,66.6,28.2C432.3,66.6,433,67,433.7,67.5z"/>
		<path class="st0" d="M40.6,144.3l56.7-66.5l80.7,39.4l-43.9,98L40.6,144.3z"/>
		<path class="st0" d="M452.1,77.7l56.5,66.3l-93.3,70.8l-43.9-97.8L452.1,77.7z"/>
		<path class="st0" d="M79.6,195.1c16.4,12.5,32.8,25,49.2,37.5c1.2,0.9,2.1,2.1,2.8,3.4c20.8,38.1,41.6,76.2,62.3,114.3
			c0.4,0.7,0.4,1.5,0,2.2L78.9,195.9L79.6,195.1z"/>
		<path class="st0" d="M470.7,196.2L355.8,352.6l-0.8-0.4c0.7-1.5,1.5-2.9,2.2-4.4c19.9-36.5,39.9-73,59.8-109.4
			c1.7-3,4-5.6,6.7-7.7c15.3-11.8,30.7-23.4,46.1-35L470.7,196.2z"/>
	</g>
</g>
</svg>
